<?xml version="1.0" encoding="UTF-8"?>
<!--Generator: Apple Native CoreSVG 123-->
<!DOCTYPE svg
PUBLIC "-//W3C//DTD SVG 1.1//EN"
       "http://www.w3.org/Graphics/SVG/1.1/DTD/svg11.dtd">
<svg version="1.1" xmlns="http://www.w3.org/2000/svg" xmlns:xlink="http://www.w3.org/1999/xlink" width="3300" height="2200">
 <!--glyph: "uni100248.medium", point size: 100.000000, font version: "Version 15.0d7e11", template writer version: "5"-->
 <g id="Notes">
  <rect height="2200" id="artboard" style="fill:white;opacity:1" width="3300" x="0" y="0"/>
  <line id="" style="fill:none;stroke:black;opacity:1;stroke-width:0.5;" x1="263" x2="3036" y1="292" y2="292"/>
  <text style="stroke:none;fill:black;font-family:-apple-system,&quot;SF Pro Display&quot;,&quot;SF Pro Text&quot;,Helvetica,sans-serif;font-weight:bold;" transform="matrix(1 0 0 1 263 322)">Weight/Scale Variations</text>
  <text style="stroke:none;fill:black;font-family:-apple-system,&quot;SF Pro Display&quot;,&quot;SF Pro Text&quot;,Helvetica,sans-serif;text-anchor:middle;" transform="matrix(1 0 0 1 559.711 322)">Ultralight</text>
  <text style="stroke:none;fill:black;font-family:-apple-system,&quot;SF Pro Display&quot;,&quot;SF Pro Text&quot;,Helvetica,sans-serif;text-anchor:middle;" transform="matrix(1 0 0 1 856.422 322)">Thin</text>
  <text style="stroke:none;fill:black;font-family:-apple-system,&quot;SF Pro Display&quot;,&quot;SF Pro Text&quot;,Helvetica,sans-serif;text-anchor:middle;" transform="matrix(1 0 0 1 1153.13 322)">Light</text>
  <text style="stroke:none;fill:black;font-family:-apple-system,&quot;SF Pro Display&quot;,&quot;SF Pro Text&quot;,Helvetica,sans-serif;text-anchor:middle;" transform="matrix(1 0 0 1 1449.84 322)">Regular</text>
  <text style="stroke:none;fill:black;font-family:-apple-system,&quot;SF Pro Display&quot;,&quot;SF Pro Text&quot;,Helvetica,sans-serif;text-anchor:middle;" transform="matrix(1 0 0 1 1746.56 322)">Medium</text>
  <text style="stroke:none;fill:black;font-family:-apple-system,&quot;SF Pro Display&quot;,&quot;SF Pro Text&quot;,Helvetica,sans-serif;text-anchor:middle;" transform="matrix(1 0 0 1 2043.27 322)">Semibold</text>
  <text style="stroke:none;fill:black;font-family:-apple-system,&quot;SF Pro Display&quot;,&quot;SF Pro Text&quot;,Helvetica,sans-serif;text-anchor:middle;" transform="matrix(1 0 0 1 2339.98 322)">Bold</text>
  <text style="stroke:none;fill:black;font-family:-apple-system,&quot;SF Pro Display&quot;,&quot;SF Pro Text&quot;,Helvetica,sans-serif;text-anchor:middle;" transform="matrix(1 0 0 1 2636.69 322)">Heavy</text>
  <text style="stroke:none;fill:black;font-family:-apple-system,&quot;SF Pro Display&quot;,&quot;SF Pro Text&quot;,Helvetica,sans-serif;text-anchor:middle;" transform="matrix(1 0 0 1 2933.4 322)">Black</text>
  <line id="" style="fill:none;stroke:black;opacity:1;stroke-width:0.5;" x1="263" x2="3036" y1="1903" y2="1903"/>
  <g id="" transform="matrix(1 0 0 1 263 1933)">
   <path d="M 9.24805 0.830078 C 13.5547 0.830078 17.1387 -2.74414 17.1387 -7.05078 C 17.1387 -11.3574 13.5449 -14.9316 9.23828 -14.9316 C 4.94141 -14.9316 1.36719 -11.3574 1.36719 -7.05078 C 1.36719 -2.74414 4.95117 0.830078 9.24805 0.830078 Z M 9.24805 -0.654297 C 5.70312 -0.654297 2.87109 -3.49609 2.87109 -7.05078 C 2.87109 -10.6055 5.69336 -13.4473 9.23828 -13.4473 C 12.793 -13.4473 15.6348 -10.6055 15.6445 -7.05078 C 15.6543 -3.49609 12.8027 -0.654297 9.24805 -0.654297 Z M 9.22852 -3.42773 C 9.69727 -3.42773 9.9707 -3.74023 9.9707 -4.25781 L 9.9707 -6.31836 L 12.1973 -6.31836 C 12.6953 -6.31836 13.0371 -6.57227 13.0371 -7.04102 C 13.0371 -7.51953 12.7148 -7.7832 12.1973 -7.7832 L 9.9707 -7.7832 L 9.9707 -10.0098 C 9.9707 -10.5273 9.69727 -10.8496 9.22852 -10.8496 C 8.75977 -10.8496 8.50586 -10.5078 8.50586 -10.0098 L 8.50586 -7.7832 L 6.29883 -7.7832 C 5.78125 -7.7832 5.44922 -7.51953 5.44922 -7.04102 C 5.44922 -6.57227 5.80078 -6.31836 6.29883 -6.31836 L 8.50586 -6.31836 L 8.50586 -4.25781 C 8.50586 -3.75977 8.75977 -3.42773 9.22852 -3.42773 Z"/>
  </g>
  <g id="" transform="matrix(1 0 0 1 281.506 1933)">
   <path d="M 11.709 2.91016 C 17.1582 2.91016 21.6699 -1.60156 21.6699 -7.05078 C 21.6699 -12.4902 17.1484 -17.0117 11.6992 -17.0117 C 6.25977 -17.0117 1.74805 -12.4902 1.74805 -7.05078 C 1.74805 -1.60156 6.26953 2.91016 11.709 2.91016 Z M 11.709 1.25 C 7.09961 1.25 3.41797 -2.44141 3.41797 -7.05078 C 3.41797 -11.6504 7.08984 -15.3516 11.6992 -15.3516 C 16.3086 -15.3516 20 -11.6504 20.0098 -7.05078 C 20.0195 -2.44141 16.3184 1.25 11.709 1.25 Z M 11.6895 -2.41211 C 12.207 -2.41211 12.5195 -2.77344 12.5195 -3.33984 L 12.5195 -6.23047 L 15.5762 -6.23047 C 16.123 -6.23047 16.5039 -6.51367 16.5039 -7.03125 C 16.5039 -7.55859 16.1426 -7.86133 15.5762 -7.86133 L 12.5195 -7.86133 L 12.5195 -10.9277 C 12.5195 -11.5039 12.207 -11.8555 11.6895 -11.8555 C 11.1719 -11.8555 10.8789 -11.4844 10.8789 -10.9277 L 10.8789 -7.86133 L 7.83203 -7.86133 C 7.26562 -7.86133 6.89453 -7.55859 6.89453 -7.03125 C 6.89453 -6.51367 7.28516 -6.23047 7.83203 -6.23047 L 10.8789 -6.23047 L 10.8789 -3.33984 C 10.8789 -2.79297 11.1719 -2.41211 11.6895 -2.41211 Z"/>
  </g>
  <g id="" transform="matrix(1 0 0 1 304.924 1933)">
   <path d="M 14.9707 5.67383 C 21.9336 5.67383 27.6953 -0.078125 27.6953 -7.04102 C 27.6953 -14.0039 21.9238 -19.7559 14.9609 -19.7559 C 8.00781 -19.7559 2.25586 -14.0039 2.25586 -7.04102 C 2.25586 -0.078125 8.01758 5.67383 14.9707 5.67383 Z M 14.9707 3.85742 C 8.93555 3.85742 4.08203 -1.00586 4.08203 -7.04102 C 4.08203 -13.0762 8.92578 -17.9395 14.9609 -17.9395 C 21.0059 -17.9395 25.8594 -13.0762 25.8691 -7.04102 C 25.8789 -1.00586 21.0156 3.85742 14.9707 3.85742 Z M 14.9512 -1.06445 C 15.5176 -1.06445 15.8691 -1.45508 15.8691 -2.06055 L 15.8691 -6.13281 L 20.1074 -6.13281 C 20.6934 -6.13281 21.1133 -6.46484 21.1133 -7.02148 C 21.1133 -7.59766 20.7227 -7.93945 20.1074 -7.93945 L 15.8691 -7.93945 L 15.8691 -12.1875 C 15.8691 -12.8027 15.5176 -13.1934 14.9512 -13.1934 C 14.3848 -13.1934 14.0625 -12.7832 14.0625 -12.1875 L 14.0625 -7.93945 L 9.83398 -7.93945 C 9.21875 -7.93945 8.80859 -7.59766 8.80859 -7.02148 C 8.80859 -6.46484 9.23828 -6.13281 9.83398 -6.13281 L 14.0625 -6.13281 L 14.0625 -2.06055 C 14.0625 -1.47461 14.3848 -1.06445 14.9512 -1.06445 Z"/>
  </g>
  <text style="stroke:none;fill:black;font-family:-apple-system,&quot;SF Pro Display&quot;,&quot;SF Pro Text&quot;,Helvetica,sans-serif;font-weight:bold;" transform="matrix(1 0 0 1 263 1953)">Design Variations</text>
  <text style="stroke:none;fill:black;font-family:-apple-system,&quot;SF Pro Display&quot;,&quot;SF Pro Text&quot;,Helvetica,sans-serif;" transform="matrix(1 0 0 1 263 1971)">Symbols are supported in up to nine weights and three scales.</text>
  <text style="stroke:none;fill:black;font-family:-apple-system,&quot;SF Pro Display&quot;,&quot;SF Pro Text&quot;,Helvetica,sans-serif;" transform="matrix(1 0 0 1 263 1989)">For optimal layout with text and other symbols, vertically align</text>
  <text style="stroke:none;fill:black;font-family:-apple-system,&quot;SF Pro Display&quot;,&quot;SF Pro Text&quot;,Helvetica,sans-serif;" transform="matrix(1 0 0 1 263 2007)">symbols with the adjacent text.</text>
  <rect height="14" id="" style="fill:#00AEEF;stroke:none;opacity:0.4;" width="3" x="776" y="1919"/>
  <g id="" transform="matrix(1 0 0 1 779 1933)">
   <path d="M 10.5273 0 L 12.373 0 L 7.17773 -14.0918 L 5.43945 -14.0918 L 0.244141 0 L 2.08984 0 L 3.50586 -4.0332 L 9.11133 -4.0332 Z M 6.2793 -11.9531 L 6.33789 -11.9531 L 8.59375 -5.52734 L 4.02344 -5.52734 Z"/>
  </g>
  <rect height="14" id="" style="fill:#00AEEF;stroke:none;opacity:0.4;" width="3" x="791.617" y="1919"/>
  <text style="stroke:none;fill:black;font-family:-apple-system,&quot;SF Pro Display&quot;,&quot;SF Pro Text&quot;,Helvetica,sans-serif;font-weight:bold;" transform="matrix(1 0 0 1 776 1953)">Margins</text>
  <text style="stroke:none;fill:black;font-family:-apple-system,&quot;SF Pro Display&quot;,&quot;SF Pro Text&quot;,Helvetica,sans-serif;" transform="matrix(1 0 0 1 776 1971)">Leading and trailing margins on the left and right side of each symbol</text>
  <text style="stroke:none;fill:black;font-family:-apple-system,&quot;SF Pro Display&quot;,&quot;SF Pro Text&quot;,Helvetica,sans-serif;" transform="matrix(1 0 0 1 776 1989)">can be adjusted by modifying the width of the blue rectangles.</text>
  <text style="stroke:none;fill:black;font-family:-apple-system,&quot;SF Pro Display&quot;,&quot;SF Pro Text&quot;,Helvetica,sans-serif;" transform="matrix(1 0 0 1 776 2007)">Modifications are automatically applied proportionally to all</text>
  <text style="stroke:none;fill:black;font-family:-apple-system,&quot;SF Pro Display&quot;,&quot;SF Pro Text&quot;,Helvetica,sans-serif;" transform="matrix(1 0 0 1 776 2025)">scales and weights.</text>
  <g id="" transform="matrix(1 0 0 1 1289 1933)">
   <path d="M 2.83203 3.11523 L 4.375 4.6582 C 5.22461 5.48828 6.19141 5.41992 7.06055 4.46289 L 17.2754 -6.66016 C 17.7051 -6.36719 18.0957 -6.37695 18.5645 -6.47461 L 19.6094 -6.68945 L 20.3027 -5.99609 L 20.2539 -5.47852 C 20.1855 -4.95117 20.3516 -4.53125 20.8496 -4.0332 L 21.6602 -3.22266 C 22.168 -2.71484 22.8223 -2.68555 23.3008 -3.16406 L 26.5527 -6.41602 C 27.0312 -6.89453 27.0117 -7.54883 26.5039 -8.05664 L 25.6836 -8.87695 C 25.1855 -9.375 24.7754 -9.55078 24.2383 -9.47266 L 23.7109 -9.41406 L 23.0566 -10.0781 L 23.3398 -11.2207 C 23.4863 -11.7871 23.3398 -12.2559 22.7148 -12.8613 L 20.3027 -15.2539 C 16.7578 -18.7793 12.2266 -18.6719 9.11133 -15.5371 C 8.69141 -15.1074 8.64258 -14.5215 8.91602 -14.0918 C 9.15039 -13.7207 9.62891 -13.4961 10.2734 -13.6621 C 11.7871 -14.043 13.3008 -13.9258 14.7852 -12.9199 L 14.1602 -11.3379 C 13.9258 -10.752 13.9453 -10.2734 14.1797 -9.83398 L 3.01758 0.439453 C 2.08008 1.30859 1.97266 2.25586 2.83203 3.11523 Z M 10.6738 -15.1465 C 13.3398 -17.1387 16.6504 -16.8262 19.0527 -14.4141 L 21.6797 -11.8066 C 21.9141 -11.5723 21.9434 -11.3867 21.8848 -11.0938 L 21.5039 -9.53125 L 23.0762 -7.95898 L 24.043 -8.04688 C 24.3262 -8.07617 24.4141 -8.05664 24.6387 -7.83203 L 25.2637 -7.20703 L 22.5098 -4.46289 L 21.8848 -5.07812 C 21.6602 -5.30273 21.6406 -5.40039 21.6699 -5.68359 L 21.7578 -6.64062 L 20.1953 -8.20312 L 18.5742 -7.89062 C 18.291 -7.83203 18.1445 -7.83203 17.9102 -8.07617 L 15.7324 -10.2539 C 15.5078 -10.4883 15.4785 -10.625 15.6055 -10.9473 L 16.5527 -13.2227 C 14.9512 -14.7559 12.8418 -15.6055 10.8008 -14.9512 C 10.7129 -14.9219 10.6445 -14.9414 10.6152 -14.9805 C 10.5859 -15.0293 10.5859 -15.0781 10.6738 -15.1465 Z M 4.10156 2.41211 C 3.61328 1.91406 3.78906 1.61133 4.12109 1.30859 L 15.0781 -8.80859 L 16.3086 -7.57812 L 6.15234 3.34961 C 5.84961 3.68164 5.46875 3.7793 5.06836 3.37891 Z"/>
  </g>
  <text style="stroke:none;fill:black;font-family:-apple-system,&quot;SF Pro Display&quot;,&quot;SF Pro Text&quot;,Helvetica,sans-serif;font-weight:bold;" transform="matrix(1 0 0 1 1289 1953)">Exporting</text>
  <text style="stroke:none;fill:black;font-family:-apple-system,&quot;SF Pro Display&quot;,&quot;SF Pro Text&quot;,Helvetica,sans-serif;" transform="matrix(1 0 0 1 1289 1971)">Symbols should be outlined when exporting to ensure the</text>
  <text style="stroke:none;fill:black;font-family:-apple-system,&quot;SF Pro Display&quot;,&quot;SF Pro Text&quot;,Helvetica,sans-serif;" transform="matrix(1 0 0 1 1289 1989)">design is preserved when submitting to Xcode.</text>
  <text id="template-version" style="stroke:none;fill:black;font-family:-apple-system,&quot;SF Pro Display&quot;,&quot;SF Pro Text&quot;,Helvetica,sans-serif;text-anchor:end;" transform="matrix(1 0 0 1 3036 1933)">Template v.1.0</text>
  <text style="stroke:none;fill:black;font-family:-apple-system,&quot;SF Pro Display&quot;,&quot;SF Pro Text&quot;,Helvetica,sans-serif;text-anchor:end;" transform="matrix(1 0 0 1 3036 1951)">Generated from scissors</text>
  <text style="stroke:none;fill:black;font-family:-apple-system,&quot;SF Pro Display&quot;,&quot;SF Pro Text&quot;,Helvetica,sans-serif;text-anchor:end;" transform="matrix(1 0 0 1 3036 1969)">Typeset at 100 points</text>
  <text style="stroke:none;fill:black;font-family:-apple-system,&quot;SF Pro Display&quot;,&quot;SF Pro Text&quot;,Helvetica,sans-serif;" transform="matrix(1 0 0 1 263 726)">Small</text>
  <text style="stroke:none;fill:black;font-family:-apple-system,&quot;SF Pro Display&quot;,&quot;SF Pro Text&quot;,Helvetica,sans-serif;" transform="matrix(1 0 0 1 263 1156)">Medium</text>
  <text style="stroke:none;fill:black;font-family:-apple-system,&quot;SF Pro Display&quot;,&quot;SF Pro Text&quot;,Helvetica,sans-serif;" transform="matrix(1 0 0 1 263 1586)">Large</text>
 </g>
 <g id="Guides">
  <g id="H-reference" style="fill:#27AAE1;stroke:none;" transform="matrix(1 0 0 1 339 696)">
   <path d="M 54.9316 0 L 57.666 0 L 30.5664 -70.459 L 28.0762 -70.459 L 0.976562 0 L 3.66211 0 L 12.9395 -24.4629 L 45.7031 -24.4629 Z M 29.1992 -67.0898 L 29.4434 -67.0898 L 44.8242 -26.709 L 13.8184 -26.709 Z"/>
  </g>
  <line id="Baseline-S" style="fill:none;stroke:#27AAE1;opacity:1;stroke-width:0.577;" x1="263" x2="3036" y1="696" y2="696"/>
  <line id="Capline-S" style="fill:none;stroke:#27AAE1;opacity:1;stroke-width:0.577;" x1="263" x2="3036" y1="625.541" y2="625.541"/>
  <g id="H-reference" style="fill:#27AAE1;stroke:none;" transform="matrix(1 0 0 1 339 1126)">
   <path d="M 54.9316 0 L 57.666 0 L 30.5664 -70.459 L 28.0762 -70.459 L 0.976562 0 L 3.66211 0 L 12.9395 -24.4629 L 45.7031 -24.4629 Z M 29.1992 -67.0898 L 29.4434 -67.0898 L 44.8242 -26.709 L 13.8184 -26.709 Z"/>
  </g>
  <line id="Baseline-M" style="fill:none;stroke:#27AAE1;opacity:1;stroke-width:0.577;" x1="263" x2="3036" y1="1126" y2="1126"/>
  <line id="Capline-M" style="fill:none;stroke:#27AAE1;opacity:1;stroke-width:0.577;" x1="263" x2="3036" y1="1055.54" y2="1055.54"/>
  <g id="H-reference" style="fill:#27AAE1;stroke:none;" transform="matrix(1 0 0 1 339 1556)">
   <path d="M 54.9316 0 L 57.666 0 L 30.5664 -70.459 L 28.0762 -70.459 L 0.976562 0 L 3.66211 0 L 12.9395 -24.4629 L 45.7031 -24.4629 Z M 29.1992 -67.0898 L 29.4434 -67.0898 L 44.8242 -26.709 L 13.8184 -26.709 Z"/>
  </g>
  <line id="Baseline-L" style="fill:none;stroke:#27AAE1;opacity:1;stroke-width:0.577;" x1="263" x2="3036" y1="1556" y2="1556"/>
  <line id="Capline-L" style="fill:none;stroke:#27AAE1;opacity:1;stroke-width:0.577;" x1="263" x2="3036" y1="1485.54" y2="1485.54"/>
  <rect height="119.336" id="left-margin" style="fill:#00AEEF;stroke:none;opacity:0.4;" width="12.4512" x="1374.82" y="1030.79"/>
  <rect height="119.336" id="right-margin" style="fill:#00AEEF;stroke:none;opacity:0.4;" width="12.4512" x="1512.42" y="1030.79"/>
 </g>
 <g id="Symbols">
  <g id="Black-L" transform="matrix(1 0 0 1 2831.15 1556)">
   <path d="M 44.7266 -40.6738 C 57.8125 -40.6738 58.6426 -45.2148 65.1367 -45.2148 C 66.6992 -45.2148 67.8711 -44.9219 69.4824 -44.043 L 74.6094 -41.2109 C 76.2695 -40.2832 77.6367 -39.502 78.7598 -38.8672 L 79.4922 -38.8672 C 81.543 -46.2891 83.3984 -49.8535 88.2324 -53.5156 L 88.2324 -54.1992 L 79.4434 -58.8867 C 74.4141 -61.5234 73.4375 -63.3789 73.4375 -69.1895 C 73.4375 -85.2051 60.6934 -97.9492 44.7266 -97.9492 C 28.8086 -97.9492 16.0645 -85.2051 16.0645 -69.1895 C 16.0645 -53.3691 28.7109 -40.6738 44.7266 -40.6738 Z M 44.6289 -57.9102 C 38.5254 -57.9102 33.4473 -63.1348 33.4473 -69.2871 C 33.4473 -75.6348 38.5254 -80.7129 44.6289 -80.7129 C 50.9277 -80.7129 56.0547 -75.6348 56.0547 -69.2871 C 56.0547 -63.1348 50.9277 -57.9102 44.6289 -57.9102 Z M 44.7266 30.957 C 60.7422 30.957 73.4375 18.3105 73.4375 2.34375 C 73.4375 -3.02734 74.3652 -5.41992 79.1992 -7.95898 L 188.428 -65.7227 C 185.938 -77.6855 173.193 -81.2012 155.078 -74.707 L 98.4863 -54.2969 C 89.7461 -51.123 85.6445 -46.7285 83.3496 -38.4766 L 81.9336 -33.4473 C 80.8105 -29.4922 79.0039 -28.0762 72.7051 -24.6582 L 69.4824 -22.9492 C 67.4805 -21.9238 66.5527 -21.582 65.0879 -21.582 C 59.2285 -21.582 57.8125 -26.3672 44.7266 -26.3672 C 28.8086 -26.3672 16.0645 -13.5254 16.0645 2.34375 C 16.0645 18.3105 28.7109 30.957 44.7266 30.957 Z M 99.6094 -33.0566 C 96.875 -33.0566 94.4336 -35.4004 94.4336 -38.2812 C 94.4336 -41.2598 96.875 -43.6035 99.6094 -43.6035 C 102.539 -43.6035 105.029 -41.2598 105.029 -38.2812 C 105.029 -35.4004 102.539 -33.0566 99.6094 -33.0566 Z M 155.078 7.03125 C 173.242 13.623 185.84 10.3027 188.428 -2.00195 L 132.568 -31.4941 L 100.049 -14.209 L 100.049 -13.0371 Z M 44.6289 13.6719 C 38.5254 13.6719 33.4473 8.49609 33.4473 2.29492 C 33.4473 -4.05273 38.5254 -9.08203 44.6289 -9.08203 C 50.9277 -9.08203 56.0547 -4.05273 56.0547 2.29492 C 56.0547 8.49609 50.9277 13.6719 44.6289 13.6719 Z"/>
  </g>
  <g id="Heavy-L" transform="matrix(1 0 0 1 2535.96 1556)">
   <path d="M 43.7988 -41.5039 C 56.5918 -41.5039 57.7637 -46.2402 63.9648 -46.2402 C 65.4297 -46.2402 66.5527 -45.9473 68.0664 -45.1172 L 74.9512 -41.3574 C 76.5137 -40.5273 77.7832 -39.7949 78.7598 -39.209 L 79.4434 -39.209 C 81.2988 -45.9473 83.2031 -49.4141 87.6953 -52.7344 L 87.6953 -53.3203 L 77.2949 -58.8867 C 72.3633 -61.4258 71.6797 -63.3789 71.6797 -69.1895 C 71.6797 -84.7168 59.2773 -97.1191 43.7988 -97.1191 C 28.418 -97.1191 16.0645 -84.7168 16.0645 -69.1895 C 16.0645 -53.8086 28.3691 -41.5039 43.7988 -41.5039 Z M 43.7988 -56.8359 C 37.0117 -56.8359 31.4941 -62.5 31.4941 -69.2383 C 31.4941 -76.2695 37.0117 -81.7871 43.7988 -81.7871 C 50.6836 -81.7871 56.25 -76.2695 56.25 -69.2383 C 56.25 -62.5 50.6836 -56.8359 43.7988 -56.8359 Z M 43.7988 30.127 C 59.3262 30.127 71.6797 17.8711 71.6797 2.34375 C 71.6797 -3.02734 72.3145 -5.41992 76.9531 -7.86133 L 185.4 -65.332 C 182.861 -76.4648 170.752 -79.3945 153.662 -73.1934 L 97.7051 -53.0273 C 89.3066 -50 85.4492 -45.752 83.252 -37.9395 L 81.8848 -32.959 C 80.8594 -29.248 79.1504 -27.7344 73.291 -24.6094 L 68.0664 -21.8262 C 66.2109 -20.8496 65.2832 -20.6055 63.916 -20.6055 C 58.2031 -20.6055 56.5918 -25.4883 43.7988 -25.4883 C 28.418 -25.4883 16.0645 -13.0371 16.0645 2.34375 C 16.0645 17.8223 28.3691 30.127 43.7988 30.127 Z M 98.877 -32.7148 C 96.1426 -32.7148 93.7012 -35.0098 93.7012 -37.8906 C 93.7012 -40.8203 96.1426 -43.1152 98.877 -43.1152 C 101.758 -43.1152 104.199 -40.8203 104.199 -37.8906 C 104.199 -35.0098 101.758 -32.7148 98.877 -32.7148 Z M 153.613 5.76172 C 170.85 12.0605 182.812 9.22852 185.4 -2.19727 L 130.371 -31.25 L 99.9023 -15.0879 L 99.9023 -14.0625 Z M 43.7988 14.7949 C 37.0117 14.7949 31.4941 9.17969 31.4941 2.34375 C 31.4941 -4.58984 37.0117 -10.1562 43.7988 -10.1562 C 50.6836 -10.1562 56.25 -4.58984 56.25 2.34375 C 56.25 9.17969 50.6836 14.7949 43.7988 14.7949 Z"/>
  </g>
  <g id="Bold-L" transform="matrix(1 0 0 1 2240.91 1556)">
   <path d="M 42.8223 -42.4316 C 55.2246 -42.4316 56.8359 -47.3633 62.6465 -47.3633 C 64.0137 -47.3633 65.0391 -47.0703 66.5527 -46.2891 L 75.3418 -41.5527 C 76.7578 -40.7715 77.8809 -40.0879 78.8086 -39.5508 L 79.3945 -39.5508 C 81.0059 -45.5078 82.959 -48.9258 87.0605 -51.8555 L 87.0605 -52.3926 L 74.8535 -58.8867 C 70.1172 -61.377 69.6777 -63.4277 69.6777 -69.1895 C 69.6777 -84.1797 57.7637 -96.1426 42.8223 -96.1426 C 27.9785 -96.1426 16.0645 -84.1797 16.0645 -69.1895 C 16.0645 -54.3457 27.9297 -42.4316 42.8223 -42.4316 Z M 42.8223 -55.5664 C 35.3516 -55.5664 29.2969 -61.8164 29.2969 -69.2383 C 29.2969 -76.9043 35.3516 -82.959 42.8223 -82.959 C 50.3906 -82.959 56.4941 -76.9043 56.4941 -69.2383 C 56.4941 -61.8164 50.3906 -55.5664 42.8223 -55.5664 Z M 42.8223 29.248 C 57.7637 29.248 69.6777 17.334 69.6777 2.34375 C 69.6777 -3.07617 70.0684 -5.41992 74.4141 -7.76367 L 182.08 -64.8926 C 179.395 -75.0488 168.066 -77.3438 152.002 -71.582 L 96.8262 -51.5625 C 88.8184 -48.6816 85.2539 -44.7266 83.1543 -37.3047 L 81.8359 -32.4707 C 80.8594 -28.9551 79.2969 -27.3926 73.9258 -24.5605 L 66.5527 -20.6055 C 64.7949 -19.7266 63.916 -19.4336 62.5977 -19.4336 C 57.0801 -19.4336 55.1758 -24.4629 42.8223 -24.4629 C 27.9785 -24.4629 16.0645 -12.5 16.0645 2.34375 C 16.0645 17.2852 27.9297 29.248 42.8223 29.248 Z M 97.998 -32.3242 C 95.3125 -32.3242 92.9199 -34.5703 92.9199 -37.4023 C 92.9199 -40.332 95.3125 -42.5781 97.998 -42.5781 C 100.879 -42.5781 103.271 -40.332 103.271 -37.4023 C 103.271 -34.5703 100.879 -32.3242 97.998 -32.3242 Z M 152.002 4.39453 C 168.164 10.3516 179.395 8.05664 182.08 -2.39258 L 127.881 -30.957 L 99.707 -16.0645 L 99.707 -15.1367 Z M 42.8223 16.0645 C 35.3516 16.0645 29.2969 9.91211 29.2969 2.34375 C 29.2969 -5.22461 35.3516 -11.3281 42.8223 -11.3281 C 50.3906 -11.3281 56.4941 -5.22461 56.4941 2.34375 C 56.4941 9.91211 50.3906 16.0645 42.8223 16.0645 Z"/>
  </g>
  <g id="Semibold-L" transform="matrix(1 0 0 1 1945.34 1556)">
   <path d="M 42.1387 -43.1152 C 54.248 -43.1152 56.1523 -48.1445 61.7188 -48.1445 C 62.9883 -48.1445 63.9648 -47.9004 65.4785 -47.1191 L 75.5859 -41.6504 C 76.9043 -40.9668 77.9785 -40.332 78.8574 -39.7461 L 79.3457 -39.7461 C 80.8105 -45.2148 82.8125 -48.5352 86.6211 -51.2695 L 86.6211 -51.709 L 73.1934 -58.8867 C 68.6035 -61.3281 68.3105 -63.4277 68.3105 -69.1895 C 68.3105 -83.8379 56.6895 -95.5078 42.1387 -95.5078 C 27.6367 -95.5078 16.0645 -83.7891 16.0645 -69.1895 C 16.0645 -54.7363 27.6367 -43.1152 42.1387 -43.1152 Z M 42.1387 -54.7363 C 34.2285 -54.7363 27.832 -61.3281 27.832 -69.2383 C 27.832 -77.3926 34.2285 -83.7891 42.1387 -83.7891 C 50.1953 -83.7891 56.6406 -77.3926 56.6406 -69.2383 C 56.6406 -61.3281 50.1953 -54.7363 42.1387 -54.7363 Z M 42.1387 28.6133 C 56.6895 28.6133 68.3105 16.9434 68.3105 2.34375 C 68.3105 -3.125 68.5059 -5.41992 72.7051 -7.66602 L 179.785 -64.5996 C 177.002 -74.1211 166.211 -75.9766 150.879 -70.459 L 96.1914 -50.5859 C 88.4766 -47.8027 85.1074 -43.9941 83.0566 -36.8652 L 81.7871 -32.1289 C 80.8594 -28.7598 79.4434 -27.1484 74.4141 -24.5117 L 65.4785 -19.7266 C 63.8672 -18.8965 62.9395 -18.6523 61.7188 -18.6523 C 56.3477 -18.6523 54.248 -23.8281 42.1387 -23.8281 C 27.6367 -23.8281 16.0645 -12.1094 16.0645 2.34375 C 16.0645 16.9434 27.6367 28.6133 42.1387 28.6133 Z M 97.4121 -32.0312 C 94.7266 -32.0312 92.3828 -34.3262 92.3828 -37.1094 C 92.3828 -39.9902 94.7266 -42.1875 97.4121 -42.1875 C 100.244 -42.1875 102.637 -39.9902 102.637 -37.1094 C 102.637 -34.2773 100.244 -32.0312 97.4121 -32.0312 Z M 150.879 3.4668 C 166.309 9.17969 177.002 7.22656 179.785 -2.53906 L 126.172 -30.7617 L 99.6094 -16.6992 L 99.6094 -15.918 Z M 42.1387 16.8945 C 34.2285 16.8945 27.832 10.4004 27.832 2.34375 C 27.832 -5.66406 34.2285 -12.1582 42.1387 -12.1582 C 50.1953 -12.1582 56.6406 -5.66406 56.6406 2.34375 C 56.6406 10.4004 50.1953 16.8945 42.1387 16.8945 Z"/>
  </g>
  <g id="Medium-L" transform="matrix(1 0 0 1 1649.51 1556)">
   <path d="M 41.6504 -43.6035 C 53.5156 -43.6035 55.6641 -48.7305 61.0352 -48.7305 C 62.2559 -48.7305 63.1836 -48.4863 64.6484 -47.7051 L 75.7812 -41.748 C 77.0508 -41.0645 78.0273 -40.4785 78.8574 -39.9414 L 79.2969 -39.9414 C 80.6641 -45.0195 82.7148 -48.291 86.3281 -50.7812 L 86.3281 -51.1719 L 71.9238 -58.8867 C 67.4316 -61.2793 67.2852 -63.4277 67.2852 -69.1895 C 67.2852 -83.5449 55.9082 -95.0195 41.6504 -95.0195 C 27.4414 -95.0195 16.0645 -83.4961 16.0645 -69.1895 C 16.0645 -55.0293 27.4414 -43.6035 41.6504 -43.6035 Z M 41.6504 -54.1016 C 33.3496 -54.1016 26.6602 -60.9375 26.6602 -69.2383 C 26.6602 -77.7344 33.3496 -84.4238 41.6504 -84.4238 C 50.0488 -84.4238 56.7871 -77.7344 56.7871 -69.2383 C 56.7871 -60.9375 50.0488 -54.1016 41.6504 -54.1016 Z M 41.6504 28.125 C 55.9082 28.125 67.2852 16.6992 67.2852 2.34375 C 67.2852 -3.125 67.334 -5.41992 71.3867 -7.61719 L 178.027 -64.4043 C 175.195 -73.3887 164.795 -74.9023 150.049 -69.5801 L 95.752 -49.8535 C 88.2324 -47.1191 85.0098 -43.4082 83.0078 -36.5234 L 81.7871 -31.8359 C 80.8594 -28.6133 79.4922 -27.002 74.7559 -24.5117 L 64.6484 -19.0918 C 63.1348 -18.3105 62.207 -18.0664 61.0352 -18.0664 C 55.7617 -18.0664 53.5156 -23.291 41.6504 -23.291 C 27.4414 -23.291 16.0645 -11.8652 16.0645 2.34375 C 16.0645 16.6504 27.4414 28.125 41.6504 28.125 Z M 96.9727 -31.8359 C 94.2871 -31.8359 91.9434 -34.082 91.9434 -36.8652 C 91.9434 -39.6973 94.2871 -41.8945 96.9727 -41.8945 C 99.8047 -41.8945 102.148 -39.6973 102.148 -36.8652 C 102.148 -34.0332 99.8047 -31.8359 96.9727 -31.8359 Z M 150 2.73438 C 164.893 8.25195 175.195 6.5918 178.027 -2.63672 L 124.902 -30.6152 L 99.5117 -17.2363 L 99.5117 -16.4551 Z M 41.6504 17.5293 C 33.3496 17.5293 26.6602 10.791 26.6602 2.34375 C 26.6602 -6.00586 33.3496 -12.793 41.6504 -12.793 C 50.0488 -12.793 56.7871 -6.00586 56.7871 2.34375 C 56.7871 10.791 50.0488 17.5293 41.6504 17.5293 Z"/>
  </g>
  <g id="Regular-L" transform="matrix(1 0 0 1 1353.95 1556)">
   <path d="M 40.9668 -44.2383 C 52.5879 -44.2383 55.0293 -49.5117 60.1562 -49.5117 C 61.2793 -49.5117 62.1582 -49.2676 63.5742 -48.5352 L 76.0254 -41.8457 C 77.1973 -41.2598 78.125 -40.6738 78.9062 -40.1855 L 79.248 -40.1855 C 80.4688 -44.7266 82.5684 -47.9492 85.8887 -50.1953 L 85.8887 -50.5371 L 70.3125 -58.8867 C 65.8691 -61.2305 65.9668 -63.4277 65.9668 -69.1895 C 65.9668 -83.1543 54.834 -94.3359 40.9668 -94.3359 C 27.1484 -94.3359 16.0645 -83.1055 16.0645 -69.1895 C 16.0645 -55.3711 27.1484 -44.2383 40.9668 -44.2383 Z M 40.9668 -53.2715 C 32.2266 -53.2715 25.1953 -60.4492 25.1953 -69.1895 C 25.1953 -78.1738 32.2266 -85.2539 40.9668 -85.2539 C 49.8535 -85.2539 56.9336 -78.1738 56.9336 -69.1895 C 56.9336 -60.4492 49.8535 -53.2715 40.9668 -53.2715 Z M 40.9668 27.4902 C 54.834 27.4902 65.9668 16.3574 65.9668 2.34375 C 65.9668 -3.17383 65.7715 -5.41992 69.6777 -7.56836 L 175.732 -64.1113 C 172.852 -72.4121 162.939 -73.5352 148.926 -68.457 L 95.1172 -48.877 C 87.8906 -46.2402 84.8633 -42.7246 82.959 -36.1328 L 81.7383 -31.4941 C 80.8594 -28.418 79.6387 -26.7578 75.1953 -24.4629 L 63.5742 -18.2617 C 62.1582 -17.5293 61.2793 -17.2852 60.1562 -17.2852 C 54.9805 -17.2852 52.5391 -22.6074 40.9668 -22.6074 C 27.1484 -22.6074 16.0645 -11.4746 16.0645 2.34375 C 16.0645 16.2598 27.1484 27.4902 40.9668 27.4902 Z M 96.3867 -31.543 C 93.7012 -31.543 91.4062 -33.7891 91.4062 -36.5234 C 91.4062 -39.3555 93.7012 -41.5039 96.3867 -41.5039 C 99.1699 -41.5039 101.514 -39.3555 101.514 -36.5234 C 101.514 -33.7891 99.1699 -31.543 96.3867 -31.543 Z M 148.877 1.75781 C 163.086 7.08008 172.9 5.76172 175.732 -2.7832 L 123.193 -30.4199 L 99.4141 -17.8711 L 99.4141 -17.2363 Z M 40.9668 18.4082 C 32.2266 18.4082 25.1953 11.2793 25.1953 2.34375 C 25.1953 -6.44531 32.2266 -13.5742 40.9668 -13.5742 C 49.8535 -13.5742 56.9336 -6.44531 56.9336 2.34375 C 56.9336 11.2793 49.8535 18.4082 40.9668 18.4082 Z"/>
  </g>
  <g id="Light-L" transform="matrix(1 0 0 1 1058.46 1556)">
   <path d="M 40.3809 -44.8242 C 51.8555 -44.8242 54.9805 -50.7324 59.9609 -50.7324 C 60.9863 -50.7324 61.8652 -50.4883 63.0859 -49.8535 L 78.0273 -41.7969 C 78.9551 -41.2598 79.6875 -40.7715 80.3711 -40.332 L 80.6641 -40.332 C 81.543 -43.8965 83.252 -46.875 85.6934 -48.7305 L 85.6934 -49.0234 L 68.4082 -58.3496 C 64.1113 -60.6934 64.7461 -63.1348 64.7461 -69.1895 C 64.7461 -82.8125 53.9062 -93.75 40.3809 -93.75 C 26.8555 -93.75 16.0645 -82.8125 16.0645 -69.1895 C 16.0645 -55.7129 26.8555 -44.8242 40.3809 -44.8242 Z M 40.3809 -52.1973 C 31.0059 -52.1973 23.5352 -59.8633 23.5352 -69.1895 C 23.5352 -78.8086 31.0059 -86.3281 40.3809 -86.3281 C 49.9023 -86.3281 57.4219 -78.8086 57.4219 -69.1895 C 57.4219 -59.8633 49.9023 -52.1973 40.3809 -52.1973 Z M 40.3809 26.9043 C 53.9062 26.9043 64.7461 15.9668 64.7461 2.34375 C 64.7461 -3.51562 64.0137 -6.05469 68.0176 -8.25195 L 173.291 -64.6973 C 170.02 -71.5332 160.596 -71.8262 148.828 -67.5293 L 95.0195 -47.5586 C 88.1836 -45.0684 85.498 -41.7969 83.7891 -35.6934 L 82.6172 -31.0547 C 81.8848 -28.2715 80.957 -26.5625 77.1484 -24.6094 L 63.0859 -16.9922 C 61.8652 -16.3574 60.9863 -16.1133 59.9609 -16.1133 C 54.9316 -16.1133 51.8066 -22.0215 40.3809 -22.0215 C 26.8555 -22.0215 16.0645 -11.1328 16.0645 2.34375 C 16.0645 15.9668 26.8555 26.9043 40.3809 26.9043 Z M 96.0938 -31.5918 C 93.6035 -31.5918 91.5039 -33.6914 91.5039 -36.1816 C 91.5039 -38.8184 93.6035 -40.7715 96.0938 -40.7715 C 98.6816 -40.7715 100.781 -38.8184 100.781 -36.1816 C 100.781 -33.6426 98.6816 -31.5918 96.0938 -31.5918 Z M 148.779 0.878906 C 160.742 5.41992 170.068 4.88281 173.291 -2.14844 L 119.043 -30.4688 L 98.291 -19.5312 L 98.291 -18.9941 Z M 40.3809 19.4824 C 31.0059 19.4824 23.5352 11.9141 23.5352 2.34375 C 23.5352 -7.03125 31.0059 -14.6484 40.3809 -14.6484 C 49.9023 -14.6484 57.4219 -7.03125 57.4219 2.34375 C 57.4219 11.9141 49.9023 19.4824 40.3809 19.4824 Z"/>
  </g>
  <g id="Thin-L" transform="matrix(1 0 0 1 763.356 1556)">
   <path d="M 39.5996 -45.6055 C 50.8301 -45.6055 54.9316 -52.2949 59.7168 -52.2949 C 60.6445 -52.2949 61.5234 -52.0508 62.4512 -51.5625 L 80.6152 -41.6504 C 81.25 -41.3086 81.7871 -40.918 82.3242 -40.5273 L 82.5684 -40.5273 C 83.0078 -42.8223 84.1797 -45.459 85.4492 -46.7773 L 85.4492 -47.0703 L 65.8691 -57.666 C 61.7188 -59.9121 63.1836 -62.793 63.1836 -69.1895 C 63.1836 -82.373 52.7344 -92.9688 39.5996 -92.9688 C 26.5137 -92.9688 16.0645 -82.373 16.0645 -69.1895 C 16.0645 -56.1523 26.5137 -45.6055 39.5996 -45.6055 Z M 39.5996 -50.7812 C 29.4434 -50.7812 21.2891 -59.0332 21.2891 -69.1895 C 21.2891 -79.5898 29.4434 -87.7441 39.5996 -87.7441 C 49.9023 -87.7441 58.0566 -79.5898 58.0566 -69.1895 C 58.0566 -59.0332 49.9023 -50.7812 39.5996 -50.7812 Z M 39.5996 26.123 C 52.7344 26.123 63.1836 15.5273 63.1836 2.34375 C 63.1836 -4.00391 61.7188 -6.88477 65.7715 -9.13086 L 170.068 -65.4785 C 166.26 -70.3125 157.471 -69.5801 148.73 -66.3086 L 94.9219 -45.8496 C 88.6719 -43.5059 86.377 -40.625 84.9121 -35.1562 L 83.7891 -30.5176 C 83.2031 -28.0762 82.666 -26.3184 79.7852 -24.7559 L 62.4512 -15.2832 C 61.5234 -14.7949 60.6445 -14.5508 59.7168 -14.5508 C 54.834 -14.5508 50.7324 -21.2402 39.5996 -21.2402 C 26.5137 -21.2402 16.0645 -10.6934 16.0645 2.34375 C 16.0645 15.5273 26.5137 26.123 39.5996 26.123 Z M 95.7031 -31.6406 C 93.457 -31.6406 91.6504 -33.5449 91.6504 -35.6934 C 91.6504 -38.0371 93.457 -39.7461 95.7031 -39.7461 C 98.0469 -39.7461 99.8535 -38.0371 99.8535 -35.6934 C 99.8535 -33.4473 98.0469 -31.6406 95.7031 -31.6406 Z M 148.633 -0.341797 C 157.617 3.17383 166.309 3.71094 170.068 -1.31836 L 113.525 -30.5664 L 96.7773 -21.7285 L 96.7773 -21.2891 Z M 39.5996 20.8984 C 29.4434 20.8984 21.2891 12.7441 21.2891 2.34375 C 21.2891 -7.8125 29.4434 -16.0645 39.5996 -16.0645 C 49.9023 -16.0645 58.0566 -7.8125 58.0566 2.34375 C 58.0566 12.7441 49.9023 20.8984 39.5996 20.8984 Z"/>
  </g>
  <g id="Ultralight-L" transform="matrix(1 0 0 1 467.499 1556)">
   <path d="M 39.209 -45.9961 C 50.293 -45.9961 54.8828 -53.125 59.5703 -53.125 C 60.4492 -53.125 61.3281 -52.8809 62.1582 -52.4414 L 81.9336 -41.6016 C 82.4219 -41.3086 82.8613 -41.0156 83.3008 -40.625 L 83.4961 -40.625 C 83.7402 -42.2363 84.668 -44.7266 85.3027 -45.8008 L 85.3027 -46.0449 L 64.5996 -57.2754 C 60.498 -59.5215 62.4023 -62.5977 62.4023 -69.1895 C 62.4023 -82.1289 52.0996 -92.5781 39.209 -92.5781 C 26.3672 -92.5781 16.0645 -82.1289 16.0645 -69.1895 C 16.0645 -56.3477 26.3672 -45.9961 39.209 -45.9961 Z M 39.209 -50.0488 C 28.6133 -50.0488 20.166 -58.6426 20.166 -69.1895 C 20.166 -80.0293 28.6133 -88.4766 39.209 -88.4766 C 49.9512 -88.4766 58.3496 -80.0293 58.3496 -69.1895 C 58.3496 -58.6426 49.9512 -50.0488 39.209 -50.0488 Z M 39.209 25.7324 C 52.0996 25.7324 62.4023 15.2832 62.4023 2.34375 C 62.4023 -4.24805 60.5469 -7.32422 64.6484 -9.61914 L 168.359 -65.8691 C 164.307 -69.7266 155.859 -68.4082 148.633 -65.6738 L 94.8242 -44.9707 C 88.8672 -42.6758 86.8164 -40.0391 85.498 -34.9121 L 84.375 -30.2246 C 83.8867 -27.9785 83.5449 -26.2207 81.1035 -24.8535 L 62.1582 -14.4043 C 61.3281 -13.9648 60.4492 -13.7207 59.5703 -13.7207 C 54.7852 -13.7207 50.2441 -20.8496 39.209 -20.8496 C 26.3672 -20.8496 16.0645 -10.4492 16.0645 2.34375 C 16.0645 15.2832 26.3672 25.7324 39.209 25.7324 Z M 95.5078 -31.6406 C 93.4082 -31.6406 91.6992 -33.4473 91.6992 -35.498 C 91.6992 -37.6465 93.4082 -39.209 95.5078 -39.209 C 97.7051 -39.209 99.4141 -37.6465 99.4141 -35.498 C 99.4141 -33.3984 97.7051 -31.6406 95.5078 -31.6406 Z M 148.584 -0.976562 C 156.055 2.05078 164.404 3.125 168.359 -0.878906 L 110.742 -30.6152 L 96.0449 -22.8516 L 96.0449 -22.5098 Z M 39.209 21.6309 C 28.6133 21.6309 20.166 13.1836 20.166 2.34375 C 20.166 -8.20312 28.6133 -16.7969 39.209 -16.7969 C 49.9512 -16.7969 58.3496 -8.20312 58.3496 2.34375 C 58.3496 13.1836 49.9512 21.6309 39.209 21.6309 Z"/>
  </g>
  <g id="Black-M" transform="matrix(1 0 0 1 2852.81 1126)">
   <path d="M 35.498 -38.623 C 46.0938 -38.623 46.582 -42.2363 51.9531 -42.2363 C 53.2715 -42.2363 54.2969 -41.9922 55.4688 -41.3086 L 58.4473 -39.5996 C 59.7656 -38.8672 60.8887 -38.2324 61.7676 -37.7441 L 62.4512 -37.7441 C 64.1113 -43.8477 65.2832 -46.6309 69.043 -49.6582 L 69.043 -50.293 L 63.4766 -53.2715 C 59.4238 -55.3711 58.6426 -56.8848 58.6426 -61.5723 C 58.6426 -74.4141 48.3887 -84.668 35.498 -84.668 C 22.7051 -84.668 12.4512 -74.4629 12.4512 -61.5723 C 12.4512 -48.8281 22.6562 -38.623 35.498 -38.623 Z M 35.498 16.8457 C 48.4863 16.8457 58.6426 6.73828 58.6426 -6.10352 C 58.6426 -10.4004 59.4238 -12.5 63.4766 -14.5996 L 148.73 -59.7168 C 146.729 -69.3359 136.182 -72.4121 122.119 -67.2852 L 77.3438 -51.0742 C 70.3613 -48.4863 66.9922 -44.9219 65.1855 -38.2812 L 64.0137 -34.2285 C 63.1836 -31.0547 61.7188 -29.9805 56.5918 -27.1484 L 55.4688 -26.5625 C 53.8574 -25.6836 53.0762 -25.3906 51.9043 -25.3906 C 47.2168 -25.3906 46.0938 -29.248 35.498 -29.248 C 22.7051 -29.248 12.4512 -18.8965 12.4512 -6.10352 C 12.4512 6.73828 22.6562 16.8457 35.498 16.8457 Z M 35.4492 -53.7109 C 31.2012 -53.7109 27.6855 -57.373 27.6855 -61.6211 C 27.6855 -66.0645 31.2012 -69.5801 35.4492 -69.5801 C 39.8438 -69.5801 43.4082 -66.0645 43.4082 -61.6211 C 43.4082 -57.373 39.8438 -53.7109 35.4492 -53.7109 Z M 78.0762 -34.0332 C 76.0254 -34.0332 74.1699 -35.791 74.1699 -37.9883 C 74.1699 -40.1855 76.0254 -41.9434 78.0762 -41.9434 C 80.2734 -41.9434 82.1289 -40.1855 82.1289 -37.9883 C 82.1289 -35.791 80.2734 -34.0332 78.0762 -34.0332 Z M 122.119 -1.31836 C 136.279 3.80859 146.68 1.02539 148.73 -8.93555 L 103.516 -32.7148 L 77.0996 -18.6523 L 77.0996 -17.6758 Z M 35.4492 1.75781 C 31.2012 1.75781 27.6855 -1.9043 27.6855 -6.15234 C 27.6855 -10.5957 31.2012 -14.1113 35.4492 -14.1113 C 39.8438 -14.1113 43.4082 -10.5957 43.4082 -6.15234 C 43.4082 -1.9043 39.8438 1.75781 35.4492 1.75781 Z"/>
  </g>
  <g id="Heavy-M" transform="matrix(1 0 0 1 2557.42 1126)">
   <path d="M 34.7168 -39.4043 C 44.9219 -39.4043 45.6543 -43.0176 50.7324 -43.0176 C 51.9531 -43.0176 52.8809 -42.8223 54.0527 -42.1387 L 58.3008 -39.7949 C 59.5215 -39.1113 60.5957 -38.5254 61.4258 -38.0371 L 62.0117 -38.0371 C 63.5742 -43.7012 64.8926 -46.3867 68.457 -49.2188 L 68.457 -49.7559 L 61.6211 -53.418 C 57.666 -55.4688 57.0312 -56.9824 57.0312 -61.5723 C 57.0312 -74.0234 47.1191 -83.8867 34.7168 -83.8867 C 22.3633 -83.8867 12.4512 -73.9746 12.4512 -61.5723 C 12.4512 -49.2676 22.3145 -39.4043 34.7168 -39.4043 Z M 34.668 -52.7832 C 29.8828 -52.7832 25.9766 -56.8359 25.9766 -61.6211 C 25.9766 -66.5527 29.8828 -70.5078 34.668 -70.5078 C 39.5508 -70.5078 43.5059 -66.5527 43.5059 -61.6211 C 43.5059 -56.8359 39.5508 -52.7832 34.668 -52.7832 Z M 34.7168 16.1133 C 47.168 16.1133 57.0312 6.29883 57.0312 -6.10352 C 57.0312 -10.3516 57.666 -12.3047 61.4746 -14.3066 L 146.094 -59.1309 C 144.092 -68.2129 134.18 -70.8496 120.557 -65.918 L 76.5137 -50 C 69.7754 -47.5098 66.6016 -44.1406 64.8438 -37.793 L 63.7695 -33.8379 C 62.8906 -30.8105 61.5723 -29.6875 56.7383 -27.0996 L 54.0527 -25.6348 C 52.5391 -24.8535 51.8066 -24.6094 50.6836 -24.6094 C 46.1426 -24.6094 44.9219 -28.418 34.7168 -28.418 C 22.3633 -28.418 12.4512 -18.457 12.4512 -6.10352 C 12.4512 6.29883 22.3145 16.1133 34.7168 16.1133 Z M 77.3438 -33.6426 C 75.2441 -33.6426 73.3887 -35.4004 73.3887 -37.5977 C 73.3887 -39.8926 75.2441 -41.6016 77.3438 -41.6016 C 79.541 -41.6016 81.3965 -39.8926 81.3965 -37.5977 C 81.3965 -35.4004 79.541 -33.6426 77.3438 -33.6426 Z M 120.557 -2.44141 C 134.229 2.53906 144.043 0.0976562 146.094 -9.27734 L 102.148 -32.4219 L 77.2461 -19.1895 L 77.2461 -18.2617 Z M 34.668 2.68555 C 29.8828 2.68555 25.9766 -1.31836 25.9766 -6.15234 C 25.9766 -11.084 29.8828 -14.9902 34.668 -14.9902 C 39.5508 -14.9902 43.5059 -11.084 43.5059 -6.15234 C 43.5059 -1.31836 39.5508 2.68555 34.668 2.68555 Z"/>
  </g>
  <g id="Bold-M" transform="matrix(1 0 0 1 2262.17 1126)">
   <path d="M 33.7891 -40.2344 C 43.6523 -40.2344 44.6289 -43.9453 49.3164 -43.9453 C 50.4395 -43.9453 51.3184 -43.7012 52.4902 -43.0664 L 58.1055 -40.0391 C 59.2773 -39.3555 60.2539 -38.8184 61.0352 -38.3789 L 61.5234 -38.3789 C 62.9395 -43.457 64.4531 -46.1426 67.8711 -48.6816 L 67.8711 -49.1211 L 59.5215 -53.5645 C 55.7617 -55.5664 55.2246 -57.0801 55.2246 -61.5723 C 55.2246 -73.5352 45.7031 -83.0566 33.7891 -83.0566 C 21.9238 -83.0566 12.4512 -73.4863 12.4512 -61.5723 C 12.4512 -49.707 21.9238 -40.2344 33.7891 -40.2344 Z M 33.7891 -51.7578 C 28.418 -51.7578 24.0723 -56.25 24.0723 -61.5723 C 24.0723 -67.1387 28.418 -71.4844 33.7891 -71.4844 C 39.2578 -71.4844 43.6523 -67.1387 43.6523 -61.5723 C 43.6523 -56.25 39.2578 -51.7578 33.7891 -51.7578 Z M 33.7891 15.2832 C 45.752 15.2832 55.2246 5.81055 55.2246 -6.10352 C 55.2246 -10.3027 55.7129 -12.1094 59.2285 -14.0137 L 143.164 -58.4961 C 141.162 -66.9434 131.934 -69.1406 118.799 -64.4043 L 75.5859 -48.7793 C 69.1406 -46.4355 66.1621 -43.2129 64.502 -37.207 L 63.4277 -33.3984 C 62.6465 -30.5664 61.3281 -29.3945 56.8848 -27.002 L 52.4902 -24.6582 C 51.0742 -23.9258 50.3906 -23.6816 49.3164 -23.6816 C 44.9219 -23.6816 43.6523 -27.4902 33.7891 -27.4902 C 21.9238 -27.4902 12.4512 -17.9688 12.4512 -6.10352 C 12.4512 5.81055 21.9238 15.2832 33.7891 15.2832 Z M 76.4648 -33.2031 C 74.3652 -33.2031 72.4609 -35.0098 72.4609 -37.207 C 72.4609 -39.502 74.3652 -41.2598 76.4648 -41.2598 C 78.7109 -41.2598 80.6152 -39.502 80.6152 -37.207 C 80.6152 -34.9609 78.7109 -33.2031 76.4648 -33.2031 Z M 118.799 -3.66211 C 131.982 1.17188 141.113 -0.976562 143.164 -9.66797 L 100.684 -32.0801 L 77.3926 -19.7266 L 77.3926 -18.9453 Z M 33.7891 3.71094 C 28.418 3.71094 24.0723 -0.732422 24.0723 -6.10352 C 24.0723 -11.5723 28.418 -15.9668 33.7891 -15.9668 C 39.2578 -15.9668 43.6523 -11.5723 43.6523 -6.10352 C 43.6523 -0.732422 39.2578 3.71094 33.7891 3.71094 Z"/>
  </g>
  <g id="Semibold-M" transform="matrix(1 0 0 1 1966.46 1126)">
   <path d="M 33.1543 -40.8203 C 42.7246 -40.8203 43.8965 -44.5312 48.3887 -44.5312 C 49.4629 -44.5312 50.2441 -44.3359 51.416 -43.7012 L 58.0078 -40.1855 C 59.1309 -39.5508 60.0586 -39.0137 60.791 -38.5742 L 61.1816 -38.5742 C 62.5 -43.3105 64.1113 -45.9961 67.4316 -48.291 L 67.4316 -48.6816 L 58.0566 -53.6621 C 54.3945 -55.6152 53.9551 -57.1289 53.9551 -61.5723 C 53.9551 -73.1934 44.7266 -82.4219 33.1543 -82.4219 C 21.6797 -82.4219 12.4512 -73.1445 12.4512 -61.5723 C 12.4512 -50.0488 21.6309 -40.8203 33.1543 -40.8203 Z M 33.1543 -51.0742 C 27.4414 -51.0742 22.7539 -55.8594 22.7539 -61.5723 C 22.7539 -67.5293 27.4414 -72.168 33.1543 -72.168 C 39.0137 -72.168 43.7012 -67.5293 43.7012 -61.5723 C 43.7012 -55.8594 39.0137 -51.0742 33.1543 -51.0742 Z M 33.1543 14.6973 C 44.7266 14.6973 53.9551 5.51758 53.9551 -6.10352 C 53.9551 -10.2539 54.3457 -12.0117 57.666 -13.7695 L 141.162 -58.0566 C 139.111 -66.0645 130.371 -67.9688 117.578 -63.3301 L 74.9023 -47.9492 C 68.7012 -45.7031 65.918 -42.627 64.2578 -36.8164 L 63.2324 -33.1055 C 62.4512 -30.3711 61.2305 -29.1504 56.9824 -26.9531 L 51.416 -23.9746 C 50.0977 -23.291 49.3652 -23.0957 48.3887 -23.0957 C 44.0918 -23.0957 42.7246 -26.9043 33.1543 -26.9043 C 21.6797 -26.9043 12.4512 -17.627 12.4512 -6.10352 C 12.4512 5.46875 21.6309 14.6973 33.1543 14.6973 Z M 75.8789 -32.9102 C 73.7793 -32.9102 71.875 -34.7168 71.875 -36.9141 C 71.875 -39.209 73.7793 -41.0156 75.8789 -41.0156 C 78.125 -41.0156 80.0293 -39.209 80.0293 -36.9141 C 80.0293 -34.668 78.125 -32.9102 75.8789 -32.9102 Z M 117.578 -4.54102 C 130.42 0.195312 139.111 -1.66016 141.162 -9.96094 L 99.6582 -31.8359 L 77.4902 -20.166 L 77.4902 -19.4336 Z M 33.1543 4.44336 C 27.4414 4.44336 22.7539 -0.292969 22.7539 -6.10352 C 22.7539 -11.9629 27.4414 -16.6504 33.1543 -16.6504 C 39.0137 -16.6504 43.7012 -11.9629 43.7012 -6.10352 C 43.7012 -0.292969 39.0137 4.44336 33.1543 4.44336 Z"/>
  </g>
  <g id="Medium-M" transform="matrix(1 0 0 1 1670.53 1126)">
   <path d="M 32.7148 -41.2598 C 42.0898 -41.2598 43.3594 -45.0195 47.6562 -45.0195 C 48.6816 -45.0195 49.4141 -44.8242 50.6348 -44.1895 L 57.9102 -40.2832 C 58.9844 -39.6973 59.8633 -39.1602 60.5957 -38.7695 L 60.9375 -38.7695 C 62.1582 -43.2129 63.8672 -45.8496 67.0898 -47.998 L 67.0898 -48.3887 L 56.9824 -53.7598 C 53.418 -55.6641 53.0273 -57.1777 53.0273 -61.5723 C 53.0273 -72.9004 43.9941 -81.9824 32.7148 -81.9824 C 21.4355 -81.9824 12.4512 -72.9004 12.4512 -61.5723 C 12.4512 -50.3418 21.4355 -41.2598 32.7148 -41.2598 Z M 32.7148 -50.4883 C 26.6602 -50.4883 21.7773 -55.5176 21.7773 -61.5723 C 21.7773 -67.8223 26.6602 -72.7051 32.7148 -72.7051 C 38.8672 -72.7051 43.75 -67.8223 43.75 -61.5723 C 43.75 -55.5176 38.8672 -50.4883 32.7148 -50.4883 Z M 32.7148 14.3066 C 43.9941 14.3066 53.0273 5.27344 53.0273 -6.10352 C 53.0273 -10.2051 53.3203 -11.9141 56.4941 -13.623 L 139.6 -57.7148 C 137.598 -65.4297 129.199 -67.041 116.65 -62.5488 L 74.4141 -47.3633 C 68.3594 -45.166 65.6738 -42.1387 64.0625 -36.5234 L 63.0371 -32.8613 C 62.3047 -30.2246 61.084 -29.0039 57.0312 -26.9043 L 50.6348 -23.4863 C 49.3164 -22.8027 48.6328 -22.6074 47.6562 -22.6074 C 43.457 -22.6074 42.041 -26.416 32.7148 -26.416 C 21.4355 -26.416 12.4512 -17.334 12.4512 -6.10352 C 12.4512 5.22461 21.4355 14.3066 32.7148 14.3066 Z M 75.4395 -32.666 C 73.291 -32.666 71.3867 -34.4727 71.3867 -36.7188 C 71.3867 -39.0137 73.291 -40.8203 75.4395 -40.8203 C 77.7344 -40.8203 79.5898 -39.0137 79.5898 -36.7188 C 79.5898 -34.4727 77.7344 -32.666 75.4395 -32.666 Z M 116.65 -5.17578 C 129.248 -0.537109 137.598 -2.24609 139.6 -10.1562 L 98.877 -31.6895 L 77.5879 -20.459 L 77.5879 -19.8242 Z M 32.7148 5.0293 C 26.6602 5.0293 21.7773 0.0488281 21.7773 -6.10352 C 21.7773 -12.207 26.6602 -17.1875 32.7148 -17.1875 C 38.8672 -17.1875 43.75 -12.207 43.75 -6.10352 C 43.75 0.0488281 38.8672 5.0293 32.7148 5.0293 Z"/>
  </g>
  <g id="Regular-M" transform="matrix(1 0 0 1 1374.82 1126)">
   <path d="M 32.0801 -41.8457 C 41.2109 -41.8457 42.6758 -45.6055 46.7285 -45.6055 C 47.6562 -45.6055 48.3398 -45.4102 49.5605 -44.8242 L 57.8125 -40.4297 C 58.8379 -39.8926 59.668 -39.4043 60.3027 -38.9648 L 60.5957 -38.9648 C 61.7188 -43.0664 63.5742 -45.7031 66.6504 -47.6562 L 66.6504 -47.9492 L 55.5664 -53.8574 C 52.0996 -55.7129 51.8066 -57.2266 51.8066 -61.5723 C 51.8066 -72.6074 43.0176 -81.3965 32.0801 -81.3965 C 21.1914 -81.3965 12.4512 -72.5586 12.4512 -61.5723 C 12.4512 -50.6348 21.1914 -41.8457 32.0801 -41.8457 Z M 32.0801 -49.8047 C 25.6348 -49.8047 20.459 -55.127 20.459 -61.5723 C 20.459 -68.1641 25.6348 -73.3887 32.0801 -73.3887 C 38.623 -73.3887 43.8477 -68.1641 43.8477 -61.5723 C 43.8477 -55.127 38.623 -49.8047 32.0801 -49.8047 Z M 32.0801 13.7207 C 43.0176 13.7207 51.8066 4.93164 51.8066 -6.10352 C 51.8066 -10.1562 52.002 -11.7676 54.9805 -13.3789 L 137.598 -57.2754 C 135.596 -64.5996 127.637 -65.8691 115.479 -61.5234 L 73.7793 -46.5332 C 67.9199 -44.4336 65.3809 -41.5527 63.8184 -36.1328 L 62.8418 -32.5684 C 62.1094 -30.0293 60.9863 -28.7598 57.1289 -26.8066 L 49.5605 -22.8027 C 48.3398 -22.168 47.6562 -21.9727 46.7285 -21.9727 C 42.627 -21.9727 41.1621 -25.7812 32.0801 -25.7812 C 21.1914 -25.7812 12.4512 -16.9922 12.4512 -6.10352 C 12.4512 4.88281 21.1914 13.7207 32.0801 13.7207 Z M 74.8535 -32.373 C 72.7051 -32.373 70.8008 -34.1797 70.8008 -36.4258 C 70.8008 -38.7695 72.7051 -40.5273 74.8535 -40.5273 C 77.1484 -40.5273 79.0527 -38.7695 79.0527 -36.4258 C 79.0527 -34.1797 77.1484 -32.373 74.8535 -32.373 Z M 115.479 -6.00586 C 127.734 -1.46484 135.596 -2.92969 137.598 -10.4492 L 97.8516 -31.4453 L 77.6855 -20.8496 L 77.6855 -20.2637 Z M 32.0801 5.71289 C 25.6348 5.71289 20.459 0.488281 20.459 -6.10352 C 20.459 -12.5488 25.6348 -17.8223 32.0801 -17.8223 C 38.623 -17.8223 43.8477 -12.5488 43.8477 -6.10352 C 43.8477 0.488281 38.623 5.71289 32.0801 5.71289 Z"/>
  </g>
  <g id="Light-M" transform="matrix(1 0 0 1 1079.21 1126)">
   <path d="M 31.543 -42.3828 C 40.5273 -42.3828 42.627 -46.6797 46.5332 -46.6797 C 47.4121 -46.6797 48.0957 -46.4844 49.1211 -45.9473 L 59.5703 -40.332 C 60.4004 -39.8926 61.084 -39.502 61.6211 -39.1113 L 61.8652 -39.1113 C 62.6953 -42.334 64.209 -44.7266 66.5039 -46.3379 L 66.5039 -46.582 L 53.8574 -53.418 C 50.4883 -55.2246 50.7324 -56.9824 50.7324 -61.5723 C 50.7324 -72.2656 42.1875 -80.8594 31.543 -80.8594 C 20.9473 -80.8594 12.4512 -72.2168 12.4512 -61.5723 C 12.4512 -50.9277 20.9473 -42.3828 31.543 -42.3828 Z M 31.543 -48.8281 C 24.5605 -48.8281 18.9453 -54.5898 18.9453 -61.5723 C 18.9453 -68.7012 24.5605 -74.3164 31.543 -74.3164 C 38.6719 -74.3164 44.2871 -68.7012 44.2871 -61.5723 C 44.2871 -54.5898 38.6719 -48.8281 31.543 -48.8281 Z M 31.543 13.1836 C 42.1875 13.1836 50.7324 4.63867 50.7324 -6.10352 C 50.7324 -10.498 50.3906 -12.3535 53.4668 -14.0137 L 135.4 -57.7637 C 133.008 -63.7695 125.537 -64.3555 115.381 -60.6934 L 73.6816 -45.3613 C 68.2129 -43.3594 65.9668 -40.7227 64.5508 -35.791 L 63.623 -32.1777 C 62.9883 -29.9316 62.1582 -28.6133 58.9355 -26.9531 L 49.1211 -21.6309 C 48.0957 -21.1426 47.4121 -20.9473 46.5332 -20.9473 C 42.5781 -20.9473 40.4785 -25.2441 31.543 -25.2441 C 20.9473 -25.2441 12.4512 -16.6992 12.4512 -6.10352 C 12.4512 4.58984 20.9473 13.1836 31.543 13.1836 Z M 74.6094 -32.373 C 72.6074 -32.373 70.8984 -34.082 70.8984 -36.1328 C 70.8984 -38.2324 72.6074 -39.8438 74.6094 -39.8438 C 76.709 -39.8438 78.418 -38.2324 78.418 -36.1328 C 78.418 -34.0332 76.709 -32.373 74.6094 -32.373 Z M 115.332 -6.83594 C 125.635 -2.97852 133.057 -3.75977 135.4 -9.86328 L 94.1406 -31.4941 L 76.6602 -22.3145 L 76.6602 -21.875 Z M 31.543 6.68945 C 24.5605 6.68945 18.9453 1.02539 18.9453 -6.10352 C 18.9453 -13.0859 24.5605 -18.7988 31.543 -18.7988 C 38.6719 -18.7988 44.2871 -13.0859 44.2871 -6.10352 C 44.2871 1.02539 38.6719 6.68945 31.543 6.68945 Z"/>
  </g>
  <g id="Thin-M" transform="matrix(1 0 0 1 783.961 1126)">
   <path d="M 30.8594 -43.1152 C 39.5996 -43.1152 42.5781 -48.0957 46.3379 -48.0957 C 47.0703 -48.0957 47.7539 -47.9492 48.5352 -47.5098 L 61.9141 -40.2344 C 62.4512 -39.9414 62.9395 -39.5996 63.3789 -39.3066 L 63.5742 -39.3066 C 64.0137 -41.3574 65.0391 -43.457 66.2598 -44.6289 L 66.2598 -44.8242 L 51.6113 -52.7832 C 48.3398 -54.541 49.3164 -56.6895 49.3164 -61.5723 C 49.3164 -71.875 41.1133 -80.1758 30.8594 -80.1758 C 20.6543 -80.1758 12.4512 -71.8262 12.4512 -61.5723 C 12.4512 -51.3184 20.6543 -43.1152 30.8594 -43.1152 Z M 30.8594 -47.5586 C 23.1445 -47.5586 16.9922 -53.8574 16.9922 -61.5723 C 16.9922 -69.4336 23.1445 -75.5859 30.8594 -75.5859 C 38.6719 -75.5859 44.8242 -69.4336 44.8242 -61.5723 C 44.8242 -53.8574 38.6719 -47.5586 30.8594 -47.5586 Z M 30.8594 12.5 C 41.1133 12.5 49.3164 4.19922 49.3164 -6.10352 C 49.3164 -10.9375 48.3398 -13.0859 51.4648 -14.7949 L 132.471 -58.4961 C 129.639 -62.6953 122.705 -62.3047 115.283 -59.5703 L 73.584 -43.8477 C 68.6035 -41.9434 66.748 -39.6973 65.5762 -35.3027 L 64.6973 -31.6895 C 64.1602 -29.7363 63.7207 -28.3691 61.2793 -27.0996 L 48.5352 -20.166 C 47.7539 -19.7266 47.0703 -19.5312 46.3379 -19.5312 C 42.5293 -19.5312 39.5508 -24.5605 30.8594 -24.5605 C 20.6543 -24.5605 12.4512 -16.3086 12.4512 -6.10352 C 12.4512 4.19922 20.6543 12.5 30.8594 12.5 Z M 74.2676 -32.4219 C 72.4609 -32.4219 70.9961 -33.9355 70.9961 -35.6934 C 70.9961 -37.5977 72.4609 -38.916 74.2676 -38.916 C 76.123 -38.916 77.5879 -37.5977 77.5879 -35.6934 C 77.5879 -33.8867 76.123 -32.4219 74.2676 -32.4219 Z M 115.234 -7.95898 C 122.852 -4.98047 129.688 -4.78516 132.471 -9.13086 L 89.209 -31.5918 L 75.3418 -24.3164 L 75.3418 -23.9258 Z M 30.8594 7.95898 C 23.1445 7.95898 16.9922 1.80664 16.9922 -6.10352 C 16.9922 -13.8184 23.1445 -20.0684 30.8594 -20.0684 C 38.6719 -20.0684 44.8242 -13.8184 44.8242 -6.10352 C 44.8242 1.80664 38.6719 7.95898 30.8594 7.95898 Z"/>
  </g>
  <g id="Ultralight-M" transform="matrix(1 0 0 1 487.983 1126)">
   <path d="M 30.5176 -43.457 C 39.1602 -43.457 42.5293 -48.8281 46.2402 -48.8281 C 46.9238 -48.8281 47.6074 -48.6816 48.2422 -48.291 L 63.0859 -40.1855 C 63.5254 -39.9414 63.8672 -39.6973 64.2578 -39.4043 L 64.4531 -39.4043 C 64.6484 -40.8203 65.4785 -42.8223 66.1621 -43.75 L 66.1621 -43.8965 L 50.4395 -52.4414 C 47.2656 -54.1992 48.584 -56.4941 48.584 -61.5723 C 48.584 -71.6309 40.5762 -79.7852 30.5176 -79.7852 C 20.459 -79.7852 12.4512 -71.6309 12.4512 -61.5723 C 12.4512 -51.5625 20.459 -43.457 30.5176 -43.457 Z M 30.5176 -46.9238 C 22.4121 -46.9238 15.9668 -53.5156 15.9668 -61.5723 C 15.9668 -69.8242 22.4121 -76.2695 30.5176 -76.2695 C 38.6719 -76.2695 45.1172 -69.8242 45.1172 -61.5723 C 45.1172 -53.5156 38.6719 -46.9238 30.5176 -46.9238 Z M 30.5176 12.1582 C 40.5762 12.1582 48.584 4.00391 48.584 -6.10352 C 48.584 -11.1816 47.2656 -13.4766 50.4395 -15.2344 L 131.006 -58.8379 C 127.93 -62.1582 121.289 -61.2793 115.234 -59.0332 L 73.5352 -43.0664 C 68.7988 -41.2598 67.1387 -39.1602 66.1133 -35.0586 L 65.2344 -31.4453 C 64.7949 -29.6387 64.502 -28.2715 62.4512 -27.1484 L 48.2422 -19.3848 C 47.6074 -18.9941 46.9238 -18.7988 46.2402 -18.7988 C 42.4805 -18.7988 39.1113 -24.2188 30.5176 -24.2188 C 20.459 -24.2188 12.4512 -16.1133 12.4512 -6.10352 C 12.4512 4.00391 20.459 12.1582 30.5176 12.1582 Z M 74.0723 -32.4707 C 72.4121 -32.4707 71.0449 -33.8867 71.0449 -35.498 C 71.0449 -37.207 72.4121 -38.4766 74.0723 -38.4766 C 75.8301 -38.4766 77.1484 -37.207 77.1484 -35.498 C 77.1484 -33.8379 75.8301 -32.4707 74.0723 -32.4707 Z M 115.137 -8.49609 C 121.387 -6.00586 127.979 -5.32227 131.006 -8.74023 L 86.6699 -31.6406 L 74.6582 -25.293 L 74.6582 -25 Z M 30.5176 8.59375 C 22.4121 8.59375 15.9668 2.14844 15.9668 -6.10352 C 15.9668 -14.1602 22.4121 -20.752 30.5176 -20.752 C 38.6719 -20.752 45.1172 -14.1602 45.1172 -6.10352 C 45.1172 2.14844 38.6719 8.59375 30.5176 8.59375 Z"/>
  </g>
  <g id="Black-S" transform="matrix(1 0 0 1 2870.34 696)">
   <path d="M 27.7832 -37.9395 C 36.0352 -37.9395 36.4258 -40.7715 40.625 -40.7715 C 41.6504 -40.7715 42.4316 -40.5762 43.3594 -40.0391 L 45.752 -38.6719 C 46.7773 -38.0859 47.6562 -37.5977 48.3398 -37.207 L 48.877 -37.207 C 50.1953 -41.9922 51.123 -44.1406 54.0527 -46.5332 L 54.0527 -47.0215 L 49.6094 -49.3652 C 46.4355 -51.0254 45.8496 -52.1973 45.8496 -55.8594 C 45.8496 -65.918 37.8418 -73.9258 27.7832 -73.9258 C 17.7734 -73.9258 9.76562 -65.918 9.76562 -55.8594 C 9.76562 -45.8984 17.7246 -37.9395 27.7832 -37.9395 Z M 27.7344 -49.6582 C 24.3652 -49.6582 21.582 -52.5391 21.582 -55.9082 C 21.582 -59.4238 24.3652 -62.207 27.7344 -62.207 C 31.2012 -62.207 34.0332 -59.4238 34.0332 -55.9082 C 34.0332 -52.5391 31.2012 -49.6582 27.7344 -49.6582 Z M 27.7832 5.51758 C 37.8906 5.51758 45.8496 -2.39258 45.8496 -12.4023 C 45.8496 -15.7715 46.4355 -17.3828 49.6094 -19.043 L 116.357 -54.3457 C 114.795 -61.8652 106.592 -64.2578 95.5566 -60.2539 L 60.5469 -47.5586 C 55.0781 -45.5566 52.4414 -42.7734 51.0254 -37.5977 L 50.1465 -34.4238 C 49.4629 -31.9336 48.3398 -31.1035 44.3359 -28.9062 L 43.3594 -28.3691 C 42.0898 -27.6855 41.5039 -27.4902 40.5762 -27.4902 C 36.9141 -27.4902 36.0352 -30.4688 27.7832 -30.4688 C 17.7734 -30.4688 9.76562 -22.4121 9.76562 -12.4023 C 9.76562 -2.39258 17.7246 5.51758 27.7832 5.51758 Z M 61.1328 -34.2773 C 59.5215 -34.2773 58.0566 -35.6445 58.0566 -37.3535 C 58.0566 -39.1113 59.5215 -40.4785 61.1328 -40.4785 C 62.8418 -40.4785 64.3066 -39.1113 64.3066 -37.3535 C 64.3066 -35.6445 62.8418 -34.2773 61.1328 -34.2773 Z M 95.5566 -8.74023 C 106.641 -4.73633 114.746 -6.88477 116.357 -14.6484 L 81.0547 -33.252 L 60.4492 -22.2656 L 60.4492 -21.4844 Z M 27.7344 -6.20117 C 24.3652 -6.20117 21.582 -9.08203 21.582 -12.4512 C 21.582 -15.9668 24.3652 -18.75 27.7344 -18.75 C 31.2012 -18.75 34.0332 -15.9668 34.0332 -12.4512 C 34.0332 -9.08203 31.2012 -6.20117 27.7344 -6.20117 Z"/>
  </g>
  <g id="Heavy-S" transform="matrix(1 0 0 1 2574.51 696)">
   <path d="M 27.2461 -38.4766 C 35.2051 -38.4766 35.7422 -41.2598 39.6973 -41.2598 C 40.6738 -41.2598 41.4062 -41.0645 42.334 -40.5273 L 45.459 -38.8184 C 46.4355 -38.2812 47.2656 -37.793 47.9492 -37.4023 L 48.3887 -37.4023 C 49.6582 -41.9434 50.7324 -44.0918 53.6621 -46.2891 L 53.6621 -46.7285 L 48.3887 -49.5117 C 45.3125 -51.123 44.7266 -52.2949 44.7266 -55.8594 C 44.7266 -65.625 36.9629 -73.3887 27.2461 -73.3887 C 17.5293 -73.3887 9.76562 -65.625 9.76562 -55.8594 C 9.76562 -46.1914 17.4805 -38.4766 27.2461 -38.4766 Z M 27.1973 -49.0723 C 23.4863 -49.0723 20.459 -52.1973 20.459 -55.9082 C 20.459 -59.7656 23.4863 -62.793 27.1973 -62.793 C 31.0059 -62.793 34.082 -59.7656 34.082 -55.9082 C 34.082 -52.1973 31.0059 -49.0723 27.1973 -49.0723 Z M 27.2461 5.0293 C 37.0117 5.0293 44.7266 -2.68555 44.7266 -12.4023 C 44.7266 -15.6738 45.2637 -17.1875 48.2422 -18.75 L 114.6 -53.8574 C 113.086 -61.084 105.273 -63.2324 94.3848 -59.2773 L 59.9121 -46.875 C 54.5898 -44.9219 52.0996 -42.2363 50.6836 -37.2559 L 49.8535 -34.1797 C 49.1699 -31.7871 48.0957 -30.9082 44.2383 -28.8086 L 42.334 -27.832 C 41.1133 -27.1973 40.5273 -27.002 39.6484 -27.002 C 36.084 -27.002 35.2051 -29.9316 27.2461 -29.9316 C 17.5293 -29.9316 9.76562 -22.1191 9.76562 -12.4023 C 9.76562 -2.68555 17.4805 5.0293 27.2461 5.0293 Z M 60.5957 -33.9844 C 58.9355 -33.9844 57.4219 -35.3516 57.4219 -37.1094 C 57.4219 -38.916 58.9355 -40.2832 60.5957 -40.2832 C 62.3535 -40.2832 63.8184 -38.916 63.8184 -37.1094 C 63.8184 -35.3516 62.3535 -33.9844 60.5957 -33.9844 Z M 94.3848 -9.47266 C 105.322 -5.51758 113.037 -7.51953 114.6 -14.9902 L 80.4688 -33.0078 L 60.6445 -22.5098 L 60.6445 -21.7773 Z M 27.1973 -5.56641 C 23.4863 -5.56641 20.459 -8.69141 20.459 -12.4512 C 20.459 -16.2598 23.4863 -19.3359 27.1973 -19.3359 C 31.0059 -19.3359 34.082 -16.2598 34.082 -12.4512 C 34.082 -8.69141 31.0059 -5.56641 27.1973 -5.56641 Z"/>
  </g>
  <g id="Bold-S" transform="matrix(1 0 0 1 2278.77 696)">
   <path d="M 26.6113 -39.0625 C 34.3262 -39.0625 34.9121 -41.7969 38.6719 -41.7969 C 39.5508 -41.7969 40.2344 -41.6504 41.2109 -41.1133 L 45.1172 -39.0137 C 46.0449 -38.4766 46.875 -38.0371 47.5098 -37.6465 L 47.9004 -37.6465 C 49.0723 -41.8457 50.3418 -43.9941 53.1738 -46.0449 L 53.1738 -46.4355 L 46.9727 -49.707 C 43.9941 -51.2695 43.457 -52.3926 43.457 -55.8594 C 43.457 -65.2832 35.9863 -72.8027 26.6113 -72.8027 C 17.2363 -72.8027 9.76562 -65.2832 9.76562 -55.8594 C 9.76562 -46.5332 17.2363 -39.0625 26.6113 -39.0625 Z M 26.5625 -48.3887 C 22.5098 -48.3887 19.1895 -51.8066 19.1895 -55.9082 C 19.1895 -60.1074 22.5098 -63.4277 26.5625 -63.4277 C 30.7617 -63.4277 34.082 -60.1074 34.082 -55.9082 C 34.082 -51.8066 30.7617 -48.3887 26.5625 -48.3887 Z M 26.6113 4.44336 C 35.9863 4.44336 43.457 -3.02734 43.457 -12.4023 C 43.457 -15.625 43.9941 -16.9922 46.7285 -18.4082 L 112.646 -53.2715 C 111.133 -60.2539 103.809 -62.1094 93.0176 -58.252 L 59.1797 -46.0938 C 54.0527 -44.2383 51.709 -41.6504 50.3418 -36.8652 L 49.5117 -33.8867 C 48.8281 -31.5918 47.7539 -30.6641 44.1406 -28.7598 L 41.2109 -27.1973 C 40.0391 -26.6113 39.502 -26.416 38.623 -26.416 C 35.1562 -26.416 34.3262 -29.2969 26.6113 -29.2969 C 17.2363 -29.2969 9.76562 -21.7773 9.76562 -12.4023 C 9.76562 -3.02734 17.2363 4.44336 26.6113 4.44336 Z M 59.9609 -33.6426 C 58.252 -33.6426 56.7383 -35.0586 56.7383 -36.8652 C 56.7383 -38.6719 58.252 -40.0879 59.9609 -40.0879 C 61.7676 -40.0879 63.2812 -38.6719 63.2812 -36.8652 C 63.2812 -35.0586 61.7676 -33.6426 59.9609 -33.6426 Z M 93.0176 -10.3516 C 103.857 -6.39648 111.084 -8.20312 112.646 -15.3809 L 79.7852 -32.7637 L 60.8887 -22.7539 L 60.8887 -22.1191 Z M 26.5625 -4.88281 C 22.5098 -4.88281 19.1895 -8.30078 19.1895 -12.4512 C 19.1895 -16.6016 22.5098 -19.9707 26.5625 -19.9707 C 30.7617 -19.9707 34.082 -16.6016 34.082 -12.4512 C 34.082 -8.30078 30.7617 -4.88281 26.5625 -4.88281 Z"/>
  </g>
  <g id="Semibold-S" transform="matrix(1 0 0 1 1982.74 696)">
   <path d="M 26.1719 -39.4531 C 33.6914 -39.4531 34.375 -42.1875 37.9395 -42.1875 C 38.7695 -42.1875 39.4043 -42.041 40.4297 -41.5039 L 44.873 -39.1113 C 45.8008 -38.623 46.582 -38.1836 47.168 -37.8418 L 47.5098 -37.8418 C 48.6328 -41.7969 50 -43.9941 52.8809 -45.8984 L 52.8809 -46.1914 L 46.0449 -49.8535 C 43.1152 -51.3672 42.627 -52.4902 42.627 -55.8594 C 42.627 -65.0391 35.3027 -72.3633 26.1719 -72.3633 C 17.041 -72.3633 9.76562 -65.0391 9.76562 -55.8594 C 9.76562 -46.7773 17.041 -39.4531 26.1719 -39.4531 Z M 26.123 -47.9492 C 21.8262 -47.9492 18.3105 -51.5625 18.3105 -55.8594 C 18.3105 -60.3516 21.8262 -63.8672 26.123 -63.8672 C 30.5664 -63.8672 34.1309 -60.3516 34.1309 -55.8594 C 34.1309 -51.5625 30.5664 -47.9492 26.123 -47.9492 Z M 26.1719 4.05273 C 35.3027 4.05273 42.627 -3.22266 42.627 -12.4023 C 42.627 -15.5273 43.0664 -16.8457 45.6543 -18.2129 L 111.279 -52.8809 C 109.814 -59.668 102.783 -61.3281 92.1387 -57.5195 L 58.6914 -45.5566 C 53.7109 -43.7988 51.416 -41.2598 50.0977 -36.5723 L 49.2676 -33.6914 C 48.6328 -31.4453 47.5586 -30.5176 44.043 -28.6621 L 40.4297 -26.8066 C 39.3066 -26.2207 38.7695 -26.0254 37.9395 -26.0254 C 34.5215 -26.0254 33.6914 -28.8574 26.1719 -28.8574 C 17.041 -28.8574 9.76562 -21.5332 9.76562 -12.4023 C 9.76562 -3.27148 17.041 4.05273 26.1719 4.05273 Z M 59.5215 -33.3984 C 57.8125 -33.3984 56.25 -34.8145 56.25 -36.6699 C 56.25 -38.5254 57.8125 -39.9902 59.5215 -39.9902 C 61.377 -39.9902 62.8906 -38.5254 62.8906 -36.6699 C 62.8906 -34.8145 61.377 -33.3984 59.5215 -33.3984 Z M 92.1387 -10.9375 C 102.832 -6.98242 109.766 -8.69141 111.279 -15.625 L 79.2969 -32.5684 L 61.084 -22.9004 L 61.084 -22.3633 Z M 26.123 -4.44336 C 21.8262 -4.44336 18.3105 -8.00781 18.3105 -12.4023 C 18.3105 -16.8457 21.8262 -20.3613 26.123 -20.3613 C 30.5664 -20.3613 34.1309 -16.8457 34.1309 -12.4023 C 34.1309 -8.00781 30.5664 -4.44336 26.123 -4.44336 Z"/>
  </g>
  <g id="Medium-S" transform="matrix(1 0 0 1 1686.55 696)">
   <path d="M 25.8301 -39.7461 C 33.2031 -39.7461 33.9844 -42.4805 37.4023 -42.4805 C 38.2324 -42.4805 38.8184 -42.334 39.8438 -41.7969 L 44.6777 -39.209 C 45.6055 -38.7207 46.3379 -38.2812 46.9238 -37.9395 L 47.2168 -37.9395 C 48.3398 -41.7969 49.8047 -43.9453 52.6367 -45.752 L 52.6367 -46.0449 L 45.3125 -49.9512 C 42.4805 -51.4648 41.9434 -52.5391 41.9434 -55.8594 C 41.9434 -64.8926 34.7656 -72.0703 25.8301 -72.0703 C 16.8945 -72.0703 9.76562 -64.8438 9.76562 -55.8594 C 9.76562 -46.9238 16.8945 -39.7461 25.8301 -39.7461 Z M 25.8301 -47.5586 C 21.2891 -47.5586 17.627 -51.3672 17.627 -55.8594 C 17.627 -60.5469 21.2891 -64.209 25.8301 -64.209 C 30.4199 -64.209 34.1309 -60.5469 34.1309 -55.8594 C 34.1309 -51.3672 30.4199 -47.5586 25.8301 -47.5586 Z M 25.8301 3.75977 C 34.7656 3.75977 41.9434 -3.41797 41.9434 -12.4023 C 41.9434 -15.4785 42.3828 -16.748 44.873 -18.0176 L 110.254 -52.5879 C 108.789 -59.1797 102.051 -60.7422 91.4062 -56.9336 L 58.3496 -45.166 C 53.418 -43.4082 51.2207 -40.9668 49.9023 -36.377 L 49.0723 -33.5449 C 48.4375 -31.3477 47.4121 -30.4199 43.9941 -28.6621 L 39.8438 -26.4648 C 38.7207 -25.9277 38.1836 -25.7324 37.4023 -25.7324 C 34.082 -25.7324 33.2031 -28.5156 25.8301 -28.5156 C 16.8945 -28.5156 9.76562 -21.3379 9.76562 -12.4023 C 9.76562 -3.41797 16.8945 3.75977 25.8301 3.75977 Z M 59.2285 -33.2031 C 57.4707 -33.2031 55.9082 -34.668 55.9082 -36.5234 C 55.9082 -38.4277 57.4707 -39.8926 59.2285 -39.8926 C 61.084 -39.8926 62.6465 -38.4277 62.6465 -36.5234 C 62.6465 -34.668 61.084 -33.2031 59.2285 -33.2031 Z M 91.4062 -11.377 C 102.1 -7.4707 108.789 -9.08203 110.254 -15.8203 L 78.9551 -32.4219 L 61.1816 -23.0469 L 61.1816 -22.5098 Z M 25.8301 -4.05273 C 21.2891 -4.05273 17.627 -7.8125 17.627 -12.4023 C 17.627 -16.9922 21.2891 -20.7031 25.8301 -20.7031 C 30.4199 -20.7031 34.1309 -16.9922 34.1309 -12.4023 C 34.1309 -7.8125 30.4199 -4.05273 25.8301 -4.05273 Z"/>
  </g>
  <g id="Regular-S" transform="matrix(1 0 0 1 1390.52 696)">
   <path d="M 25.3906 -40.1855 C 32.6172 -40.1855 33.4473 -42.8223 36.6699 -42.8223 C 37.4512 -42.8223 37.9883 -42.6758 39.0625 -42.1875 L 44.4824 -39.3555 C 45.3613 -38.8672 46.0449 -38.4277 46.6309 -38.0859 L 46.875 -38.0859 C 47.9004 -41.748 49.5117 -43.8965 52.2949 -45.6055 L 52.2949 -45.8496 L 44.3848 -50.0488 C 41.6016 -51.5137 41.1133 -52.5879 41.1133 -55.8594 C 41.1133 -64.6484 34.082 -71.6309 25.3906 -71.6309 C 16.6992 -71.6309 9.76562 -64.5996 9.76562 -55.8594 C 9.76562 -47.168 16.6992 -40.1855 25.3906 -40.1855 Z M 25.3906 -47.1191 C 20.6543 -47.1191 16.748 -51.0742 16.748 -55.8594 C 16.748 -60.791 20.6543 -64.6484 25.3906 -64.6484 C 30.2734 -64.6484 34.1309 -60.791 34.1309 -55.8594 C 34.1309 -51.0742 30.2734 -47.1191 25.3906 -47.1191 Z M 25.3906 3.36914 C 34.082 3.36914 41.1133 -3.61328 41.1133 -12.4023 C 41.1133 -15.4297 41.5039 -16.6016 43.7988 -17.8223 L 108.887 -52.2461 C 107.471 -58.5938 101.025 -59.9609 90.5273 -56.2012 L 57.8613 -44.6289 C 53.0762 -42.9688 50.9766 -40.5273 49.6094 -36.1328 L 48.877 -33.3496 C 48.2422 -31.25 47.2168 -30.2246 43.9453 -28.5645 L 39.0625 -26.0254 C 37.9883 -25.5371 37.4512 -25.3906 36.6699 -25.3906 C 33.4473 -25.3906 32.6172 -28.0762 25.3906 -28.0762 C 16.6992 -28.0762 9.76562 -21.0938 9.76562 -12.4023 C 9.76562 -3.66211 16.6992 3.36914 25.3906 3.36914 Z M 58.7891 -32.959 C 57.0312 -32.959 55.4199 -34.4727 55.4199 -36.3281 C 55.4199 -38.2324 57.0312 -39.7461 58.7891 -39.7461 C 60.6934 -39.7461 62.2559 -38.2324 62.2559 -36.3281 C 62.2559 -34.4727 60.6934 -32.959 58.7891 -32.959 Z M 90.5273 -11.9629 C 101.074 -8.05664 107.471 -9.57031 108.887 -16.0645 L 78.4668 -32.2266 L 61.377 -23.2422 L 61.377 -22.7539 Z M 25.3906 -3.61328 C 20.6543 -3.61328 16.748 -7.51953 16.748 -12.4023 C 16.748 -17.2363 20.6543 -21.1426 25.3906 -21.1426 C 30.2734 -21.1426 34.1309 -17.2363 34.1309 -12.4023 C 34.1309 -7.51953 30.2734 -3.61328 25.3906 -3.61328 Z"/>
  </g>
  <g id="Light-S" transform="matrix(1 0 0 1 1094.78 696)">
   <path d="M 24.9512 -40.625 C 32.0312 -40.625 33.3984 -43.7988 36.5234 -43.7988 C 37.2559 -43.7988 37.793 -43.6523 38.6719 -43.2129 L 45.9961 -39.2578 C 46.7285 -38.8672 47.3145 -38.5254 47.8027 -38.2324 L 47.998 -38.2324 C 48.7793 -41.0645 50.0488 -43.0664 52.1484 -44.4336 L 52.1484 -44.6289 L 42.8711 -49.6582 C 40.1855 -51.0742 40.1367 -52.3926 40.1367 -55.8594 C 40.1367 -64.3555 33.3984 -71.1914 24.9512 -71.1914 C 16.5039 -71.1914 9.76562 -64.3555 9.76562 -55.8594 C 9.76562 -47.4121 16.5039 -40.625 24.9512 -40.625 Z M 24.9512 -46.2891 C 19.6777 -46.2891 15.4297 -50.5859 15.4297 -55.8594 C 15.4297 -61.2793 19.6777 -65.4785 24.9512 -65.4785 C 30.2734 -65.4785 34.5215 -61.2793 34.5215 -55.8594 C 34.5215 -50.5859 30.2734 -46.2891 24.9512 -46.2891 Z M 24.9512 2.92969 C 33.3984 2.92969 40.1367 -3.90625 40.1367 -12.4023 C 40.1367 -15.7227 40.0879 -17.0898 42.4805 -18.3594 L 106.934 -52.6855 C 105.225 -57.9102 99.1699 -58.6426 90.4297 -55.4688 L 57.7637 -43.6035 C 53.3203 -41.9922 51.4648 -39.8438 50.293 -35.791 L 49.5605 -33.0078 C 49.0234 -31.1035 48.2422 -30.0781 45.5078 -28.6621 L 38.6719 -25.0488 C 37.793 -24.5605 37.2559 -24.4141 36.5234 -24.4141 C 33.3984 -24.4141 31.9824 -27.6367 24.9512 -27.6367 C 16.5039 -27.6367 9.76562 -20.8496 9.76562 -12.4023 C 9.76562 -3.90625 16.5039 2.92969 24.9512 2.92969 Z M 58.5449 -33.0078 C 56.9336 -33.0078 55.5176 -34.375 55.5176 -36.0352 C 55.5176 -37.793 56.9336 -39.1113 58.5449 -39.1113 C 60.2539 -39.1113 61.7188 -37.793 61.7188 -36.0352 C 61.7188 -34.375 60.2539 -33.0078 58.5449 -33.0078 Z M 90.4297 -12.6953 C 99.2188 -9.375 105.225 -10.2539 106.934 -15.5762 L 75.1953 -32.2754 L 60.4492 -24.5605 L 60.4492 -24.1699 Z M 24.9512 -2.7832 C 19.6777 -2.7832 15.4297 -7.03125 15.4297 -12.4023 C 15.4297 -17.6758 19.6777 -21.9727 24.9512 -21.9727 C 30.2734 -21.9727 34.5215 -17.6758 34.5215 -12.4023 C 34.5215 -7.03125 30.2734 -2.7832 24.9512 -2.7832 Z"/>
  </g>
  <g id="Thin-S" transform="matrix(1 0 0 1 799.367 696)">
   <path d="M 24.3164 -41.2598 C 31.2012 -41.2598 33.3984 -45.0684 36.377 -45.0684 C 36.9629 -45.0684 37.5 -44.9219 38.1836 -44.5312 L 48.0469 -39.1602 C 48.5352 -38.916 48.9746 -38.623 49.3164 -38.3789 L 49.5117 -38.3789 C 49.9023 -40.1855 50.7812 -41.9434 52.002 -42.9199 L 52.002 -43.0664 L 40.8691 -49.0723 C 38.2812 -50.4883 38.916 -52.0996 38.916 -55.8594 C 38.916 -64.0137 32.4219 -70.5566 24.3164 -70.5566 C 16.2598 -70.5566 9.76562 -64.0137 9.76562 -55.8594 C 9.76562 -47.7539 16.2598 -41.2598 24.3164 -41.2598 Z M 24.3164 -45.166 C 18.4082 -45.166 13.7207 -49.9512 13.7207 -55.8594 C 13.7207 -61.9141 18.4082 -66.6016 24.3164 -66.6016 C 30.3223 -66.6016 35.0098 -61.9141 35.0098 -55.8594 C 35.0098 -49.9512 30.3223 -45.166 24.3164 -45.166 Z M 24.3164 2.29492 C 32.4219 2.29492 38.916 -4.24805 38.916 -12.4023 C 38.916 -16.1133 38.2812 -17.7246 40.7227 -19.0918 L 104.346 -53.3203 C 102.246 -56.9336 96.6797 -56.8359 90.332 -54.541 L 57.666 -42.2852 C 53.6621 -40.7715 52.1484 -38.916 51.1719 -35.4004 L 50.4883 -32.5684 C 50.0488 -30.957 49.6094 -29.9316 47.5586 -28.8086 L 38.1836 -23.6816 C 37.5 -23.3398 36.9629 -23.1934 36.377 -23.1934 C 33.3496 -23.1934 31.2012 -27.002 24.3164 -27.002 C 16.2598 -27.002 9.76562 -20.5078 9.76562 -12.4023 C 9.76562 -4.24805 16.2598 2.29492 24.3164 2.29492 Z M 58.252 -33.0078 C 56.8359 -33.0078 55.6152 -34.2773 55.6152 -35.6934 C 55.6152 -37.207 56.8359 -38.3301 58.252 -38.3301 C 59.7656 -38.3301 60.9863 -37.207 60.9863 -35.6934 C 60.9863 -34.2285 59.7656 -33.0078 58.252 -33.0078 Z M 90.332 -13.623 C 96.7773 -11.1328 102.246 -11.1816 104.346 -14.9414 L 70.8008 -32.373 L 59.2773 -26.2695 L 59.2773 -25.9766 Z M 24.3164 -1.66016 C 18.4082 -1.66016 13.7207 -6.39648 13.7207 -12.4023 C 13.7207 -18.3105 18.4082 -23.0957 24.3164 -23.0957 C 30.3223 -23.0957 35.0098 -18.3105 35.0098 -12.4023 C 35.0098 -6.39648 30.3223 -1.66016 24.3164 -1.66016 Z"/>
  </g>
  <g id="Ultralight-S" transform="matrix(1 0 0 1 503.315 696)">
   <path d="M 23.9746 -41.6016 C 30.8105 -41.6016 33.3496 -45.7031 36.2305 -45.7031 C 36.8164 -45.7031 37.3535 -45.5566 37.8906 -45.2637 L 49.1211 -39.1113 C 49.5117 -38.916 49.8047 -38.7207 50.0977 -38.4766 L 50.2441 -38.4766 C 50.4883 -39.7461 51.1719 -41.3574 51.8555 -42.1387 L 51.8555 -42.2852 L 39.8438 -48.7793 C 37.3535 -50.1465 38.2812 -51.9531 38.2812 -55.8594 C 38.2812 -63.8184 31.9336 -70.2148 23.9746 -70.2148 C 16.1133 -70.2148 9.76562 -63.8184 9.76562 -55.8594 C 9.76562 -47.9492 16.1133 -41.6016 23.9746 -41.6016 Z M 23.9746 -44.5801 C 17.7734 -44.5801 12.793 -49.6582 12.793 -55.8594 C 12.793 -62.207 17.7734 -67.1875 23.9746 -67.1875 C 30.3223 -67.1875 35.3027 -62.207 35.3027 -55.8594 C 35.3027 -49.6582 30.3223 -44.5801 23.9746 -44.5801 Z M 23.9746 1.95312 C 31.9336 1.95312 38.2812 -4.44336 38.2812 -12.4023 C 38.2812 -16.3086 37.3047 -18.0664 39.7949 -19.4336 L 103.027 -53.6621 C 100.684 -56.4453 95.4102 -55.9082 90.2832 -54.0039 L 57.6172 -41.5527 C 53.8574 -40.1367 52.4902 -38.4277 51.6602 -35.1562 L 50.9766 -32.3242 C 50.5859 -30.8594 50.3418 -29.7852 48.6328 -28.9062 L 37.8906 -22.998 C 37.3535 -22.7051 36.8164 -22.5586 36.2305 -22.5586 C 33.3008 -22.5586 30.7617 -26.6602 23.9746 -26.6602 C 16.1133 -26.6602 9.76562 -20.3125 9.76562 -12.4023 C 9.76562 -4.44336 16.1133 1.95312 23.9746 1.95312 Z M 58.1055 -33.0566 C 56.7383 -33.0566 55.6641 -34.1797 55.6641 -35.498 C 55.6641 -36.8652 56.7383 -37.8906 58.1055 -37.8906 C 59.4727 -37.8906 60.5957 -36.8652 60.5957 -35.498 C 60.5957 -34.1309 59.4727 -33.0566 58.1055 -33.0566 Z M 90.2344 -14.1602 C 95.5078 -12.0605 100.732 -11.6699 103.027 -14.5996 L 68.6035 -32.4219 L 58.6914 -27.1973 L 58.6914 -26.9531 Z M 23.9746 -1.07422 C 17.7734 -1.07422 12.793 -6.05469 12.793 -12.4023 C 12.793 -18.6523 17.7734 -23.6816 23.9746 -23.6816 C 30.3223 -23.6816 35.3027 -18.6523 35.3027 -12.4023 C 35.3027 -6.05469 30.3223 -1.07422 23.9746 -1.07422 Z"/>
  </g>
 </g>
</svg>
