<?xml version="1.0" encoding="utf-8"?>
<!-- Generator: Adobe Illustrator 23.1.1, SVG Export Plug-In . SVG Version: 6.00 Build 0)  -->
<svg version="1.1" id="berlin" xmlns="http://www.w3.org/2000/svg" xmlns:xlink="http://www.w3.org/1999/xlink" x="0px" y="0px"
	 viewBox="0 0 420 252" style="enable-background:new 0 0 420 252;" xml:space="preserve">
<style type="text/css">
	.st0{fill:#E2382A;}
	.st1{fill:#FFFFFF;}
</style>
<title>Flagge von Berlin</title>
<desc>die Flagge von Berlin</desc>
<rect class="st0" width="420" height="252"/>
<rect y="50.4" class="st1" width="420" height="151.2"/>
<path class="st0" d="M190.8,72.8c-1.9-0.9-5.4-0.4-8.6-0.9c-6.5-1-7.3-2.9-7.3-4.2c0-1.4-1.3-1.5-1.3,0c0,9,13.6,4.4,17.4,6.7
	 M146.8,69.7c0-2.4-1.6-4-3.1-4.1c0.9,1,1,2.5,1.2,3.9c-0.3-2-1.8-3.3-3-3.4c0.7,0.7,1.1,2.2,1.1,3.7c-0.2-1.1-1.2-2.8-3-2.9
	c0.8,0.8,1,2.4,1.2,3.8c-0.2-1.2-1.5-2.6-2.9-2.7c0.6,0.5,1.1,2.2,1.2,3.6c-0.2-0.6-1.1-1.9-2.7-2.1c0.8,0.7,1.1,2.5,1.3,3.9
	 M144.3,106.3c-0.4-1.9-2.1-3.9-3.9-3.7c0.9,0.6,1.5,2.8,1.8,4.2c-0.6-1.6-2-3.3-3.8-3.1c0.9,0.8,1.5,2.9,1.8,4.4
	c-0.9-1.8-2.1-3.1-3.8-2.9c1.1,1.1,1.6,3,1.8,4.5c-0.6-1.2-1.8-2.8-3.6-2.6c1.1,1,1.5,3.1,1.9,4.6c-0.7-0.9-1.7-2.2-3.4-2.1
	c1.1,1,1.6,3.1,2,4.6 M149.8,173.9c-1.8-1.1-4.4-0.7-5.5,0.8c1.3-0.2,3.2,0.5,4,1.1c-1.2-0.8-3.8-0.3-4.8,1.1
	c1.2-0.3,3.1,0.5,4.1,1.1c-1.3-0.4-3.4-0.3-4.6,1.2c1.1-0.2,2.8,0.3,4,1c-1.6-0.4-3.2,0.2-4.1,1.3c1.4-0.3,3,0.5,4,1
	c-1.8,0-2.9,0.7-3.6,1.5c1.2-0.2,3,0.4,4.3,1.1 M197.9,185.3c-2.4-0.3-4.4,1.1-4.9,2.8c0.7-0.5,2.7-0.8,4.1-0.4
	c-1.9-0.1-3.7,1.4-4.1,2.8c0.8-0.6,3.2-0.8,4.1-0.4c-1.7,0.1-3.3,1.3-3.8,2.8c0.8-0.5,3-0.7,4.3-0.4c-1.8,0.3-3.1,1.6-3.6,2.8
	c1.1-0.7,2.6-0.7,4.4-0.6c-1.9,0.7-2.5,1.5-3.1,2.7c1-0.7,2.9-0.7,4.7-0.6"/>
<path d="M185.5,58.4l-8.4,0.3c-0.4,0-0.7,0.2-0.7,0.7c0,3,0.6,5,2.8,6.6c-0.3,1.7-0.1,2.6,1.7,4c0.2-1.4,0.7-2,1.6-2.6
	c0.1,0,0.1,0,0.2,0.1c-0.1,0.6-0.1,1.3,0,1.7c0.3,1,2,1,2.5,0.3c0.4,1,1.3,1,2,1c0.7,0,1.1-0.5,1.3-1c0.4,0.3,0.8,0.7,1.2,1.2
	c1.2,1.7,1.4,3.8,1.4,5.8l-1.1,0.1v-0.8c0-1.2-2.8-1.4-3.4-0.4c-0.7-0.8-2.8-0.6-2.8,0.6v0.4c-0.5-0.6-0.9-1.3-1.2-1.9
	c-0.9,0.6-1.4,1-1.2,2.9c-0.4,0-0.8,0.1-1.1,0.1c0,2.3,1,2.9,9.2,2.7c0.2,2.3-2.1,3.6-3.8,4.6c-4.4,2.5-9.1,5.3-11.6,9.9
	c-2.1,3.7-2.6,8-2.4,12.2l2.4-1.1l0.3,1.3c-4.4,2.1-12.3,6.3-17.5,8.7c-1.3,0.6-4.6,1.4-5.3,0.2c-2.4-4.1-4.3-7.2-7.1-10.4
	c-1.4-1.6-10.8,6.2-9.1,8.8c3.9,6,10.4,14.6,21.1,14.6c11.1,0.1,20.7-4,22.8-4.6l0.4,1.4c-1.4,0.6-2.7,1.1-4.1,1.6
	c1.9,7.6,4.2,10.6,9.4,15.2l-1.1,0.8c-0.9-0.6-2.5-2.3-3.4-3.1c-11.1,5.3-15.2,10.5-17.9,15.9c-2.9,6.5-2.4,14-1.1,20.8
	c0.2,1.1-1,1.7-1.9,1.3c-2.6-0.6-4-3.1-6.4-4.1c-1.1-0.5-2.6-1-3.8-0.8c-2,0.3-4.1,10.3-2.1,11.3c3.7,1.8,7.8,2.2,12,4.4
	c2.7,1.1,5.4,2.9,8.5,2.4c1.8-0.2,3.5-1.4,3.7-3.2c1.6-6.7,3.7-13.8,8.8-18.7c2.5-2.4,5.6-4.4,8.8-5.8c-1.2-4.8-2.2-9.5-2.1-14.5
	l1.5-0.1c1.1,18.9,6.2,22.9,15,31.7c0.9,0.9,0.8,2.6-0.5,3.1c-1.7,0.9-3.8,0.9-5.7,1c-2.1,0.1-0.5,11.8,2.6,11.7
	c5.5-0.2,11.1-4.4,14.4-8.6c1.4-1.7,3-3.5,4.4-5.2c1.6-2.1-0.1-4.6-0.6-6.5c-1.3-5.5-2-21.4-2-23.6l1.9,0l0.3-4
	c-5.8-7.2-4.8-18.4-7.2-25.6c-0.9-2.9-2-6-2-9.1c0-4.2,4.8-12.1,4.7-19.2c0-3-1.7-6.8-1.7-8.6c0-5.1,3-4,2.9-14.7
	c0-2.9-0.4-5.1-1.1-8.1c5.2-5.4-1.9-10.9-6-7.5c-3.3-0.9-3.7-1.7-10.1-1.7C192.1,54.6,188.9,56.1,185.5,58.4 M175.5,90.1
	c-3.6,4.5-5.7,6.7-5.5,17.5c-34.3-19.6-24.2-22.4-31.7-34c-1.2-1.8,6.5-6.1,8.9-4.3c4.9,3.6,3.1,10.4,7.1,13.4
	C158.3,85.8,165.4,87.1,175.5,90.1 M196.4,65c-0.5,0-1.5-0.3-1.7-0.7c-3-4.6-3.8-2.9-4.2-1.3c-0.4,1.4-2,1.5-1.6-0.4
	c1.2-4.7,4.5-4,8.6,2.5 M206.3,60.3c0.8-1.1,2.1-2.2,3.5-2.6c2-0.7,2.9,1,1.2,1.5c-1.3,0.6-2.5,1.4-3.5,2.4 M179.5,66.3
	c0.5,0.3,1.2,0.7,2.3,1c-0.6,0.5-1.1,1.2-1.3,1.9C179.6,68.5,179.2,67.3,179.5,66.3 M185,68.1c0,0.4-0.1,0.9-0.2,1.1
	c-0.3,0.6-1.6,0.5-1.9-0.2c-0.1-0.3-0.1-0.9,0-1.4C183.6,67.8,184.4,67.9,185,68.1 M185.5,68.2c0.9,0.3,1.8,0.6,2.6,1.1
	c-0.2,0.4-0.5,0.8-1.1,0.8c-0.6,0-1.2,0-1.5-0.7C185.3,69.1,185.4,68.6,185.5,68.2 M181.6,77.4c-0.1-1,0-1.8,0.8-2.4
	c0.4,0.7,0.8,1.3,1.3,1.9v0.2 M183.9,77.2v-1.1c0-1.1,2.4-1.1,2.5,0v0.9 M186.7,76.9v-1c0-1.1,2.8-1.1,2.8,0v0.8"/>
</svg>
