<?xml version="1.0" encoding="utf-8"?>
<!-- Generator: Adobe Illustrator 23.1.1, SVG Export Plug-In . SVG Version: 6.00 Build 0)  -->
<svg version="1.1" id="Layer_1" xmlns="http://www.w3.org/2000/svg" xmlns:xlink="http://www.w3.org/1999/xlink" x="0px" y="0px"
	 viewBox="0 0 420 186.7" style="enable-background:new 0 0 420 186.7;" xml:space="preserve">
<style type="text/css">
	.st0{fill:#FFFFFF;}
	.st1{fill:#FF0000;}
	.st2{fill:#B3DDF2;}
</style>
<path class="st0" d="M0-46.7h420v280H0V-46.7z"/>
<path class="st1" d="M87.5,58.3l6.4,23.9l23.9-6.4l-17.5,17.5l17.5,17.5l-23.9-6.4l-6.4,23.9l-6.4-23.9l-23.9,6.4l17.5-17.5
	L57.2,75.8l23.9,6.4L87.5,58.3z M169.2,58.3l6.4,23.9l23.9-6.4L182,93.3l17.5,17.5l-23.9-6.4l-6.4,23.9l-6.4-23.9l-23.9,6.4
	l17.5-17.5l-17.5-17.5l23.9,6.4L169.2,58.3z M250.8,58.3l6.4,23.9l23.9-6.4l-17.5,17.5l17.5,17.5l-23.9-6.4l-6.4,23.9l-6.4-23.9
	l-23.9,6.4L238,93.3l-17.5-17.5l23.9,6.4L250.8,58.3z M332.5,58.3l6.4,23.9l23.9-6.4l-17.5,17.5l17.5,17.5l-23.9-6.4l-6.4,23.9
	l-6.4-23.9l-23.9,6.4l17.5-17.5l-17.5-17.5l23.9,6.4L332.5,58.3z"/>
<path class="st2" d="M0,0h420v46.7H0V140h420v46.7H0V0z"/>
</svg>
