<?xml version="1.0" encoding="utf-8"?>
<!-- Generator: Adobe Illustrator 23.1.1, SVG Export Plug-In . SVG Version: 6.00 Build 0)  -->
<svg version="1.1" id="hong-kong" xmlns="http://www.w3.org/2000/svg" xmlns:xlink="http://www.w3.org/1999/xlink" x="0px" y="0px"
	 viewBox="0 0 420 280" style="enable-background:new 0 0 420 280;" xml:space="preserve">
<style type="text/css">
	.st0{fill:#DE2910;}
	.st1{fill:#FFFFFF;}
</style>
<rect class="st0" width="420" height="280"/>
<g id="petal">
	<path class="st1" d="M210,140c-49.1-20.8-27.3-84.7,19.6-81.5c-9.5,4.9-10.9,14-5.5,22.4c6.1,9.5-0.6,24.7-8.8,28.4
		C201.9,115.3,199.2,131.5,210,140L210,140z"/>
	<path class="st0" d="M207.3,93.8l-2.8,4.3l-1-5l-5-1.3l4.5-2.5l-0.3-5.1l3.8,3.5l4.8-1.9l-2.2,4.7l3.3,4L207.3,93.8z"/>
	<path class="st0" d="M210.3,139.4c-5.9-3-10.7-9.4-12.8-17c-2.4-8.7-1-18.1,3.8-25.7l-1-0.7c-5,7.9-6.4,17.6-3.9,26.7
		c2.2,8,7.1,14.5,13.4,17.8L210.3,139.4z"/>
</g>
<g transform="rotate(72 450,300)">
	<g>
		<path class="st1" d="M210,140c4.6-53.1,72.1-52.2,83.6-6.5c-7.6-7.5-16.7-6-23,1.7c-7.1,8.7-23.6,7.1-29.7,0.4
			C231,124.7,214.7,127.1,210,140L210,140z"/>
		<path class="st0" d="M253.1,123.2l-5-1.3l4.5-2.5l-0.3-5.1l3.8,3.5l4.8-1.9l-2.2,4.7l3.3,4l-5.1-0.6l-2.8,4.3L253.1,123.2z"/>
		<path class="st0" d="M210.6,140.1c1.1-6.6,5.6-13.1,12.2-17.4c7.5-5,16.9-6.6,25.6-4.3l0.3-1.2c-9-2.3-18.7-0.6-26.6,4.5
			c-7,4.6-11.6,11.2-12.7,18.3L210.6,140.1z"/>
	</g>
</g>
<g transform="rotate(144 450,300)">
	<g>
		<path class="st1" d="M210,140c51.9-12.1,71.9,52.5,32,77.5c4.8-9.5,0.6-17.7-8.8-21.4c-10.5-4.1-14-20.3-9.6-28.1
			C231.1,155.2,223.7,140.5,210,140L210,140z"/>
		<path class="st0" d="M239.3,175.8l-0.3-5.1l3.8,3.5l4.8-1.9l-2.2,4.7l3.3,4l-5.1-0.6l-2.8,4.3l-1-5l-5-1.3L239.3,175.8z"/>
		<path class="st0" d="M210.1,140.6c6.6-1,14.2,1.3,20.4,6.2c7.1,5.6,11.4,14,12,23l1.2-0.1c-0.6-9.3-5.2-18-12.5-23.9
			c-6.5-5.2-14.3-7.6-21.3-6.5L210.1,140.6z"/>
	</g>
</g>
<g transform="rotate(216 450,300)">
	<g>
		<path class="st1" d="M210,140c27.5,45.7-27.7,84.6-63.8,54.4c10.6,1.6,17-4.9,17.6-15c0.6-11.2,14.9-19.6,23.8-17.8
			C202.1,164.7,213.8,153.2,210,140L210,140z"/>
		<path class="st0" d="M185,179l4.8-1.9l-2.2,4.7l3.3,4l-5.1-0.6l-2.8,4.3l-1-5l-5-1.3l4.5-2.5l-0.3-5.1L185,179z"/>
		<path class="st0" d="M209.4,140.3c3,6,3.2,13.9,0.4,21.3c-3.2,8.5-9.8,15.2-18.1,18.6l0.5,1.1c8.7-3.5,15.5-10.5,18.8-19.3
			c2.9-7.8,2.8-15.9-0.4-22.3L209.4,140.3z"/>
	</g>
</g>
<g transform="rotate(288 450,300)">
	<g>
		<path class="st1" d="M210,140c-34.9,40.3-89-0.2-71.5-43.9c1.7,10.5,10,14.7,19.7,12.1c10.9-2.9,23.3,8.2,24.3,17.1
			C184,140.1,198.6,147.7,210,140L210,140z"/>
		<path class="st0" d="M165.2,128.3l3.3,4l-5.1-0.6l-2.8,4.3l-1-5l-5-1.3l4.5-2.5l-0.3-5.1l3.8,3.5l4.8-1.9L165.2,128.3z"/>
		<path class="st0" d="M209.5,139.6c-4.7,4.7-12.3,7.3-20.1,6.9c-9-0.4-17.5-4.6-23.3-11.5l-0.9,0.8c6,7.2,14.8,11.5,24.1,12
			c8.3,0.4,16-2.3,21-7.3L209.5,139.6z"/>
	</g>
</g>
</svg>
