<?xml version="1.0" encoding="utf-8"?>
<!-- Generator: Adobe Illustrator 23.1.1, SVG Export Plug-In . SVG Version: 6.00 Build 0)  -->
<svg version="1.1" id="london" xmlns="http://www.w3.org/2000/svg" xmlns:xlink="http://www.w3.org/1999/xlink" x="0px" y="0px"
	 viewBox="0 0 420 252" style="enable-background:new 0 0 420 252;" xml:space="preserve">
<style type="text/css">
	.st0{fill:#FFFFFF;}
	.st1{fill:#CF142B;}
	.st2{fill:#CF142B;stroke:#000000;stroke-width:0.168;stroke-miterlimit:4.9251;}
	.st3{fill:#CF142B;stroke:#000000;stroke-width:0.1364;}
</style>
<rect class="st0" width="420" height="252"/>
<rect y="100.8" class="st1" width="420" height="50.4"/>
<rect x="184.8" class="st1" width="50.4" height="252"/>
<g transform="translate(7.524966,3.639429) scale(1.231285)">
	<g transform="translate(-.1261)">
		<path id="path5748" class="st2" d="M66.4,58.3c0-1.4,0.4-1.7,2.9-2.6c2.1-0.8,2.4-0.3,2.4,1.1c0,1.3,0.1,1.5-2.3,2.5
			C66.5,60.4,66.4,59.7,66.4,58.3z"/>
		<g>
			<path class="st2" d="M66.4,61.5c0-1.4,0.4-1.7,2.9-2.6c2.1-0.8,2.4-0.3,2.4,1.1c0,1.3,0.1,1.5-2.3,2.5
				C66.5,63.6,66.4,62.9,66.4,61.5z"/>
		</g>
		<g>
			<path class="st2" d="M66.4,64.6c0-1.4,0.4-1.7,2.9-2.6c2.1-0.8,2.4-0.3,2.4,1.1c0,1.3,0.1,1.5-2.3,2.5
				C66.5,66.7,66.4,66.1,66.4,64.6z"/>
		</g>
		<g>
			<path class="st2" d="M66.4,67.8c0-1.4,0.4-1.7,2.9-2.6c2.1-0.8,2.4-0.3,2.4,1.1c0,1.3,0.1,1.5-2.3,2.5
				C66.5,69.9,66.4,69.2,66.4,67.8z"/>
		</g>
		<path class="st2" d="M66.7,70.7c0-1.4,0.1-1.4,2.6-2.4c2.1-0.8,2.4-0.3,2.4,1.1C71.7,70.7,70,70.7,66.7,70.7z"/>
	</g>
	<path class="st2" d="M69,3.7l0,52.3h2.6V6.3L69,3.7z"/>
	<g transform="matrix(-1,0,0,-1,166.4522,133.8457)">
		<path id="path2229" class="st2" d="M79,60.3c1.6-0.1,2.9-1.4,2.9-3c0-1.6-1.3-3-3-3H69v2.8h6.9c0,0.1,0,0.1,0,0.2c0,1.6,1.3,3,3,3
			C78.9,60.3,78.9,60.3,79,60.3z"/>
	</g>
	<path class="st2" d="M68.9,3.7l-2.6,2.6v49.7h2.6L68.9,3.7z"/>
	<path class="st2" d="M58.9,51.2c-1.6,0.1-2.9,1.4-2.9,3c0,1.6,1.3,3,3,3h9.9v-2.8H62c0-0.1,0-0.1,0-0.2c0-1.6-1.3-3-3-3
		C58.9,51.2,58.9,51.2,58.9,51.2z"/>
	<path id="path16321" class="st2" d="M61.9,54.4C61.1,56,60.2,56,60.2,56"/>
	<g transform="matrix(-1,0,0,-1,166.391,133.8852)">
		<path class="st2" d="M75.9,57.1c0.8-1.6,1.7-1.6,1.7-1.6"/>
	</g>
	<path class="st2" d="M71.6,69.6c0,1.5-1.2,2.7-2.7,2.7c-1.5,0-2.7-1.2-2.7-2.7C66.2,68.1,71.6,68.1,71.6,69.6z"/>
	<rect x="66.1" y="68.3" class="st2" width="5.7" height="2.1"/>
	<path class="st3" d="M72.8,55.6c0,1.3-1.8,2.4-3.9,2.4c-2.2,0-3.9-1.1-3.9-2.4c0-1.3,1.8-2.4,3.9-2.4
		C71.1,53.3,72.8,54.3,72.8,55.6z"/>
	<path id="path13678" class="st2" d="M71.6,53.8c-3.6,0.8-5.8,3.2-5.8,3.2l0.8,0.4c2.3-2.5,5.7-3.1,5.7-3.1L71.6,53.8z"/>
	<g transform="matrix(-1,0,0,1,166.4522,0)">
		<path class="st2" d="M66.3,53.8c3.6,0.8,5.8,3.2,5.8,3.2l-0.8,0.4c-2.3-2.5-5.7-3.1-5.7-3.1L66.3,53.8z"/>
	</g>
</g>
</svg>
