<?xml version="1.0" encoding="utf-8"?>
<!-- Generator: Adobe Illustrator 23.1.1, SVG Export Plug-In . SVG Version: 6.00 Build 0)  -->
<svg version="1.1"
	 id="los-angeles" image-rendering="optimizeQuality" text-rendering="geometricPrecision" shape-rendering="geometricPrecision"
	 xmlns="http://www.w3.org/2000/svg" xmlns:xlink="http://www.w3.org/1999/xlink" x="0px" y="0px" viewBox="0 0 420 280"
	 style="enable-background:new 0 0 420 280;" xml:space="preserve">
<style type="text/css">
	.st0{fill-rule:evenodd;clip-rule:evenodd;fill:#FFBB00;}
	.st1{fill-rule:evenodd;clip-rule:evenodd;fill:#00923F;}
	.st2{fill-rule:evenodd;clip-rule:evenodd;fill:#EE251D;}
	.st3{fill-rule:evenodd;clip-rule:evenodd;fill:#DFE1E5;stroke:#D22F2A;stroke-width:0.4968;stroke-miterlimit:10;}
	.st4{fill-rule:evenodd;clip-rule:evenodd;fill:#131516;}
	.st5{fill-rule:evenodd;clip-rule:evenodd;fill:#EEAA18;stroke:#131516;stroke-width:0.4065;stroke-miterlimit:10;}
	.st6{fill-rule:evenodd;clip-rule:evenodd;fill:#EEAA18;stroke:#131516;stroke-width:0.5296;stroke-miterlimit:10;}
	.st7{fill-rule:evenodd;clip-rule:evenodd;fill:#FFFFFF;stroke:#131516;stroke-width:0.4065;stroke-miterlimit:10;}
	.st8{fill-rule:evenodd;clip-rule:evenodd;fill:#D52C27;stroke:#D52C27;stroke-width:0.4065;stroke-miterlimit:10;}
	.st9{fill-rule:evenodd;clip-rule:evenodd;fill:#D52C27;}
	.st10{fill-rule:evenodd;clip-rule:evenodd;fill:#992F2F;stroke:#131516;stroke-width:0.4065;stroke-miterlimit:10;}
	.st11{fill-rule:evenodd;clip-rule:evenodd;fill:#978169;stroke:#131516;stroke-width:0.4065;stroke-miterlimit:10;}
	.st12{fill-rule:evenodd;clip-rule:evenodd;fill:#009544;stroke:#131516;stroke-width:0.4065;stroke-miterlimit:10;}
	.st13{fill-rule:evenodd;clip-rule:evenodd;fill:#322073;}
	.st14{fill:none;stroke:#131516;stroke-width:0.4065;stroke-miterlimit:10;}
	.st15{fill-rule:evenodd;clip-rule:evenodd;fill:#FFFFFF;}
	.st16{fill-rule:evenodd;clip-rule:evenodd;fill:#D52C27;stroke:#131516;stroke-width:0.4065;stroke-miterlimit:10;}
	.st17{fill-rule:evenodd;clip-rule:evenodd;fill:#FFFFFF;stroke:#131516;stroke-width:0.4229;stroke-miterlimit:10;}
	.st18{fill-rule:evenodd;clip-rule:evenodd;fill:#D52C27;stroke:#131516;stroke-width:0.4229;stroke-miterlimit:10;}
	.st19{fill:none;stroke:#131516;stroke-width:0.4229;stroke-linecap:round;stroke-miterlimit:10;}
	.st20{fill-rule:evenodd;clip-rule:evenodd;fill:url(#SVGID_1_);stroke:#131516;stroke-width:0.4065;stroke-miterlimit:10;}
	.st21{fill-rule:evenodd;clip-rule:evenodd;fill:url(#SVGID_2_);stroke:#131516;stroke-width:0.4065;stroke-miterlimit:10;}
	.st22{fill-rule:evenodd;clip-rule:evenodd;fill:url(#SVGID_3_);stroke:#131516;stroke-width:0.4065;stroke-miterlimit:10;}
	.st23{fill-rule:evenodd;clip-rule:evenodd;fill:url(#SVGID_4_);stroke:#131516;stroke-width:0.4065;stroke-miterlimit:10;}
	.st24{fill-rule:evenodd;clip-rule:evenodd;fill:url(#SVGID_5_);stroke:#131516;stroke-width:0.4065;stroke-miterlimit:10;}
	.st25{fill-rule:evenodd;clip-rule:evenodd;fill:url(#SVGID_6_);stroke:#131516;stroke-width:0.4065;stroke-miterlimit:10;}
	.st26{fill-rule:evenodd;clip-rule:evenodd;fill:url(#SVGID_7_);stroke:#131516;stroke-width:0.4065;stroke-miterlimit:10;}
	.st27{fill-rule:evenodd;clip-rule:evenodd;fill:url(#SVGID_8_);stroke:#131516;stroke-width:0.4065;stroke-miterlimit:10;}
	.st28{fill-rule:evenodd;clip-rule:evenodd;fill:url(#SVGID_9_);stroke:#131516;stroke-width:0.4065;stroke-miterlimit:10;}
	.st29{fill-rule:evenodd;clip-rule:evenodd;fill:url(#SVGID_10_);stroke:#131516;stroke-width:0.4065;stroke-miterlimit:10;}
	.st30{fill-rule:evenodd;clip-rule:evenodd;fill:url(#SVGID_11_);stroke:#131516;stroke-width:0.4065;stroke-miterlimit:10;}
	.st31{fill-rule:evenodd;clip-rule:evenodd;fill:url(#SVGID_12_);stroke:#131516;stroke-width:0.4065;stroke-miterlimit:10;}
	.st32{fill-rule:evenodd;clip-rule:evenodd;fill:url(#SVGID_13_);stroke:#131516;stroke-width:0.4065;stroke-miterlimit:10;}
	.st33{fill-rule:evenodd;clip-rule:evenodd;fill:url(#SVGID_14_);stroke:#131516;stroke-width:0.4065;stroke-miterlimit:10;}
	.st34{fill-rule:evenodd;clip-rule:evenodd;fill:url(#SVGID_15_);stroke:#131516;stroke-width:0.4065;stroke-miterlimit:10;}
	.st35{fill-rule:evenodd;clip-rule:evenodd;fill:url(#SVGID_16_);stroke:#131516;stroke-width:0.4065;stroke-miterlimit:10;}
	.st36{fill-rule:evenodd;clip-rule:evenodd;fill:url(#SVGID_17_);stroke:#131516;stroke-width:0.4065;stroke-miterlimit:10;}
	.st37{fill-rule:evenodd;clip-rule:evenodd;fill:url(#SVGID_18_);stroke:#131516;stroke-width:0.4065;stroke-miterlimit:10;}
	.st38{fill-rule:evenodd;clip-rule:evenodd;fill:url(#SVGID_19_);stroke:#131516;stroke-width:0.4065;stroke-miterlimit:10;}
	.st39{fill-rule:evenodd;clip-rule:evenodd;fill:url(#SVGID_20_);stroke:#131516;stroke-width:0.4065;stroke-miterlimit:10;}
	.st40{fill:none;stroke:#D52C27;stroke-width:0.4065;stroke-miterlimit:10;}
	.st41{fill-rule:evenodd;clip-rule:evenodd;fill:#897864;stroke:#131516;stroke-width:0.4065;stroke-miterlimit:10;}
	.st42{fill-rule:evenodd;clip-rule:evenodd;fill:#131516;stroke:#131516;stroke-width:0.4065;stroke-miterlimit:10;}
	.st43{fill:none;}
	.st44{fill-rule:evenodd;clip-rule:evenodd;fill:#F3E400;stroke:#131516;stroke-width:0.4065;stroke-miterlimit:10;}
	.st45{fill-rule:evenodd;clip-rule:evenodd;fill:#807239;}
	.st46{fill-rule:evenodd;clip-rule:evenodd;fill:#009544;}
	.st47{fill-rule:evenodd;clip-rule:evenodd;fill:#F3E400;}
</style>
<path class="st0" d="M0,0h420v280H0V0z"/>
<path class="st1" d="M0,0h120.1l28.8,31.1l-28.8,31.1l28.8,31.1l-28.8,31.1l28.8,31.1l-28.8,31.1l28.8,31.1l-28.8,31.1l28.8,31.1H0
	V0z"/>
<path class="st2" d="M271.9,0l28.8,31.1l-28.8,31.1l28.8,31.1l-28.8,31.1l28.8,31.1l-28.8,31.1l28.8,31.1l-28.8,31.1l28.8,31.1H420
	V0H271.9z"/>
<circle class="st3" cx="210" cy="140" r="49.9"/>
<path class="st4" d="M183.4,112.3c0-0.4-0.4-0.7-0.8-0.7c-0.4,0-0.7,0.4-0.7,0.8c0,0.4,0.4,0.7,0.8,0.7
	C183.2,113,183.5,112.7,183.4,112.3z"/>
<g>
	<circle class="st5" cx="210" cy="140" r="38.8"/>
	<g>
		<circle class="st6" cx="259.9" cy="140" r="1.7"/>
		<circle class="st6" cx="259.8" cy="143.3" r="1.7"/>
		<circle class="st6" cx="259.5" cy="146.6" r="1.7"/>
		<circle class="st6" cx="259" cy="149.8" r="1.7"/>
		<circle class="st6" cx="258.2" cy="153.1" r="1.7"/>
		<circle class="st6" cx="257.2" cy="156.2" r="1.7"/>
		<circle class="st6" cx="256.1" cy="159.3" r="1.7"/>
		<circle class="st6" cx="254.7" cy="162.3" r="1.7"/>
		<circle class="st6" cx="253.1" cy="165.2" r="1.7"/>
		<circle class="st6" cx="251.3" cy="168" r="1.7"/>
		<circle class="st6" cx="249.4" cy="170.7" r="1.7"/>
		<circle class="st6" cx="247.3" cy="173.2" r="1.7"/>
		<circle class="st6" cx="245" cy="175.6" r="1.7"/>
		<circle class="st6" cx="242.6" cy="177.8" r="1.7"/>
		<circle class="st6" cx="240" cy="179.9" r="1.7"/>
		<circle class="st6" cx="237.3" cy="181.8" r="1.7"/>
		<circle class="st6" cx="234.5" cy="183.5" r="1.7"/>
		<circle class="st6" cx="231.5" cy="185.1" r="1.7"/>
		<circle class="st6" cx="228.5" cy="186.4" r="1.7"/>
		<circle class="st6" cx="225.4" cy="187.5" r="1.7"/>
		<circle class="st6" cx="222.3" cy="188.4" r="1.7"/>
		<circle class="st6" cx="219" cy="189.1" r="1.7"/>
		<circle class="st6" cx="215.8" cy="189.6" r="1.7"/>
		<circle class="st6" cx="212.5" cy="189.9" r="1.7"/>
		<circle class="st6" cx="209.2" cy="189.9" r="1.7"/>
		<circle class="st6" cx="205.9" cy="189.8" r="1.7"/>
		<circle class="st6" cx="202.6" cy="189.4" r="1.7"/>
		<circle class="st6" cx="199.3" cy="188.8" r="1.7"/>
		<circle class="st6" cx="196.1" cy="188" r="1.7"/>
		<circle class="st6" cx="193" cy="187" r="1.7"/>
		<circle class="st6" cx="189.9" cy="185.7" r="1.7"/>
		<circle class="st6" cx="186.9" cy="184.3" r="1.7"/>
		<circle class="st6" cx="184.1" cy="182.7" r="1.7"/>
		<circle class="st6" cx="181.3" cy="180.9" r="1.7"/>
		<circle class="st6" cx="178.7" cy="178.9" r="1.7"/>
		<circle class="st6" cx="176.2" cy="176.7" r="1.7"/>
		<circle class="st6" cx="173.8" cy="174.4" r="1.7"/>
		<circle class="st6" cx="171.6" cy="172" r="1.7"/>
		<circle class="st6" cx="169.6" cy="169.4" r="1.7"/>
		<circle class="st6" cx="167.7" cy="166.6" r="1.7"/>
		<circle class="st6" cx="166" cy="163.8" r="1.7"/>
		<circle class="st6" cx="164.6" cy="160.8" r="1.7"/>
		<circle class="st6" cx="163.3" cy="157.8" r="1.7"/>
		<circle class="st6" cx="162.2" cy="154.7" r="1.7"/>
		<circle class="st6" cx="161.4" cy="151.5" r="1.7"/>
		<circle class="st6" cx="160.7" cy="148.2" r="1.7"/>
		<circle class="st6" cx="160.3" cy="145" r="1.7"/>
		<circle class="st6" cx="160.1" cy="141.6" r="1.7"/>
		<circle class="st6" cx="160.1" cy="138.4" r="1.7"/>
		<circle class="st6" cx="160.3" cy="135" r="1.7"/>
		<circle class="st6" cx="160.7" cy="131.8" r="1.7"/>
		<circle class="st6" cx="161.4" cy="128.5" r="1.7"/>
		<circle class="st6" cx="162.2" cy="125.3" r="1.7"/>
		<circle class="st6" cx="163.3" cy="122.2" r="1.7"/>
		<circle class="st6" cx="164.6" cy="119.2" r="1.7"/>
		<circle class="st6" cx="166" cy="116.2" r="1.7"/>
		<circle class="st6" cx="167.7" cy="113.4" r="1.7"/>
		<circle class="st6" cx="169.6" cy="110.6" r="1.7"/>
		<circle class="st6" cx="171.6" cy="108" r="1.7"/>
		<circle class="st6" cx="173.8" cy="105.6" r="1.7"/>
		<circle class="st6" cx="176.2" cy="103.3" r="1.7"/>
		<circle class="st6" cx="178.7" cy="101.1" r="1.7"/>
		<circle class="st6" cx="181.3" cy="99.1" r="1.7"/>
		<circle class="st6" cx="184.1" cy="97.3" r="1.7"/>
		<circle class="st6" cx="186.9" cy="95.7" r="1.7"/>
		<circle class="st6" cx="189.9" cy="94.3" r="1.7"/>
		<circle class="st6" cx="193" cy="93" r="1.7"/>
		<circle class="st6" cx="196.1" cy="92" r="1.7"/>
		<circle class="st6" cx="199.3" cy="91.2" r="1.7"/>
		<circle class="st6" cx="202.6" cy="90.6" r="1.7"/>
		<circle class="st6" cx="205.9" cy="90.2" r="1.7"/>
		<circle class="st6" cx="209.2" cy="90.1" r="1.7"/>
		<circle class="st6" cx="212.5" cy="90.1" r="1.7"/>
		<circle class="st6" cx="215.8" cy="90.4" r="1.7"/>
		<circle class="st6" cx="219" cy="90.9" r="1.7"/>
		<circle class="st6" cx="222.3" cy="91.6" r="1.7"/>
		<circle class="st6" cx="225.4" cy="92.5" r="1.7"/>
		<circle class="st6" cx="228.5" cy="93.6" r="1.7"/>
		<circle class="st6" cx="231.5" cy="94.9" r="1.7"/>
		<circle class="st6" cx="234.5" cy="96.5" r="1.7"/>
		<circle class="st6" cx="237.3" cy="98.2" r="1.7"/>
		<circle class="st6" cx="240" cy="100.1" r="1.7"/>
		<circle class="st6" cx="242.6" cy="102.2" r="1.7"/>
		<circle class="st6" cx="245" cy="104.4" r="1.7"/>
		<circle class="st6" cx="247.3" cy="106.8" r="1.7"/>
		<circle class="st6" cx="249.4" cy="109.3" r="1.7"/>
		<circle class="st6" cx="251.3" cy="112" r="1.7"/>
		<circle class="st6" cx="253.1" cy="114.8" r="1.7"/>
		<circle class="st6" cx="254.7" cy="117.7" r="1.7"/>
		<circle class="st6" cx="256.1" cy="120.7" r="1.7"/>
		<circle class="st6" cx="257.2" cy="123.8" r="1.7"/>
		<circle class="st6" cx="258.2" cy="126.9" r="1.7"/>
		<circle class="st6" cx="259" cy="130.2" r="1.7"/>
		<circle class="st6" cx="259.5" cy="133.4" r="1.7"/>
		<circle class="st6" cx="259.8" cy="136.7" r="1.7"/>
	</g>
</g>
<path class="st4" d="M238.4,112.6c0-0.4-0.4-0.7-0.8-0.7c-0.4,0-0.7,0.4-0.7,0.8c0,0.4,0.4,0.7,0.8,0.6
	C238.1,113.4,238.4,113,238.4,112.6z"/>
<circle class="st6" cx="259.9" cy="140" r="1.7"/>
<path class="st7" d="M181.7,111.9v47.2c3,13.5,22.4,11.7,28.3,17.8c5.9-6.1,25.3-4.3,28.3-17.8v-47.2H181.7z"/>
<path class="st8" d="M210,140h12.9v31.5c-5.5,1.2-10.1,2.5-12.9,5.3V140z"/>
<path class="st9" d="M210,133.6h28.3v6.4H210V133.6z"/>
<g>
	<path class="st10" d="M229.1,149.8c-0.6,0.1-1.2-0.2-1.7-0.8c0.9-0.2,1.8,0,2.7,0.1C230.4,149.8,230.3,150.2,229.1,149.8z"/>
	<path class="st11" d="M219,146.1h0.6v0.3H219V146.1z"/>
	<path class="st12" d="M192.6,160.5c-0.6,0-1.1-0.3-1.6-0.8c-0.2-0.4,0.1-0.7,0.7-0.8c0.8,0.4,1.5,0.4,2.2,0.4
		c0.7-0.1,1.4,0.3,2,0.5C194.8,160.3,193.7,160.5,192.6,160.5z"/>
	<g>
		<path class="st11" d="M219.7,146.1h0.6v0.3h-0.6V146.1z"/>
		<path class="st11" d="M213.4,146.1h0.6v0.3h-0.6V146.1z"/>
		<path class="st11" d="M214.2,146h0.6v0.3h-0.6V146z"/>
		<path class="st11" d="M215.8,145.2h0.8v0.4h-0.8V145.2z"/>
		<path class="st11" d="M217,145.2h0.8v0.4H217V145.2z"/>
		<path class="st11" d="M212.8,161.8l0-3.3l1.1-0.9v-7.2h5.9v7.2l1.1,0.9v3.3l-2.4-0.6c0.3-5.8-3.4-6.7-3.4,0.1L212.8,161.8z"/>
	</g>
</g>
<g>
	<path class="st9" d="M184.3,119.9h2.3V140h-2.3V119.9z"/>
	<path class="st9" d="M188.5,119.9h2.3V140h-2.3V119.9z"/>
	<path class="st9" d="M192.7,119.9h2.3V140h-2.3V119.9z"/>
	<path class="st9" d="M196.9,119.9h2.3V140h-2.3V119.9z"/>
	<path class="st9" d="M201.2,119.9h2.3V140h-2.3V119.9z"/>
	<path class="st9" d="M205.5,119.9h2.3V140h-2.3V119.9z"/>
</g>
<path class="st13" d="M181.7,111.9H210v8.2h-28.3V111.9z"/>
<path class="st14" d="M181.7,140h56.6"/>
<path class="st14" d="M210,111.9v64.9"/>
<g>
	<path class="st15" d="M197.8,113.1l0.4,1.2h1.2l-1,0.7l0.4,1.2l-1-0.7l-1,0.7l0.4-1.2l-1-0.7h1.2L197.8,113.1z"/>
	<path class="st15" d="M194.3,113.1l0.4,1.2h1.2l-1,0.7l0.4,1.2l-1-0.7l-1,0.7l0.4-1.2l-1-0.7h1.2L194.3,113.1L194.3,113.1z"/>
	<path class="st15" d="M191,113.1l0.4,1.2h1.2l-1,0.7l0.4,1.2l-1-0.7l-1,0.7l0.4-1.2l-1-0.7h1.2L191,113.1z"/>
	<path class="st15" d="M187.6,113.1l0.4,1.2h1.2l-1,0.7l0.4,1.2l-1-0.7l-1,0.7l0.4-1.2l-1-0.7h1.2L187.6,113.1z"/>
	<path class="st15" d="M201,113.1l0.4,1.2h1.2l-1,0.7l0.4,1.2l-1-0.7l-1,0.7l0.4-1.2l-1-0.7h1.2L201,113.1z"/>
	<path class="st15" d="M204.5,113.1l0.4,1.2h1.2l-1,0.7l0.4,1.2l-1-0.7l-1,0.7l0.4-1.2l-1-0.7h1.2L204.5,113.1z"/>
	<path class="st15" d="M199.4,115.6l0.4,1.2h1.2l-1,0.7l0.4,1.2l-1-0.7l-1,0.7l0.4-1.2l-1-0.7h1.2L199.4,115.6z"/>
	<path class="st15" d="M196,115.6l0.4,1.2h1.2l-1,0.7l0.4,1.2l-1-0.7l-1,0.7l0.4-1.2l-1-0.7h1.2L196,115.6z"/>
	<path class="st15" d="M192.6,115.6l0.4,1.2h1.2l-1,0.7l0.4,1.2l-1-0.7l-1,0.7l0.4-1.2l-1-0.7h1.2L192.6,115.6z"/>
	<path class="st15" d="M189.2,115.6l0.4,1.2h1.2l-1,0.7l0.4,1.2l-1-0.7l-1,0.7l0.4-1.2l-1-0.7h1.2L189.2,115.6z"/>
	<path class="st15" d="M202.7,115.6l0.4,1.2h1.2l-1,0.7l0.4,1.2l-1-0.7l-1,0.7l0.4-1.2l-1-0.7h1.2L202.7,115.6z"/>
	<path class="st15" d="M206.1,115.6l0.4,1.2h1.2l-1,0.7l0.4,1.2l-1-0.7l-1,0.7l0.4-1.2l-1-0.7h1.2L206.1,115.6z"/>
	<path class="st15" d="M185.7,115.6l0.4,1.2h1.2l-1,0.7l0.4,1.2l-1-0.7l-1,0.7l0.4-1.2l-1-0.7h1.2L185.7,115.6z"/>
</g>
<g>
	<path class="st16" d="M216.1,116.2l0.7,2.1h2.3l-1.8,1.3l0.7,2.1l-1.8-1.3l-1.8,1.3l0.7-2.1l-1.8-1.3h2.3L216.1,116.2z"/>
	<g>
		<ellipse class="st17" cx="219.2" cy="122.8" rx="0.4" ry="0.3"/>
		<path class="st18" d="M226.5,126c-0.3,0.9,0.2,2.1,0.1,3c-0.8,0-1.6,0-2.4,0c0.2-0.3,0.4-0.8,0.7-0.8c-0.1-0.6-1.1-1-1-1.5
			C224.7,126,225.5,125.8,226.5,126z"/>
		<path class="st18" d="M223.4,120.4c0.7,0.5,3.9,1,6,1.1c1.1,0.1,2.1,0.8,2.9,2c0.7,2.3,2.6,3.6,2.1,5.4c-0.7,0-1.5,0-2.2,0.1
			c-0.2-0.4,0.1-0.7,0.7-0.7c0.2-0.1,0.2-0.2,0-0.4c-0.7,0.1-1.4-0.2-2.1-0.8c-0.4,0.3-0.7,0.6-1.1,0.9c0.2,0.9,0,1.4-0.5,1.4
			c-0.7,0-1.4,0-2.1,0c0-0.5,0.4-0.9,1-1.1c-0.5-0.2-0.7-0.9-0.6-2.2c-0.8,0-1.7,0-2.5,0c-0.4,0.6-1,1.2-1.9,1.7
			c-0.4,0.3-0.7,0.8-1,1.4c-1,0-1.9,0.1-2.9,0.1c0.1-0.8,0.6-1.1,1.4-1.1c0-0.2,0.2-0.4,0.5-0.5c0.1-0.6,0.4-1.2,0.9-1.7
			c-0.3-0.1-0.7-0.2-1-0.4c-1.1-0.2-1.7,0-2.3,0.4c-0.4-0.2-0.7-0.5-1.1-0.7c-0.2-0.2-0.2-0.4,0-0.6c0.4-0.6,0.8-1.3,1.2-1.9
			C220.3,122.4,223,120.6,223.4,120.4z"/>
		<g>
			<path class="st19" d="M230.7,127.1c0.5-0.7,0.7-1.5,0.8-2.4"/>
			<path class="st19" d="M227.4,126.2c0.2-0.5,0.4-1.2,0.4-1.7"/>
			<path class="st19" d="M224.9,126.2c0.5-0.5,0.5-1.1,0.2-1.6"/>
			<path class="st19" d="M220.8,125.8c0.3-0.3,0.6-0.7,0.8-1.2"/>
			<path class="st19" d="M217.9,125.7c0.2-0.2,0.4-0.3,0.7-0.3"/>
			<path class="st19" d="M218.8,124.4l0.4-0.2"/>
		</g>
		<ellipse class="st17" cx="220.1" cy="122.5" rx="0.4" ry="0.3"/>
	</g>
	<g>
		<path class="st12" d="M178,147.9c-0.7,1.7-3.1,4.7-0.7,7.1c0.3-2,0.8-4,1.9-6C178.6,148.6,178.5,148.2,178,147.9z"/>
		<path class="st12" d="M177.6,126.2c-0.8,1.2-1.4,2.6-1.6,4.9c-3.4,5.5-2.1,9.3-1.5,13.4c1.9-2.5,1-7.7,1.9-12.4
			c-0.4,2.5-1,5.3,1,5.8c0.5-1.8-0.5-3.4-0.7-5.2c0.9,2.4,1.7,4.9,3.2,7.3c0.6-3-0.5-6-2-9.1c-0.5-1.6,0.3-2.7,0.9-4.4
			c0.6,0.2,1.3-1.9,1.2-2.9C178.7,124.4,178,125.2,177.6,126.2z"/>
		<path class="st14" d="M177,152c0.5-1.5,1-2.7,1.2-3.2"/>
		
			<linearGradient id="SVGID_1_" gradientUnits="userSpaceOnUse" x1="-16173.1924" y1="106.0765" x2="-16173.1924" y2="108.9915" gradientTransform="matrix(1.000000e-02 0 0 -1.000000e-02 109.395 42.4)">
			<stop  offset="0" style="stop-color:#009544"/>
			<stop  offset="1" style="stop-color:#7ABB30"/>
		</linearGradient>
		<ellipse class="st20" cx="178" cy="139.7" rx="1.5" ry="1.9"/>
		<path class="st12" d="M178.7,151.4c0.6-1.5,1-3.1,0.5-5.5c-0.5,0.3-1,0.6-1.5,0.8C177.8,148.2,178.2,149.8,178.7,151.4z"/>
		
			<linearGradient id="SVGID_2_" gradientUnits="userSpaceOnUse" x1="-16350.0371" y1="-72.1027" x2="-16350.0771" y2="-70.5349" gradientTransform="matrix(1.000000e-02 0 0 -1.000000e-02 109.395 42.4)">
			<stop  offset="0" style="stop-color:#322073"/>
			<stop  offset="1" style="stop-color:#9D487C"/>
		</linearGradient>
		<circle class="st21" cx="210" cy="110.3" r="0.8"/>
		
			<linearGradient id="SVGID_3_" gradientUnits="userSpaceOnUse" x1="-16411.1289" y1="-134.5078" x2="-16411.1875" y2="-132.7598" gradientTransform="matrix(1.000000e-02 0 0 -1.000000e-02 109.395 42.4)">
			<stop  offset="0" style="stop-color:#322073"/>
			<stop  offset="1" style="stop-color:#9D487C"/>
		</linearGradient>
		<ellipse class="st22" cx="212.2" cy="110.3" rx="0.9" ry="1"/>
		
			<linearGradient id="SVGID_4_" gradientUnits="userSpaceOnUse" x1="-16466.041" y1="-198.9613" x2="-16466.1172" y2="-197.1071" gradientTransform="matrix(1.000000e-02 0 0 -1.000000e-02 109.395 42.4)">
			<stop  offset="0" style="stop-color:#322073"/>
			<stop  offset="1" style="stop-color:#9D487C"/>
		</linearGradient>
		<ellipse class="st23" cx="208.4" cy="108.8" rx="0.9" ry="0.8"/>
		
			<linearGradient id="SVGID_5_" gradientUnits="userSpaceOnUse" x1="-16379.918" y1="-109.3889" x2="-16379.9697" y2="-107.6407" gradientTransform="matrix(1.000000e-02 0 0 -1.000000e-02 109.395 42.4)">
			<stop  offset="0" style="stop-color:#322073"/>
			<stop  offset="1" style="stop-color:#9D487C"/>
		</linearGradient>
		<circle class="st24" cx="207.6" cy="107.1" r="0.9"/>
		
			<linearGradient id="SVGID_6_" gradientUnits="userSpaceOnUse" x1="-16410.2695" y1="-136.8234" x2="-16410.3223" y2="-135.256" gradientTransform="matrix(1.000000e-02 0 0 -1.000000e-02 109.395 42.4)">
			<stop  offset="0" style="stop-color:#322073"/>
			<stop  offset="1" style="stop-color:#9D487C"/>
		</linearGradient>
		<ellipse class="st25" cx="211.6" cy="107.7" rx="0.8" ry="0.8"/>
		
			<linearGradient id="SVGID_7_" gradientUnits="userSpaceOnUse" x1="-16437.3281" y1="-169.8122" x2="-16437.3789" y2="-168.4173" gradientTransform="matrix(1.000000e-02 0 0 -1.000000e-02 109.395 42.4)">
			<stop  offset="0" style="stop-color:#322073"/>
			<stop  offset="1" style="stop-color:#9D487C"/>
		</linearGradient>
		<circle class="st26" cx="208.9" cy="106.3" r="0.7"/>
		
			<linearGradient id="SVGID_8_" gradientUnits="userSpaceOnUse" x1="-16425.0508" y1="-153.3075" x2="-16425.1191" y2="-151.3873" gradientTransform="matrix(1.000000e-02 0 0 -1.000000e-02 109.395 42.4)">
			<stop  offset="0" style="stop-color:#322073"/>
			<stop  offset="1" style="stop-color:#9D487C"/>
		</linearGradient>
		<circle class="st27" cx="210.3" cy="108.5" r="1"/>
		
			<linearGradient id="SVGID_9_" gradientUnits="userSpaceOnUse" x1="-16406.002" y1="-134.9863" x2="-16406.0547" y2="-133.4188" gradientTransform="matrix(1.000000e-02 0 0 -1.000000e-02 109.395 42.4)">
			<stop  offset="0" style="stop-color:#322073"/>
			<stop  offset="1" style="stop-color:#9D487C"/>
		</linearGradient>
		<circle class="st28" cx="209.1" cy="107.5" r="0.8"/>
		
			<linearGradient id="SVGID_10_" gradientUnits="userSpaceOnUse" x1="-16381.54" y1="-104.5534" x2="-16381.5918" y2="-102.8052" gradientTransform="matrix(1.000000e-02 0 0 -1.000000e-02 109.395 42.4)">
			<stop  offset="0" style="stop-color:#322073"/>
			<stop  offset="1" style="stop-color:#9D487C"/>
		</linearGradient>
		<circle class="st29" cx="212.5" cy="108.6" r="0.9"/>
		
			<linearGradient id="SVGID_11_" gradientUnits="userSpaceOnUse" x1="-16400.4785" y1="-125.0755" x2="-16400.5332" y2="-123.3275" gradientTransform="matrix(1.000000e-02 0 0 -1.000000e-02 109.395 42.4)">
			<stop  offset="0" style="stop-color:#322073"/>
			<stop  offset="1" style="stop-color:#9D487C"/>
		</linearGradient>
		<circle class="st30" cx="211.2" cy="109.4" r="0.9"/>
		
			<linearGradient id="SVGID_12_" gradientUnits="userSpaceOnUse" x1="-16344.7217" y1="-71.9671" x2="-16344.7617" y2="-70.3993" gradientTransform="matrix(1.000000e-02 0 0 -1.000000e-02 109.395 42.4)">
			<stop  offset="0" style="stop-color:#322073"/>
			<stop  offset="1" style="stop-color:#9D487C"/>
		</linearGradient>
		<circle class="st31" cx="210" cy="105" r="0.8"/>
		
			<linearGradient id="SVGID_13_" gradientUnits="userSpaceOnUse" x1="-16397.9316" y1="-125.8567" x2="-16397.9863" y2="-124.1087" gradientTransform="matrix(1.000000e-02 0 0 -1.000000e-02 109.395 42.4)">
			<stop  offset="0" style="stop-color:#322073"/>
			<stop  offset="1" style="stop-color:#9D487C"/>
		</linearGradient>
		<circle class="st32" cx="210.4" cy="106.9" r="0.9"/>
		
			<linearGradient id="SVGID_14_" gradientUnits="userSpaceOnUse" x1="-16431.7695" y1="-161.6741" x2="-16431.832" y2="-159.9263" gradientTransform="matrix(1.000000e-02 0 0 -1.000000e-02 109.395 42.4)">
			<stop  offset="0" style="stop-color:#322073"/>
			<stop  offset="1" style="stop-color:#9D487C"/>
		</linearGradient>
		<circle class="st33" cx="211.6" cy="106" r="0.9"/>
		
			<linearGradient id="SVGID_15_" gradientUnits="userSpaceOnUse" x1="-16178.0078" y1="106.5733" x2="-16178.0078" y2="109.3405" gradientTransform="matrix(1.000000e-02 0 0 -1.000000e-02 109.395 42.4)">
			<stop  offset="0" style="stop-color:#009544"/>
			<stop  offset="1" style="stop-color:#7ABB30"/>
		</linearGradient>
		<ellipse class="st34" cx="178.5" cy="144.5" rx="1.4" ry="2.2"/>
		
			<linearGradient id="SVGID_16_" gradientUnits="userSpaceOnUse" x1="-16405.7832" y1="-131.9582" x2="-16405.8516" y2="-129.8573" gradientTransform="matrix(1.000000e-02 0 0 -1.000000e-02 109.395 42.4)">
			<stop  offset="0" style="stop-color:#322073"/>
			<stop  offset="1" style="stop-color:#9D487C"/>
		</linearGradient>
		<ellipse class="st35" cx="213.1" cy="106.6" rx="1.1" ry="1"/>
		<g>
			<path class="st12" d="M217.1,105.7c0-1.8,1.6-1.1,3.2-1.2c0,1.3-0.2,2.4-1.3,2.6c0.4,0.7,0.8,1.2,1.3,1.4
				c-0.4,0.2-0.7,0.4-1.1,0.3c-0.3,0.6-0.3,1.2-0.1,1.8c-0.9,0.1-1.6-0.4-2.2-1.5c-0.6,0.4-1.2,0.5-1.8,0.5c-0.2-0.8,0-1.6,0.5-2.4
				c-0.7,0.1-1.4-0.1-2.1-0.9C215,104.8,216.1,104.1,217.1,105.7z"/>
			<path class="st12" d="M204.8,106.7c0.8-1.7,1.8-3.1,4-3c1.3,1.4,0,2.3-1.5,3.3c-0.4,1.1-0.9,2-2.2,1.1c-0.3,1.6-1.8,1.7-3,2.3
				c0.2-1,0.6-1.9,1.8-2.6c-0.5,0-1-0.1-1.7-0.8c0.6-0.3,1.1-0.6,1.7-1c-1.3-0.2-1.3-1.2-0.5-2.6c1-0.4,1.9-0.8,2.9,0.4
				C205.9,104.9,205.3,105.8,204.8,106.7z"/>
			<path class="st12" d="M217.8,105.3c-1.8-0.3-3.6-0.7-5.3-0.1c-2.7,0-5.4,0.1-8.1,0.1c-2.6,0.4-5.1,1.3-7.7,2.4
				c0.7-1.4,2.9-2.6,7.2-3.5c2.7,0,5.5-0.1,8.2-0.1c3.3-1.2,4-0.5,5.3,0.6c1,0.2,2,0.4,3,0.6c1.3,0.8,2.7,1.6,4,2.3
				c-1.4-0.7-2.1-0.7-2.3,0.1c0.4-1.4-0.9-1.8-2.5-2.1C218.9,105,218.4,104.9,217.8,105.3z"/>
		</g>
		<g>
			<path class="st14" d="M205.6,106.8l0.5,0.6"/>
			<path class="st14" d="M204.3,105.5l-0.5-0.5"/>
			<path class="st14" d="M206.9,105.7l1.1-0.1"/>
			<path class="st14" d="M218.1,108.8l-0.9-2.4"/>
			<path class="st14" d="M215.3,106.2h0.7"/>
			<path class="st14" d="M218.1,106.1l0.3-0.7"/>
			<path class="st14" d="M216.2,108.5l0.5-0.3"/>
			<path class="st14" d="M218.5,107.6l0.3,0.3"/>
		</g>
		<path class="st12" d="M243.1,125.3c0.2,0.6,0.3,1.3,0.5,1.9c-1.9,2.2-2.4,4.7-1.4,7.4c-0.3,0.3-0.7,0.6-1,0.8
			C239.3,132,241.6,128.3,243.1,125.3z"/>
		<path class="st12" d="M240.5,152.8c2.7-1.2,3.4-3.5,1.8-7.2C240.1,146.4,241.2,149.2,240.5,152.8z"/>
		<path class="st14" d="M241.9,150.3c0.3-1.2-0.2-2.6,0.3-3.2"/>
		<g>
			<path class="st12" d="M240.2,141.9c0,1.3-0.2,2.5-0.4,3.6c0.8-0.5,1.4-1.4,2-2.6C241.3,142.5,240.8,142.2,240.2,141.9z"/>
			<path class="st12" d="M244.8,142.4c0.1,0.8,0.5,1.7,0.9,2.5c-1.2,0.3-2.2-0.1-2.7-2C243.6,142.8,244.2,142.6,244.8,142.4z"/>
			<path class="st12" d="M242.9,148.1c-1.9-1.6-1.8-3.2-0.3-4.8C244,145,244.3,146.6,242.9,148.1z"/>
		</g>
		
			<linearGradient id="SVGID_17_" gradientUnits="userSpaceOnUse" x1="1845.2882" y1="-24494.2676" x2="1896.1973" y2="-25017.7285" gradientTransform="matrix(1.000000e-02 0 0 -1.000000e-02 109.395 42.4)">
			<stop  offset="0" style="stop-color:#E07124"/>
			<stop  offset="1" style="stop-color:#D52C27"/>
		</linearGradient>
		<ellipse class="st36" cx="242.2" cy="137.1" rx="2.6" ry="2.4"/>
		
			<linearGradient id="SVGID_18_" gradientUnits="userSpaceOnUse" x1="1886.7422" y1="-24910.2188" x2="1939.7041" y2="-25455.8496" gradientTransform="matrix(1.000000e-02 0 0 -1.000000e-02 109.395 42.4)">
			<stop  offset="0" style="stop-color:#E07124"/>
			<stop  offset="1" style="stop-color:#D52C27"/>
		</linearGradient>
		<ellipse class="st37" cx="242.5" cy="141.4" rx="2.6" ry="2.5"/>
		<path class="st12" d="M243.5,133.3c2.7-1.9,3.3,2.3,1.2,5.7C241.3,134.9,241,133.3,243.5,133.3z"/>
		<g>
			<path class="st14" d="M244.4,136.2c0.2-1.1,0-2.1-0.9-2.9"/>
			<path class="st14" d="M178.7,140.5l-0.6,0.6"/>
			<path class="st14" d="M178.7,145.7h0.6"/>
			<path class="st14" d="M178.6,146.6l0.1,1.9"/>
		</g>
		
			<linearGradient id="SVGID_19_" gradientUnits="userSpaceOnUse" x1="-16180.6064" y1="105.3129" x2="-16180.6064" y2="107.8748" gradientTransform="matrix(1.000000e-02 0 0 -1.000000e-02 109.395 42.4)">
			<stop  offset="0" style="stop-color:#009544"/>
			<stop  offset="1" style="stop-color:#7ABB30"/>
		</linearGradient>
		<ellipse class="st38" cx="177.1" cy="147.1" rx="1.3" ry="1.5"/>
		<path class="st14" d="M176.5,147.8l1-0.1"/>
		
			<linearGradient id="SVGID_20_" gradientUnits="userSpaceOnUse" x1="-16176.4521" y1="105.588" x2="-16176.4521" y2="107.9528" gradientTransform="matrix(1.000000e-02 0 0 -1.000000e-02 109.395 42.4)">
			<stop  offset="0" style="stop-color:#009544"/>
			<stop  offset="1" style="stop-color:#7ABB30"/>
		</linearGradient>
		<ellipse class="st39" cx="177.3" cy="143" rx="1.2" ry="2"/>
		<path class="st14" d="M176.8,144h0.9"/>
		<path class="st14" d="M242.6,146.3c0.4-0.8,0-1.9,0.1-2.5"/>
		<path class="st12" d="M240.7,139.3c0.6,0.5,1,1,0.3,1.5C240.4,140.3,240.4,139.8,240.7,139.3z"/>
		<path class="st12" d="M241.1,140.8c0.4,0.6,0.7,1.5-0.1,1.8C240.5,142,240.6,141.2,241.1,140.8z"/>
		<g>
			<path class="st11" d="M217.7,162.1h3.6v-1.3H219v-1.1h2.4l0-1.1H219v-1.2c0-0.6-1.1-1.6-2-1.6c-0.9,0-2,1.1-2,1.6v1.2h-2.4l0,1.1
				h2.4v1.1h-2.4v1.3h3.6l0-4.2c0.1-1,1.6-1.2,1.7,0L217.7,162.1z"/>
			<path class="st11" d="M213.4,150h7v0.8h-7V150z"/>
			<path class="st11" d="M213.1,149.2h7.6v0.8h-7.6V149.2z"/>
			<path class="st11" d="M213.3,148.2h1.6v0.7h-1.6V148.2z"/>
			<path class="st11" d="M218.7,148.2h1.6v0.7h-1.6V148.2z"/>
			<path class="st11" d="M216.1,146.3h1.7v2.1h-1.7V146.3z"/>
			<path class="st11" d="M215.9,148.2h1.9v0.7h-1.9V148.2z"/>
		</g>
	</g>
</g>
<path class="st40" d="M219,147.1h1.1v1.1H219V147.1z"/>
<g>
	<g>
		<path class="st11" d="M218.9,146.4h1.4v0.7h-1.4V146.4z"/>
		<path class="st11" d="M219,147.1h1.1v1.1H219V147.1z"/>
		<path class="st11" d="M213.4,146.4h1.4v0.7h-1.4V146.4z"/>
		<path class="st11" d="M213.5,147.1h1.1v1.1h-1.1V147.1z"/>
		<path class="st11" d="M215.8,145.5h2.2v0.9h-2.2V145.5z"/>
	</g>
	<path class="st19" d="M216.9,147.8v-0.7"/>
	<g>
		<path class="st41" d="M214.8,153c0-1.5,1.5-1.7,1.5,0H214.8z"/>
		<path class="st41" d="M214.8,154.1h1.5v0.7h-1.5V154.1z"/>
		<path class="st42" d="M215.1,154.1h0.9c0-0.6-0.1-1.2-0.4-1.8C215.3,152.9,215.1,153.4,215.1,154.1z"/>
		<path class="st41" d="M217.5,153c0.1-1.5,1.5-1.7,1.5,0H217.5z"/>
		<path class="st41" d="M217.5,154.1h1.5v0.7h-1.5V154.1z"/>
		<path class="st42" d="M217.8,154.1h0.9c0.1-0.6,0-1.2-0.4-1.8C218,152.9,217.8,153.4,217.8,154.1z"/>
		<path class="st11" d="M213.1,148.7h7.6v0.7h-7.6V148.7z"/>
		<path class="st14" d="M217,157.2l-0.4-0.6l-0.4-0.6h0.8h0.8l-0.4,0.6L217,157.2z"/>
	</g>
	<path class="st18" d="M234.7,156.8c1-0.2,1.6-0.8,0.3-2.2c-1.5-2.2-1.2-3.2-0.4-4c0.7-0.7,1.2-0.9,2.1-0.3c0.3,0.3,0.2,1.2,0.4,1.2
		c0.6,0.1,0.5,0.6,0.3,1.2c-0.5,0.5-1.2,0.2-1.3-0.3c0-0.5,0.1-1.7-0.6-1.5c-1.1,0.8-0.8,1.7-0.2,2.4c0.8,0.9,1.2,1.8,1.3,2.9
		c-0.1,1.6-1,1.5-1.9,1.5C234.7,157.4,234.7,157.1,234.7,156.8z"/>
</g>
<path class="st43" d="M168.2,140.8c0-23,18.8-41.8,41.8-41.8c23,0,41.8,18.8,41.8,41.8"/>
<g>
	<path class="st4" d="M168.1,119.6l1.6,0.6l0,0.1c-0.5-0.1-1,0-1.3,0.1c-0.3,0.2-0.6,0.4-0.7,0.8c-0.1,0.3-0.2,0.6-0.2,0.9
		c0,0.3,0.2,0.6,0.5,0.9c0.3,0.3,0.7,0.6,1.2,0.8c0.4,0.2,0.8,0.3,1.2,0.3c0.4,0,0.7-0.1,1-0.3c0.3-0.2,0.5-0.5,0.7-0.8
		c0.1-0.3,0.2-0.6,0.2-0.9c0-0.3-0.2-0.7-0.4-1.1l0.1-0.1c0.3,0.4,0.5,0.8,0.5,1.2c0,0.4,0,0.8-0.2,1.2c-0.4,0.8-0.9,1.2-1.7,1.4
		c-0.6,0.1-1.1,0-1.7-0.2c-0.5-0.2-0.8-0.5-1.1-0.9c-0.3-0.4-0.5-0.8-0.5-1.3c0-0.5,0-0.9,0.2-1.3c0.2-0.3,0.4-0.6,0.7-0.9
		c0.1-0.1,0.2-0.1,0.2-0.2c0-0.1,0-0.1,0-0.2c0-0.1-0.1-0.2-0.2-0.2L168.1,119.6z"/>
	<path class="st4" d="M174.6,118.2l0.1,0.1l-1.1,1.9l-0.1-0.1l0.1-0.2c0.1-0.2,0.1-0.3,0.1-0.5c0-0.1-0.2-0.2-0.5-0.4l-2.8-1.6
		c-0.2-0.1-0.4-0.2-0.5-0.2c-0.1,0-0.1,0-0.2,0.1c-0.1,0.1-0.2,0.1-0.3,0.3l-0.1,0.2l-0.1-0.1l1.1-1.9l0.1,0.1l-0.1,0.2
		c-0.1,0.2-0.1,0.3-0.1,0.5c0,0.1,0.2,0.2,0.5,0.4l2.8,1.6c0.2,0.1,0.4,0.2,0.5,0.2c0.1,0,0.1,0,0.2-0.1c0.1-0.1,0.2-0.1,0.3-0.2
		L174.6,118.2z"/>
	<path class="st4" d="M174.2,110.6l1,0.7l-0.1,0.1c-0.2-0.1-0.3-0.2-0.4-0.2c-0.2,0-0.3,0-0.4,0c-0.1,0.1-0.3,0.2-0.4,0.3l-0.4,0.6
		l3,2.4c0.2,0.2,0.4,0.3,0.5,0.3c0.1,0,0.3-0.1,0.4-0.2l0.1-0.1l0.1,0.1l-1.4,1.7l-0.1-0.1l0.1-0.1c0.1-0.2,0.2-0.3,0.1-0.5
		c0-0.1-0.1-0.2-0.4-0.4l-3-2.4l-0.4,0.5c-0.1,0.2-0.2,0.3-0.3,0.4c0,0.1,0,0.3,0,0.4c0.1,0.2,0.2,0.3,0.3,0.5l-0.1,0.1l-0.9-0.8
		L174.2,110.6z"/>
	<path class="st4" d="M178.1,106.5l1.3-1.2l0.1,0.1l-0.1,0.1c0,0-0.1,0.1-0.1,0.3c-0.1,0.1-0.1,0.3-0.1,0.4c0,0.1,0,0.4,0.1,0.6
		l0.4,2.2l0.9,0.9c0.2,0.2,0.4,0.3,0.5,0.4c0.1,0,0.3-0.1,0.4-0.2l0.1-0.1l0.1,0.1l-1.6,1.5l-0.1-0.1l0.1-0.1
		c0.2-0.1,0.2-0.3,0.2-0.5c0-0.1-0.1-0.2-0.3-0.5l-0.8-0.9l-2.5-0.6c-0.3-0.1-0.5-0.1-0.6-0.1c-0.1,0-0.2,0-0.4,0.1
		c-0.1,0-0.1,0.1-0.2,0.1l-0.1-0.1l1.6-1.5l0.1,0.1l-0.1,0.1c-0.1,0.1-0.1,0.2-0.2,0.3c0,0.1,0,0.2,0.1,0.3c0.1,0.1,0.2,0.1,0.5,0.2
		l1.9,0.5l-0.3-1.8c0-0.3-0.1-0.5-0.2-0.5c0-0.1-0.1-0.1-0.2-0.1c-0.1,0-0.1,0-0.2,0C178.4,106.5,178.3,106.5,178.1,106.5
		L178.1,106.5z"/>
	<path class="st4" d="M185.5,100.8c0.6-0.3,1.2-0.4,1.8-0.3s1.2,0.6,1.6,1.2c0.4,0.7,0.5,1.3,0.4,2c-0.1,0.7-0.5,1.2-1.1,1.6
		c-0.6,0.4-1.2,0.5-1.9,0.3c-0.7-0.2-1.2-0.6-1.6-1.2c-0.4-0.7-0.5-1.4-0.3-2.1C184.5,101.6,184.9,101.2,185.5,100.8z M185.6,101.1
		c-0.4,0.2-0.6,0.6-0.7,1c-0.1,0.5,0.1,1.1,0.5,1.8c0.4,0.7,0.9,1.1,1.5,1.3c0.4,0.1,0.8,0.1,1.2-0.1c0.4-0.3,0.6-0.6,0.7-1.1
		c0.1-0.5-0.1-1.1-0.5-1.7c-0.5-0.7-0.9-1.2-1.5-1.4C186.4,100.8,186,100.8,185.6,101.1z"/>
	<path class="st4" d="M191,98.3l0.8,1.8l0.8-0.4c0.2-0.1,0.3-0.2,0.4-0.3c0.1-0.1,0-0.3,0-0.6l0.1-0.1l0.7,1.6l-0.1,0.1
		c-0.1-0.2-0.2-0.3-0.3-0.4c-0.1-0.1-0.2-0.1-0.3-0.1c-0.1,0-0.2,0-0.4,0.1l-0.8,0.4l0.6,1.5c0.1,0.2,0.2,0.4,0.3,0.4
		c0,0,0.1,0.1,0.2,0.1c0.1,0,0.2,0,0.4-0.1l0.2-0.1l0.1,0.1l-2,0.9l-0.1-0.1l0.2-0.1c0.2-0.1,0.3-0.2,0.3-0.4c0-0.1,0-0.3-0.2-0.6
		l-1.3-3c-0.1-0.2-0.2-0.4-0.3-0.4c0,0-0.1-0.1-0.2-0.1c-0.1,0-0.2,0-0.4,0.1l-0.2,0.1l-0.1-0.1l3.4-1.5l0.5,1l-0.1,0.1
		c-0.2-0.2-0.3-0.3-0.4-0.4c-0.1-0.1-0.3-0.1-0.4-0.1c-0.1,0-0.3,0.1-0.6,0.2L191,98.3z"/>
	<path class="st4" d="M203.2,98.1h0.1l-0.1,1.4l-3.8,0.9l0-0.1l0.2,0c0.2,0,0.3-0.1,0.4-0.3c0-0.1,0-0.3,0-0.6l-0.7-3.2
		c-0.1-0.3-0.1-0.5-0.2-0.6c-0.1-0.1-0.3-0.1-0.5-0.1l-0.2,0l0-0.1l2.2-0.5l0,0.1c-0.3,0.1-0.4,0.1-0.5,0.2
		c-0.1,0.1-0.1,0.2-0.2,0.2c0,0.1,0,0.3,0.1,0.6l0.7,3.1c0,0.2,0.1,0.3,0.2,0.4c0,0,0.1,0.1,0.2,0.1c0.1,0,0.3,0,0.6-0.1l0.4-0.1
		c0.4-0.1,0.6-0.2,0.8-0.3c0.1-0.1,0.3-0.2,0.4-0.4C203,98.7,203.1,98.4,203.2,98.1z"/>
	<path class="st4" d="M207.3,93.9c0.7,0,1.2,0.2,1.8,0.6c0.5,0.5,0.8,1.1,0.8,1.8c0.1,0.8-0.1,1.4-0.6,2c-0.5,0.5-1,0.8-1.7,0.9
		c-0.7,0-1.3-0.2-1.8-0.6c-0.5-0.5-0.8-1.1-0.8-1.9c-0.1-0.8,0.2-1.5,0.7-2C206.1,94.2,206.6,94,207.3,93.9z M207.2,94.2
		c-0.5,0-0.8,0.2-1.1,0.6c-0.3,0.4-0.4,1.1-0.4,1.9c0.1,0.8,0.3,1.4,0.7,1.9c0.3,0.3,0.7,0.5,1.1,0.4c0.5,0,0.8-0.2,1.1-0.6
		c0.3-0.4,0.4-1,0.3-1.8c-0.1-0.9-0.3-1.5-0.6-1.9C208.1,94.3,207.7,94.2,207.2,94.2z"/>
	<path class="st4" d="M215.3,94.1l-0.1,1.7l-0.1,0c0-0.3-0.1-0.6-0.2-0.8c-0.1-0.2-0.3-0.4-0.5-0.5c-0.2-0.1-0.4-0.2-0.6-0.2
		c-0.3,0-0.5,0-0.7,0.2c-0.2,0.1-0.3,0.3-0.3,0.5c0,0.2,0,0.3,0.1,0.4c0.1,0.2,0.5,0.5,1,0.8c0.5,0.3,0.8,0.5,0.9,0.7
		c0.2,0.1,0.3,0.3,0.4,0.5c0.1,0.2,0.1,0.4,0.1,0.6c0,0.4-0.2,0.7-0.5,1c-0.3,0.3-0.7,0.4-1.2,0.3c-0.1,0-0.3,0-0.4-0.1
		c-0.1,0-0.2-0.1-0.5-0.2c-0.2-0.1-0.4-0.1-0.5-0.2c-0.1,0-0.1,0-0.2,0c0,0-0.1,0.1-0.1,0.2l-0.1,0l0.1-1.7l0.1,0
		c0,0.4,0.1,0.6,0.2,0.8c0.1,0.2,0.3,0.4,0.5,0.5c0.2,0.1,0.5,0.2,0.7,0.2c0.3,0,0.6,0,0.8-0.2c0.2-0.1,0.3-0.3,0.3-0.6
		c0-0.1,0-0.2-0.1-0.4c-0.1-0.1-0.2-0.3-0.3-0.4c-0.1-0.1-0.3-0.3-0.8-0.5c-0.4-0.3-0.7-0.5-0.9-0.6c-0.2-0.2-0.3-0.3-0.4-0.5
		c-0.1-0.2-0.1-0.4-0.1-0.6c0-0.4,0.2-0.7,0.5-0.9c0.3-0.2,0.7-0.3,1.1-0.3c0.3,0,0.5,0.1,0.8,0.3c0.1,0.1,0.2,0.1,0.3,0.1
		s0.1,0,0.2,0c0,0,0.1-0.1,0.1-0.2L215.3,94.1z"/>
	<path class="st4" d="M223,99.3l-1.9-0.5l-0.5,0.7c-0.1,0.2-0.2,0.3-0.2,0.4c0,0.1,0,0.2,0.1,0.2c0.1,0.1,0.2,0.2,0.4,0.2l0,0.1
		l-1.5-0.4l0-0.1c0.2,0,0.4,0,0.4,0c0.2-0.1,0.3-0.3,0.6-0.6l2.8-3.6l0.1,0l0.6,4.5c0.1,0.4,0.1,0.6,0.2,0.7
		c0.1,0.1,0.2,0.2,0.4,0.3l0,0.1l-1.9-0.5l0-0.1c0.2,0,0.3,0,0.4,0c0.1,0,0.1-0.1,0.2-0.2c0-0.1,0-0.3,0-0.5L223,99.3z M223,99
		l-0.3-2.2l-1.4,1.7L223,99z"/>
	<path class="st4" d="M227.4,97.4l1.2,0.6l1.3,4.7l1.2-2.7c0.1-0.3,0.2-0.5,0.1-0.6c0-0.1-0.2-0.2-0.3-0.3l-0.2-0.1l0.1-0.1l1.6,0.7
		l-0.1,0.1l-0.2-0.1c-0.2-0.1-0.4-0.1-0.5,0c-0.1,0-0.2,0.2-0.3,0.5l-1.7,3.9l-0.1-0.1l-1.4-5.1l-1.3,2.8c-0.1,0.3-0.2,0.5-0.1,0.6
		c0,0.1,0.2,0.2,0.3,0.3l0.2,0.1l-0.1,0.1l-1.6-0.7l0.1-0.1l0.2,0.1c0.2,0.1,0.4,0.1,0.5,0c0.1,0,0.2-0.2,0.3-0.5l1.4-3.2
		c-0.1-0.2-0.1-0.4-0.2-0.4c0-0.1-0.1-0.2-0.2-0.3c-0.1,0-0.1-0.1-0.3-0.2L227.4,97.4z"/>
	<path class="st4" d="M238.2,103.3l-0.8,1.4l-0.1-0.1c0.1-0.4,0.2-0.8,0.1-1c-0.1-0.4-0.3-0.8-0.7-1c-0.5-0.4-1.1-0.4-1.6-0.2
		c-0.5,0.2-0.9,0.5-1.2,1c-0.3,0.4-0.5,0.8-0.5,1.2c-0.1,0.4,0,0.8,0.1,1.1c0.1,0.3,0.3,0.6,0.6,0.8c0.1,0.1,0.3,0.2,0.5,0.2
		c0.2,0.1,0.4,0.1,0.5,0.1l0.8-1.2c0.2-0.2,0.2-0.4,0.2-0.4c0-0.1,0-0.2,0-0.3c0-0.1-0.1-0.2-0.3-0.3l0.1-0.1l1.6,1.1l-0.1,0.1
		l-0.1-0.1c-0.2-0.1-0.3-0.1-0.4-0.1c-0.1,0-0.2,0.2-0.4,0.4l-0.9,1.3c-0.3,0-0.6-0.1-0.9-0.2c-0.3-0.1-0.6-0.2-0.8-0.4
		c-0.8-0.6-1.2-1.2-1.3-2c0-0.6,0.1-1.2,0.5-1.7c0.3-0.4,0.6-0.7,1-0.9c0.5-0.3,1-0.4,1.5-0.3c0.4,0,0.8,0.2,1.3,0.5
		c0.1,0.1,0.3,0.2,0.4,0.3c0.1,0.1,0.2,0.3,0.4,0.5c0.1,0.1,0.1,0.2,0.2,0.2c0,0,0.1,0,0.1,0c0.1,0,0.1-0.1,0.2-0.2L238.2,103.3z"/>
	<path class="st4" d="M241.1,106.3l-1.4,1.5l0.8,0.8c0.2,0.2,0.4,0.3,0.5,0.3c0.2,0,0.4-0.1,0.6-0.3l0.1,0.1l-1.2,1.3l-0.1-0.1
		c0.1-0.2,0.2-0.3,0.2-0.4c0-0.1,0-0.2,0-0.3c0-0.1-0.1-0.2-0.3-0.4l-0.8-0.8l-1.1,1.2c-0.1,0.2-0.2,0.3-0.3,0.3c0,0,0,0.1,0,0.2
		c0,0.1,0.1,0.1,0.2,0.2l0.6,0.6c0.2,0.2,0.4,0.3,0.5,0.4c0.1,0.1,0.3,0.1,0.4,0.1c0.2,0,0.5-0.1,0.8-0.2l0.1,0.1l-1.2,0.6l-2.9-2.7
		l0.1-0.1l0.1,0.1c0.1,0.1,0.2,0.1,0.3,0.2c0.1,0,0.2,0,0.2,0c0.1,0,0.2-0.1,0.4-0.3l2.2-2.4c0.2-0.2,0.3-0.4,0.3-0.5
		c0-0.1-0.1-0.3-0.2-0.4l-0.1-0.1l0.1-0.1l2.8,2.7l-0.7,0.8l-0.1-0.1c0.1-0.2,0.2-0.4,0.2-0.5c0-0.1,0-0.2,0-0.4
		c-0.1-0.1-0.2-0.2-0.4-0.4L241.1,106.3z"/>
	<path class="st4" d="M244.7,115.2l0.1,0.1l-1.3,0.5l-2.5-3l0.1-0.1l0.1,0.1c0.1,0.2,0.3,0.2,0.5,0.2c0.1,0,0.3-0.1,0.5-0.3l2.5-2.1
		c0.2-0.2,0.4-0.4,0.4-0.5c0-0.1,0-0.3-0.1-0.4l-0.1-0.2l0.1-0.1l1.4,1.8l-0.1,0.1c-0.2-0.2-0.3-0.3-0.4-0.4c-0.1-0.1-0.2-0.1-0.3,0
		c-0.1,0-0.2,0.1-0.5,0.3l-2.5,2c-0.2,0.1-0.3,0.2-0.3,0.3c0,0.1,0,0.1,0,0.2c0,0.1,0.1,0.2,0.3,0.5l0.2,0.3
		c0.2,0.3,0.4,0.5,0.6,0.6c0.1,0.1,0.3,0.1,0.5,0.1C244.1,115.3,244.4,115.3,244.7,115.2z"/>
	<path class="st4" d="M249.3,115.9l-1.7,1.1l0.6,0.9c0.2,0.2,0.3,0.4,0.4,0.4c0.2,0,0.4,0,0.6-0.2l0.1,0.1l-1.5,1l-0.1-0.1
		c0.2-0.2,0.3-0.3,0.3-0.3c0-0.1,0.1-0.2,0-0.3c0-0.1-0.1-0.3-0.2-0.4l-0.6-0.9L246,118c-0.2,0.1-0.3,0.2-0.3,0.3c0,0,0,0.1,0,0.1
		c0,0.1,0,0.2,0.1,0.3l0.5,0.7c0.2,0.2,0.3,0.4,0.4,0.5c0.1,0.1,0.2,0.1,0.4,0.2c0.2,0,0.5,0.1,0.8,0l0.1,0.1l-1.3,0.3l-2.1-3.3
		l0.1-0.1l0.1,0.2c0.1,0.1,0.2,0.2,0.3,0.2c0.1,0,0.2,0.1,0.2,0c0.1,0,0.2-0.1,0.4-0.2l2.8-1.8c0.3-0.2,0.4-0.3,0.5-0.4
		c0-0.1,0-0.3-0.1-0.5l-0.1-0.2l0.1-0.1l2.1,3.3l-0.9,0.7l-0.1-0.1c0.2-0.2,0.3-0.3,0.4-0.4c0.1-0.1,0.1-0.2,0-0.4
		c0-0.1-0.1-0.3-0.2-0.5L249.3,115.9z"/>
	<path class="st4" d="M253.4,123l-1.6,0.7l-0.1-0.1c0.3-0.2,0.5-0.4,0.6-0.6s0.2-0.4,0.2-0.7c0-0.2,0-0.5-0.1-0.7
		c-0.1-0.2-0.3-0.4-0.5-0.5c-0.2-0.1-0.4-0.1-0.6,0c-0.1,0.1-0.2,0.2-0.3,0.3c-0.1,0.2-0.2,0.7-0.2,1.3c0,0.5-0.1,0.9-0.1,1.1
		c0,0.2-0.1,0.4-0.3,0.6c-0.1,0.2-0.3,0.3-0.5,0.4c-0.3,0.2-0.7,0.2-1.1,0c-0.4-0.2-0.7-0.4-0.9-0.9c-0.1-0.1-0.1-0.3-0.1-0.4
		c0-0.1,0-0.2-0.1-0.5c0-0.3-0.1-0.4-0.1-0.5c0-0.1-0.1-0.1-0.1-0.1c0,0-0.1,0-0.2,0l-0.1-0.1l1.6-0.7l0.1,0.1
		c-0.3,0.2-0.5,0.4-0.6,0.6c-0.1,0.2-0.2,0.4-0.2,0.6s0,0.5,0.2,0.7c0.1,0.3,0.3,0.5,0.5,0.6c0.2,0.1,0.4,0.1,0.6,0
		c0.1,0,0.2-0.1,0.3-0.2c0.1-0.1,0.2-0.3,0.2-0.4c0-0.1,0.1-0.4,0.1-0.9c0-0.5,0.1-0.8,0.1-1.1c0.1-0.2,0.1-0.4,0.3-0.6
		c0.1-0.2,0.3-0.3,0.5-0.4c0.3-0.2,0.7-0.2,1,0c0.4,0.1,0.6,0.4,0.8,0.8c0.1,0.2,0.2,0.5,0.2,0.9c0,0.2,0,0.3,0,0.3
		c0,0.1,0.1,0.1,0.1,0.1c0,0,0.1,0,0.3,0L253.4,123z"/>
</g>
<path class="st43" d="M169.5,140.1c0,22.3,18.2,40.5,40.5,40.5c22.3,0,40.5-18.2,40.5-40.5"/>
<g>
	<path class="st4" d="M183.1,172.1l-1.3,1.6l0.8,0.6c0.2,0.1,0.3,0.2,0.5,0.2c0.1,0,0.3-0.1,0.5-0.3l0.1,0.1l-1.1,1.4l-0.1-0.1
		c0.1-0.2,0.2-0.3,0.2-0.4c0-0.1,0-0.2,0-0.3c0-0.1-0.1-0.2-0.3-0.3l-0.8-0.6l-1,1.3c-0.2,0.2-0.3,0.4-0.3,0.5c0,0.1,0,0.1,0,0.2
		c0,0.1,0.1,0.2,0.2,0.3l0.2,0.1l-0.1,0.1l-1.8-1.4l0.1-0.1l0.1,0.1c0.2,0.1,0.3,0.2,0.5,0.1c0.1,0,0.2-0.2,0.4-0.4l2.1-2.7
		c0.2-0.2,0.3-0.4,0.3-0.4c0-0.1,0-0.2,0-0.2c0-0.1-0.1-0.2-0.2-0.3l-0.2-0.1l0.1-0.1l3.1,2.4l-0.7,1l-0.1-0.1
		c0.1-0.2,0.1-0.4,0.1-0.6c0-0.2,0-0.3-0.1-0.4c-0.1-0.1-0.2-0.3-0.4-0.4L183.1,172.1z"/>
	<path class="st4" d="M188.6,175.5c0.6,0.4,0.9,0.9,1.1,1.6c0.1,0.7,0,1.4-0.4,2c-0.4,0.7-1,1.1-1.7,1.3c-0.7,0.2-1.4,0.1-2-0.3
		c-0.6-0.4-1-0.9-1.1-1.6c-0.1-0.7,0-1.4,0.5-2.1c0.5-0.7,1.1-1.1,1.8-1.2C187.4,175,188,175.1,188.6,175.5z M188.4,175.7
		c-0.4-0.3-0.8-0.3-1.2-0.2c-0.5,0.2-1,0.6-1.5,1.3c-0.5,0.7-0.7,1.4-0.6,2c0,0.5,0.3,0.8,0.7,1.1c0.4,0.3,0.9,0.3,1.3,0.2
		c0.5-0.2,0.9-0.6,1.4-1.3c0.5-0.8,0.7-1.4,0.7-2C189,176.3,188.8,175.9,188.4,175.7z"/>
	<path class="st4" d="M194.6,178.8l0.1-0.1l1.7,0.8l-0.1,0.1l-0.2-0.1c-0.2-0.1-0.4-0.1-0.5,0c-0.1,0.1-0.2,0.2-0.3,0.5l-0.9,2
		c-0.2,0.5-0.4,0.8-0.7,1.1c-0.2,0.2-0.5,0.4-0.9,0.4c-0.4,0.1-0.8,0-1.3-0.2c-0.5-0.2-0.9-0.5-1.1-0.8c-0.2-0.3-0.3-0.6-0.3-1
		c0-0.3,0.2-0.7,0.4-1.2l0.8-1.9c0.1-0.3,0.2-0.5,0.1-0.6c0-0.1-0.2-0.2-0.3-0.3l-0.2-0.1l0.1-0.1l2.1,0.9l-0.1,0.1l-0.2-0.1
		c-0.2-0.1-0.4-0.1-0.5,0c-0.1,0.1-0.2,0.2-0.3,0.5l-0.9,2.1c-0.1,0.2-0.2,0.4-0.2,0.7s-0.1,0.5-0.1,0.7c0,0.2,0.1,0.3,0.2,0.5
		c0.1,0.2,0.3,0.3,0.6,0.4c0.3,0.1,0.6,0.2,0.9,0.2c0.3,0,0.6-0.1,0.8-0.3c0.2-0.2,0.4-0.5,0.6-1l0.9-2c0.1-0.3,0.2-0.5,0.1-0.6
		c0-0.2-0.2-0.3-0.3-0.3L194.6,178.8z"/>
	<path class="st4" d="M196.7,179.4l1.4,0.4l2.1,4.7l0.8-2.9c0.1-0.3,0.1-0.5,0-0.6c-0.1-0.1-0.2-0.2-0.4-0.3l-0.2,0l0-0.1l1.8,0.5
		l0,0.1L202,181c-0.2-0.1-0.4,0-0.5,0.1c-0.1,0.1-0.1,0.2-0.2,0.5l-1.2,4.3l-0.1,0l-2.3-5l-0.8,3.1c-0.1,0.3-0.1,0.5-0.1,0.6
		c0.1,0.1,0.2,0.2,0.4,0.3l0.2,0.1l0,0.1l-1.8-0.5l0-0.1l0.2,0c0.2,0.1,0.4,0,0.5-0.1c0.1-0.1,0.2-0.2,0.2-0.5l0.9-3.6
		c-0.1-0.2-0.2-0.4-0.2-0.4c-0.1-0.1-0.2-0.2-0.3-0.2c-0.1,0-0.2-0.1-0.3-0.1L196.7,179.4z"/>
	<path class="st4" d="M202.2,186.3l0-0.1l0.2,0c0.2,0,0.4,0,0.5-0.2c0.1-0.1,0.1-0.3,0.1-0.6l0.4-3.4c0-0.3,0-0.5,0-0.6
		c-0.1-0.1-0.2-0.2-0.4-0.2l-0.2,0l0-0.1l2.1,0.2c0.8,0.1,1.4,0.2,1.8,0.5c0.4,0.2,0.7,0.6,0.9,1c0.2,0.4,0.3,0.9,0.2,1.5
		c-0.1,0.7-0.4,1.3-0.9,1.8c-0.6,0.5-1.4,0.7-2.4,0.6L202.2,186.3z M203.7,186.1c0.3,0.1,0.6,0.2,0.8,0.2c0.6,0.1,1.1-0.1,1.6-0.5
		c0.4-0.4,0.7-0.9,0.8-1.7c0.1-0.7-0.1-1.3-0.4-1.8c-0.4-0.5-0.8-0.7-1.5-0.8c-0.2,0-0.5,0-0.8,0L203.7,186.1z"/>
	<path class="st4" d="M210.5,181.9l0,2.1l1.2,0c0.3,0,0.5-0.1,0.6-0.2c0.1-0.1,0.2-0.3,0.2-0.6h0.1l0,1.8h-0.1
		c0-0.3-0.1-0.4-0.1-0.5c-0.1-0.1-0.1-0.2-0.2-0.2c-0.1-0.1-0.3-0.1-0.5-0.1l-1.2,0l0,1.7c0,0.2,0,0.4,0,0.4c0,0,0.1,0.1,0.1,0.1
		c0.1,0,0.2,0,0.3,0l0.9,0c0.3,0,0.5,0,0.7-0.1c0.1,0,0.3-0.1,0.4-0.3c0.2-0.2,0.3-0.4,0.5-0.7h0.2l-0.4,1.3l-4.1,0.1v-0.1h0.2
		c0.1,0,0.2,0,0.4-0.1c0.1,0,0.1-0.1,0.2-0.2c0-0.1,0-0.3,0-0.5l-0.1-3.4c0-0.3,0-0.5-0.1-0.6c-0.1-0.1-0.3-0.2-0.5-0.1H209v-0.1
		l4.1-0.1l0.1,1.1H213c-0.1-0.3-0.1-0.5-0.2-0.6c-0.1-0.1-0.2-0.2-0.3-0.2c-0.1,0-0.3-0.1-0.6-0.1L210.5,181.9z"/>
	<path class="st4" d="M215,186.7l0-0.1l0.2,0c0.2,0,0.4-0.1,0.4-0.3c0-0.1,0-0.3,0-0.6l-0.6-3.4c-0.1-0.3-0.1-0.5-0.2-0.6
		c-0.1-0.1-0.3-0.1-0.5-0.1l-0.2,0l0-0.1l2.1-0.4c0.8-0.1,1.4-0.2,1.8,0c0.4,0.1,0.8,0.3,1.1,0.7c0.3,0.4,0.5,0.8,0.6,1.4
		c0.1,0.7,0,1.4-0.3,1.9c-0.4,0.6-1.1,1-2.1,1.2L215,186.7L215,186.7z M216.4,186.1c0.3,0,0.6,0,0.8,0c0.6-0.1,1-0.4,1.4-0.9
		c0.3-0.5,0.4-1.1,0.3-1.8c-0.1-0.7-0.4-1.3-0.9-1.6c-0.5-0.3-1-0.5-1.6-0.4c-0.2,0-0.5,0.1-0.8,0.2L216.4,186.1z"/>
	<path class="st4" d="M223.8,179.8l1-1.1l0.1,0l1.6,4.2c0.1,0.3,0.2,0.4,0.2,0.5c0,0.1,0.1,0.1,0.2,0.1c0.1,0,0.2,0,0.5-0.1l0.1,0.1
		l-1.9,0.7l0-0.1c0.2-0.1,0.4-0.2,0.4-0.2c0.1-0.1,0.1-0.1,0.1-0.2c0-0.1,0-0.3-0.2-0.5l-1-2.7c-0.1-0.4-0.2-0.6-0.3-0.7
		c-0.1-0.1-0.1-0.1-0.2-0.1c-0.1,0-0.1,0-0.2,0C224.1,179.6,224,179.7,223.8,179.8L223.8,179.8z"/>
	<path class="st4" d="M227.7,177.5l2.6-1.2l0.1,0.1l0.7,5.5l-0.4,0.2l-0.7-5l-1.3,0.6c-0.3,0.1-0.4,0.3-0.5,0.4
		c-0.1,0.2-0.2,0.4-0.2,0.7l-0.1,0L227.7,177.5z"/>
	<path class="st4" d="M233.7,177.3c-0.5-0.1-0.9-0.2-1.1-0.3c-0.2-0.1-0.4-0.3-0.5-0.4c-0.2-0.3-0.2-0.6-0.1-1
		c0.1-0.3,0.3-0.6,0.7-0.9c0.4-0.2,0.7-0.3,1.1-0.3c0.3,0.1,0.6,0.2,0.8,0.5c0.1,0.2,0.1,0.4,0.1,0.6c0,0.2-0.1,0.6-0.4,1.1
		c0.6,0.1,1,0.1,1.2,0.2c0.3,0.1,0.5,0.3,0.7,0.6c0.2,0.3,0.2,0.7,0.1,1c-0.1,0.4-0.4,0.7-0.7,0.9c-0.4,0.3-0.8,0.3-1.2,0.2
		c-0.3-0.1-0.6-0.3-0.7-0.5c-0.1-0.2-0.2-0.4-0.2-0.7C233.4,178.1,233.5,177.7,233.7,177.3z M234,176.6c0.1-0.4,0.2-0.7,0.1-0.9
		c0-0.2-0.1-0.4-0.2-0.5c-0.1-0.2-0.3-0.4-0.5-0.4c-0.2-0.1-0.4,0-0.6,0.1c-0.2,0.1-0.4,0.3-0.4,0.5c-0.1,0.2,0,0.4,0.1,0.6
		c0.1,0.1,0.2,0.2,0.3,0.3s0.3,0.1,0.5,0.2L234,176.6z M233.9,177.3c-0.1,0.3-0.1,0.5-0.1,0.8c0,0.2,0.1,0.5,0.2,0.7
		c0.2,0.3,0.4,0.5,0.7,0.5c0.3,0.1,0.5,0,0.8-0.1c0.2-0.1,0.4-0.3,0.4-0.6c0.1-0.2,0-0.4-0.1-0.6c-0.1-0.2-0.2-0.3-0.4-0.3
		C235.2,177.5,234.6,177.4,233.9,177.3z"/>
	<path class="st4" d="M235.9,173.1l0.7-1.3l0.1-0.1l2.7,3.6c0.2,0.2,0.3,0.4,0.4,0.4c0.1,0,0.1,0.1,0.2,0c0.1,0,0.2-0.1,0.4-0.2
		l0.1,0.1l-1.6,1.2l-0.1-0.1c0.2-0.2,0.3-0.3,0.4-0.3c0-0.1,0-0.1,0-0.2c0-0.1-0.1-0.2-0.3-0.5l-1.7-2.3c-0.2-0.3-0.4-0.5-0.5-0.6
		c-0.1-0.1-0.1-0.1-0.2-0.1s-0.1,0-0.2,0.1c-0.1,0.1-0.2,0.2-0.2,0.3L235.9,173.1z"/>
</g>
<g>
	<path class="st18" d="M232,148c0.9,0.4,1.2,1.1,1.5,1.7c0.4,0.3,0.3,0.6-0.3,1c0,0.3,0.1,0.5,0.1,0.8c0.6,0.4,0.4,0.7-0.1,1.1
		c-0.7,0.4-1,1.3-1.1,2.4c-0.5,0.5,0.9,1.1,2.6,1.8c0.3,1.1,0.4,2.1-0.8,2c-0.4,0.3-0.3,0.6,0.3,0.8c0.9-0.4,1.3,0,1.1,1.1
		c-0.3,0.6-0.8,1.1-1.4,1.4c-0.9,0-1.8,0-2.7,0c0.1-0.5,0.6-0.8,1.4-0.9c0.2-0.3,0.3-0.6,0.3-0.8c-0.8,0.3-1.5,0.4-2.3,0.4
		c0,0.5-0.3,1-0.9,1.4c-0.9,0-1.9,0-2.8,0c0.4-0.6,0.9-0.9,1.5-0.8c0.5-0.2,0.5-0.5,0-0.7c0-0.3,0.1-0.5,0.1-0.8
		c-0.5,0.4-0.9,0.6-1.3,0.3c-0.3-0.6-0.4-0.9,0.1-1.3c0.6-0.4,1.2-0.8,1.8-1.2c0.7-0.1,1.4-0.1,2-0.2c-1.4-0.6-2.2-1.5-2.4-2.1
		c-1.6,0.3-3.2,0.5-4.8-0.3c-0.1-0.6-0.1-1.3-0.3-1.9c0.3,0.1,0.6,0.1,0.8-0.1c0.7,0.5,1.4,0.5,2.1,0.4c-0.6-1.2-1.5-2.2-2.5-3
		c-0.2-0.4-0.1-0.6,0.3-0.8c0.1-0.3,0.2-0.7,0-1c0.3,0.4,0.5,0.2,0.6-0.6c0.7,0.5,1.1,1,0.9,1.7c0.1,0.6,0.4,1.1,0.9,1.7
		c0.4,0.2,0.8,0.4,1.3,0c0-0.6,0.6-0.8,1.8-0.6c0.4-0.3,0.3-0.6-0.2-0.8c-0.4,0-0.6-0.1-0.8-0.3c0.4,0.1,0.7,0,0.9-0.2
		c-0.1-0.3-0.4-0.6-1-0.7c-0.1-0.3-0.1-0.6,0.1-0.8C230,147.8,230.9,147.8,232,148z"/>
	<g>
		<g>
			<path class="st14" d="M229.7,152.7c1.2,0,2.2-0.7,3-1.7"/>
			<path class="st14" d="M232.3,154.1c-1,0.8-2.2,1.2-3.4,1.3"/>
			<path class="st14" d="M230.8,148.4l0.5,0.1"/>
		</g>
		<path class="st7" d="M230.4,160c0-0.8,0.4-1,1.3-0.5C231.3,159.9,230.9,160.1,230.4,160z"/>
		<g>
			<path class="st14" d="M226.7,153.6c0.4-0.1,0.8-0.2,1.2-0.6"/>
			<path class="st14" d="M224.6,153.2l0-0.6"/>
			<path class="st14" d="M224,154.7h-0.4"/>
			<path class="st14" d="M224.2,150.1l-0.4-0.2"/>
		</g>
		<path class="st7" d="M231.7,147.9l0.1-1.8l0.8,0.8l0.5-0.5l0.3,1l1-0.1l-0.2,0.8l0.9,0.6l-1.9,0.5L231.7,147.9z"/>
		<path class="st14" d="M234.2,148.8c-0.7-0.7-1.4-1.3-2.4-1.9"/>
		<path class="st44" d="M194.9,148.6c-0.5-0.5-1.1-1.1-1.6-2.3c-0.8-0.5-1.6-0.3-2.4,0.4c-2.8,3.1-2.8,7.9-1.1,13.7
			c1.2-0.7,2.1-1.6,2.6-2.8c0.5,0.8,1.2,1.6,2.5,2.1c-0.2,1.2-0.4,2.3-0.5,3.5c-0.8,1.1-2,1.8-3.2,2.6c3.4,0.6,6.7,0.2,9.9,0
			c-0.3-0.8-0.9-1.6-2-2.2c0.5-1.3,1-2.7,1.5-4c0.3-1.4,0.7-2.8,1-4.3c-0.4,2.6,0.4,3.2,1.6,3.9c0,0.9,0.4,1.9,1.2,2.8
			c1.6-5.8,3.1-11.3,0.1-15c-0.9-1-1.9-1.1-2.8,0c-0.6,1.1-1.3,1.6-2.2,1.5c-0.7-0.4-1-0.9-0.1-1.6c0.1-0.3,0.3-0.5,0.4-0.8
			c0.5,0,0.9,0,1,0.5c0.4-0.7,0.4-0.8,0-1.3c-0.4-0.2-0.8-0.4-1.3-0.4c-0.1-0.5-0.6-0.8-1.5-1c-1.1-0.2-1.7,0.3-1.7,1.2
			C196.4,146.4,195.9,147.5,194.9,148.6z"/>
	</g>
</g>
<path class="st45" d="M205,149.7c0.2-0.5-1.1-2.2-2-2.4c-0.7,0.3-1.2,0.8-1.6,1.6c0,0.5,0.2,0.8,0.6,1.1
	C203,150.1,204,150,205,149.7z"/>
<path class="st45" d="M190.1,150.7c0.4,0.4,2.6-0.7,3.7-1.3c0.4-0.2-1-1.6-1.5-1.5C191.3,148.4,189.8,150.1,190.1,150.7z"/>
<path class="st14" d="M194.4,166c1.4-0.6,2.8-1.4,4.2-2.4"/>
<path class="st45" d="M195.5,152.2c-0.1-0.9,0.2-1.7,1.2-2.2c-0.3-0.5-0.1-0.9,0.4-1.4c0.5,0.3,0.7,0.7,0.6,1.1
	c0.5-0.3,1.2-0.4,1.8-0.4c-0.2,1-0.4,1.9-0.6,2.9c-0.2,0.5,0.1,1,0.4,1.4c0.6-0.1,1.2-0.4,1.7-0.7c1.6,0.2,1.7,0.7,0.2,1.5
	c-0.6,0.1-1.3,0.2-1.9,0.3c-0.8,0.9-0.8,1.8-0.6,2.7c0.7,0,1.4,0.1,2.2,0.4c-0.3,1.1-0.5,2.1-0.8,3.1c-1.4,0.2-2.9,0.4-4.3,0.5
	c0-0.8,0-1.6,0.1-2.3c0-0.8,0.5-1.5,1.1-2.2C197.2,156.6,196,154.8,195.5,152.2z"/>
<g>
	<path class="st14" d="M189.8,151.4l3.3-1.1"/>
	<path class="st14" d="M205.5,151.5c-0.4,2.6-0.9,5.3-1.7,7.9"/>
	<path class="st14" d="M204.7,151.5c-0.1,2.3-0.5,4.7-1.1,7"/>
	<path class="st14" d="M203.6,151.4c0.1,2.3-0.1,4.6-0.5,6.9"/>
	<path class="st14" d="M203,151.7c0.1,2.1,0,4.2-0.4,6.4"/>
	<path class="st14" d="M202,157.4c0.1-1.9,0.1-3.8-0.1-5.7"/>
	<path class="st14" d="M201.1,157l-0.1-6.8"/>
	<path class="st14" d="M200.2,153.6c0-1,0-2,0.3-3"/>
	<path class="st14" d="M200.4,157.5v-1.4"/>
</g>
<path class="st15" d="M198.8,148.1c-0.9-0.3-1.8-0.6-2.7-0.9c0.4-0.7,0.4-1.8,0.3-2.2c0.2-0.9,1-0.9,1.8-0.8c0.6,0.1,1,0.4,1.3,0.8
	c0.1,0.4,0.2,0.8,0.2,1.3C199.5,147,198.6,147.3,198.8,148.1z"/>
<g>
	<path class="st14" d="M190.2,151.7c-0.1,2.9,0.2,5.6,0.7,8.2"/>
	<path class="st14" d="M189.9,157.8c0-1.3-0.1-2.5-0.3-3.8"/>
	<path class="st14" d="M192.3,151.7v3.1"/>
	<path class="st14" d="M190.7,151.8c0,3.1,0.2,5.4,0.7,7.1"/>
	<path class="st14" d="M192.4,156.2c-0.8-0.3-1.1-1.8-1-4.4"/>
</g>
<path class="st45" d="M194.5,150.5c0.2,1.6,0.1,3.2,0.3,4.7c0.5,0.4,0.4,1.1,0.2,1.9c0.4-0.6,0.8-1.1,1.4-1.2
	c0.6,0.8,0.4,1.6,0.2,2.4c-0.4,0.5-0.8,1-1.2,1.5c0-0.7-0.3-1.5-2.3-2.2c0.1-2.5,0.2-4.9,0.8-7.4C194,150,194.3,150.1,194.5,150.5z"
	/>
<path class="st46" d="M204.3,161.2c0.6,0.6,0.7,1.3,0.5,1.9c-0.6,0.3-1.1,0.2-1.7-0.5c-0.5-0.6-1-0.9-1.5-0.8
	c-0.7,0.5-1.3,0.8-2,1.1c-0.9,0.1-1.8,0.1-2.7,0.2c-0.9,0-1.7-0.1-2.6-0.1c-0.6-0.2-1.1-0.3-1.7-0.5c-0.1-0.3-0.1-0.7,0.1-1
	c-0.3,0-0.6-0.1-0.9-0.4c0.4-0.5,1-0.9,2.5-0.5c0.4-0.2,0.9-0.3,1.3-0.5c0.9,0.3,1.8,0.3,2.7,0.3c1.1,0.1,2.2,0.2,3.4,0.3
	C202.6,160.4,203.4,160.5,204.3,161.2z"/>
<path class="st14" d="M193,154.2l-0.1-3.6"/>
<path class="st46" d="M193.1,142.4c0.7,0.6,1.4,0.6,2.1,0.5c0.8,0.5,1.6,1,2.1,0.3c0.7-0.5,1.4-0.5,2.1,0.2c1,1.7,0.7,3.4,0.4,5.2
	c-1.5,2.2-3.4,3.4-5.4,4.5c-3.1,1.8-2.1,3.6-2.2,5.3c0.3,0.4,0.7,0.4,1,0.2c0-1.1,0-2.2,0.4-3.2c1-1,2.2-2,3.9-3
	c1.3-0.7,2.3-1.8,3.1-3c0.6-1.4,0.8-2.7,0.6-4.1c0.1-1.2-0.3-2.2-1.2-2.8c-0.9-0.5-1.8-0.6-2.7-0.4c-0.7,0.1-1.2,0-1.6-0.3
	C194,140.9,193.2,141,193.1,142.4z"/>
<g>
	<path class="st44" d="M199.9,162c0.4-0.3,0.8-0.6,1.2-1c-0.4-0.5-0.8-0.6-1.2-0.6C200,161,200,161.5,199.9,162z"/>
	<g>
		<path class="st14" d="M194.1,141.8h0.4"/>
		<path class="st14" d="M198.4,145l0.6,0.2"/>
		<path class="st14" d="M193.1,142.3h-1.5"/>
	</g>
	<g>
		<ellipse class="st12" cx="190.8" cy="163.7" rx="0.7" ry="1.1"/>
		<path class="st12" d="M187.6,163.4c0.3,0.1,0.7-0.1,0.8-0.5c0.2-0.4,0.1-0.8-0.2-1c-0.3-0.1-0.7,0.1-0.9,0.5
			C187.2,162.9,187.3,163.3,187.6,163.4z"/>
		<path class="st12" d="M188.7,162.7c0.4,0.1,0.8-0.1,1.1-0.5c0.2-0.4,0.2-0.9-0.2-1.1c-0.4-0.1-0.8,0.1-1.1,0.5
			C188.3,162.1,188.4,162.5,188.7,162.7z"/>
		<ellipse class="st12" cx="191.3" cy="161.9" rx="1.5" ry="1.2"/>
	</g>
	<g>
		<path class="st14" d="M199.4,163l-1.3-0.8"/>
		<path class="st14" d="M192.7,161.5h1.3"/>
	</g>
</g>
<path class="st47" d="M199.7,145.1c0.4,0.1,0.8,0.2,1.2,0.3c0.3,0.4,0.4,0.9,0.1,1.3c-0.4-0.6-0.8-0.6-1.2-0.4
	C199.8,146,199.7,145.5,199.7,145.1z"/>
<path class="st14" d="M199.6,145.1c1.2,0.2,1.7,0.6,1.5,1.7c-0.3-0.3-0.9-0.6-1.4-0.5"/>
<path class="st44" d="M198.9,161.5c0.3-1.3,1.4-0.9,2.9,0.2c0-0.9-0.3-1.7-1.5-2.2c-0.5-0.3-0.8-0.7-1.1-1
	C198.2,159.4,198.4,160.5,198.9,161.5z"/>
<g>
	<path class="st4" d="M249.2,149.1c0.2-0.9-0.3-1.8-1.2-2c-0.9-0.2-1.8,0.4-2,1.2c-0.2,0.9,0.3,1.8,1.2,2
		C248.1,150.5,249,150,249.2,149.1z"/>
	<path class="st4" d="M228.1,175.3c0.2-0.9-0.4-1.8-1.2-2c-0.9-0.2-1.8,0.4-2,1.2c-0.2,0.9,0.4,1.8,1.2,2
		C227,176.7,227.9,176.2,228.1,175.3z"/>
	<path class="st4" d="M194.4,175.1c0.2-0.9-0.4-1.8-1.2-2c-0.9-0.2-1.8,0.3-2,1.2c-0.2,0.9,0.3,1.8,1.2,2
		C193.3,176.6,194.2,176,194.4,175.1z"/>
	<path class="st4" d="M173.6,148.7c0.2-0.9-0.4-1.8-1.2-2c-0.9-0.2-1.8,0.3-2,1.2c-0.2,0.9,0.4,1.8,1.2,2
		C172.5,150.1,173.3,149.6,173.6,148.7z"/>
	<path class="st4" d="M181.2,115.9c0.2-0.9-0.4-1.8-1.2-2c-0.9-0.2-1.8,0.4-2,1.2c-0.2,0.9,0.4,1.8,1.2,2
		C180.1,117.3,181,116.8,181.2,115.9z"/>
	<path class="st4" d="M211.6,101.4c0.2-0.9-0.4-1.8-1.2-2c-0.9-0.2-1.8,0.4-2,1.2c-0.2,0.9,0.4,1.8,1.2,2
		C210.5,102.9,211.4,102.3,211.6,101.4z"/>
	<path class="st4" d="M241.9,116.2c0.2-0.9-0.3-1.8-1.2-2c-0.9-0.2-1.8,0.3-2,1.2c-0.2,0.9,0.3,1.8,1.2,2
		C240.8,117.6,241.7,117.1,241.9,116.2z"/>
	<path class="st4" d="M249.4,135.8c0-0.4-0.4-0.7-0.8-0.7c-0.4,0-0.7,0.4-0.7,0.8c0,0.4,0.4,0.7,0.8,0.7
		C249.1,136.6,249.4,136.3,249.4,135.8z"/>
	<path class="st4" d="M249.6,138.8c0-0.4-0.4-0.7-0.8-0.7c-0.4,0-0.7,0.4-0.7,0.8c0,0.4,0.4,0.7,0.8,0.6
		C249.3,139.5,249.6,139.2,249.6,138.8z"/>
	<path class="st4" d="M249.5,141.6c0-0.4-0.4-0.7-0.8-0.7c-0.4,0-0.7,0.4-0.6,0.8c0,0.4,0.4,0.7,0.8,0.7
		C249.3,142.4,249.6,142.1,249.5,141.6z"/>
	<path class="st4" d="M249.3,144.5c0-0.4-0.4-0.7-0.8-0.6c-0.4,0-0.7,0.4-0.7,0.8c0,0.4,0.4,0.7,0.8,0.7
		C249,145.3,249.3,145,249.3,144.5z"/>
	<path class="st4" d="M247.3,153c0-0.4-0.4-0.7-0.8-0.7c-0.4,0-0.7,0.4-0.7,0.8c0,0.4,0.4,0.7,0.8,0.7
		C247.1,153.8,247.3,153.4,247.3,153z"/>
	<path class="st4" d="M246.2,155.7c0-0.4-0.4-0.7-0.8-0.7c-0.4,0-0.7,0.4-0.7,0.8c0,0.4,0.4,0.7,0.8,0.7
		C246,156.5,246.3,156.1,246.2,155.7z"/>
	<path class="st4" d="M245,158.3c0-0.4-0.4-0.7-0.8-0.7c-0.4,0-0.7,0.4-0.7,0.8c0,0.4,0.4,0.7,0.8,0.7
		C244.7,159.1,245,158.7,245,158.3z"/>
	<path class="st4" d="M243.5,160.8c0-0.4-0.4-0.7-0.8-0.7c-0.4,0-0.7,0.4-0.7,0.8c0,0.4,0.4,0.7,0.8,0.7
		C243.2,161.6,243.5,161.2,243.5,160.8z"/>
	<path class="st4" d="M241.8,163.2c0-0.4-0.4-0.7-0.8-0.7c-0.4,0-0.7,0.4-0.7,0.8c0,0.4,0.4,0.7,0.8,0.7
		C241.6,164,241.9,163.6,241.8,163.2z"/>
	<path class="st4" d="M240,165.5c0-0.4-0.4-0.7-0.8-0.7c-0.4,0-0.7,0.4-0.7,0.8c0,0.4,0.4,0.7,0.8,0.7
		C239.7,166.2,240,165.9,240,165.5z"/>
	<path class="st4" d="M238,167.6c0-0.4-0.4-0.7-0.8-0.7c-0.4,0-0.7,0.4-0.7,0.8c0,0.4,0.4,0.7,0.8,0.6
		C237.7,168.3,238,168,238,167.6z"/>
	<path class="st4" d="M235.9,169.6c0-0.4-0.4-0.7-0.8-0.7c-0.4,0-0.7,0.4-0.7,0.8c0,0.4,0.4,0.7,0.8,0.6
		C235.6,170.3,235.9,170,235.9,169.6z"/>
	<path class="st4" d="M233.6,171.3c0-0.4-0.4-0.7-0.8-0.7c-0.4,0-0.7,0.4-0.7,0.8c0,0.4,0.4,0.7,0.8,0.7
		C233.3,172.1,233.6,171.7,233.6,171.3z"/>
	<path class="st4" d="M231.2,173c0-0.4-0.4-0.7-0.8-0.7c-0.4,0-0.7,0.4-0.7,0.8c0,0.4,0.4,0.7,0.8,0.7
		C230.9,173.7,231.2,173.4,231.2,173z"/>
	<path class="st4" d="M223.3,176.7c0-0.4-0.4-0.7-0.8-0.7c-0.4,0-0.7,0.4-0.7,0.8c0,0.4,0.4,0.7,0.8,0.7
		C223,177.4,223.3,177.1,223.3,176.7z"/>
	<path class="st4" d="M220.5,177.5c0-0.4-0.4-0.7-0.8-0.7c-0.4,0-0.7,0.4-0.7,0.8c0,0.4,0.4,0.7,0.8,0.7
		C220.3,178.3,220.6,177.9,220.5,177.5z"/>
	<path class="st4" d="M217.7,178.1c0-0.4-0.4-0.7-0.8-0.7c-0.4,0-0.7,0.4-0.7,0.8c0,0.4,0.4,0.7,0.8,0.7
		C217.4,178.9,217.7,178.6,217.7,178.1z"/>
	<path class="st4" d="M214.8,178.6c0-0.4-0.4-0.7-0.8-0.7c-0.4,0-0.7,0.4-0.7,0.8c0,0.4,0.4,0.7,0.8,0.7
		C214.6,179.3,214.9,179,214.8,178.6z"/>
	<path class="st4" d="M211.9,178.8c0-0.4-0.4-0.7-0.8-0.7c-0.4,0-0.7,0.4-0.7,0.8c0,0.4,0.4,0.7,0.8,0.7
		C211.6,179.5,211.9,179.2,211.9,178.8z"/>
	<path class="st4" d="M209,178.7c0-0.4-0.4-0.7-0.8-0.6c-0.4,0-0.7,0.4-0.7,0.8c0,0.4,0.4,0.7,0.8,0.7
		C208.7,179.5,209,179.1,209,178.7z"/>
	<path class="st4" d="M206.1,178.5c0-0.4-0.4-0.7-0.8-0.7c-0.4,0-0.7,0.4-0.6,0.8c0,0.4,0.4,0.7,0.8,0.7
		C205.8,179.3,206.1,178.9,206.1,178.5z"/>
	<path class="st4" d="M203.2,178c0-0.4-0.4-0.7-0.8-0.7c-0.4,0-0.7,0.4-0.7,0.8c0,0.4,0.4,0.7,0.8,0.7
		C203,178.8,203.3,178.4,203.2,178z"/>
	<path class="st4" d="M200.4,177.4c0-0.4-0.4-0.7-0.8-0.7c-0.4,0-0.7,0.4-0.7,0.8c0,0.4,0.4,0.7,0.8,0.6
		C200.2,178.1,200.5,177.8,200.4,177.4z"/>
	<path class="st4" d="M197.6,176.5c0-0.4-0.4-0.7-0.8-0.7c-0.4,0-0.7,0.4-0.7,0.8c0,0.4,0.4,0.7,0.8,0.7
		C197.4,177.3,197.7,176.9,197.6,176.5z"/>
	<path class="st4" d="M189.8,172.7c0-0.4-0.4-0.7-0.8-0.7c-0.4,0-0.7,0.4-0.7,0.8c0,0.4,0.4,0.7,0.8,0.7
		C189.6,173.4,189.9,173.1,189.8,172.7z"/>
	<path class="st4" d="M187.4,171c0-0.4-0.4-0.7-0.8-0.7c-0.4,0-0.7,0.4-0.7,0.8c0,0.4,0.4,0.7,0.8,0.7
		C187.2,171.8,187.5,171.4,187.4,171z"/>
	<path class="st4" d="M185.2,169.2c0-0.4-0.4-0.7-0.8-0.7c-0.4,0-0.7,0.4-0.7,0.8c0,0.4,0.4,0.7,0.8,0.7
		C184.9,170,185.2,169.6,185.2,169.2z"/>
	<path class="st4" d="M183.1,167.2c0-0.4-0.4-0.7-0.8-0.7c-0.4,0-0.7,0.4-0.7,0.8c0,0.4,0.4,0.7,0.8,0.7
		C182.8,168,183.1,167.6,183.1,167.2z"/>
	<path class="st4" d="M181.1,165.1c0-0.4-0.4-0.7-0.8-0.7c-0.4,0-0.7,0.4-0.7,0.8c0,0.4,0.4,0.7,0.8,0.7
		C180.8,165.8,181.1,165.5,181.1,165.1z"/>
	<path class="st4" d="M179.3,162.8c0-0.4-0.4-0.7-0.8-0.7c-0.4,0-0.7,0.4-0.7,0.8c0,0.4,0.4,0.7,0.8,0.7
		C179.1,163.5,179.3,163.2,179.3,162.8z"/>
	<path class="st4" d="M177.7,160.4c0-0.4-0.4-0.7-0.8-0.7c-0.4,0-0.7,0.4-0.7,0.8c0,0.4,0.4,0.7,0.8,0.7
		C177.4,161.1,177.7,160.8,177.7,160.4z"/>
	<path class="st4" d="M176.2,157.8c0-0.4-0.4-0.7-0.8-0.7c-0.4,0-0.7,0.4-0.7,0.8c0,0.4,0.4,0.7,0.8,0.7
		C176,158.6,176.3,158.2,176.2,157.8z"/>
	<path class="st4" d="M175,155.2c0-0.4-0.4-0.7-0.8-0.7c-0.4,0-0.7,0.4-0.7,0.8c0,0.4,0.4,0.7,0.8,0.7
		C174.8,156,175,155.6,175,155.2z"/>
	<path class="st4" d="M174,152.5c0-0.4-0.4-0.7-0.8-0.7c-0.4,0-0.7,0.4-0.7,0.8c0,0.4,0.4,0.7,0.8,0.7
		C173.7,153.3,174,152.9,174,152.5z"/>
	<path class="st4" d="M172.1,144c0-0.4-0.4-0.7-0.8-0.7c-0.4,0-0.7,0.4-0.7,0.8c0,0.4,0.4,0.7,0.8,0.7
		C171.8,144.8,172.1,144.4,172.1,144z"/>
	<path class="st4" d="M171.9,141.1c0-0.4-0.4-0.7-0.8-0.7c-0.4,0-0.7,0.4-0.7,0.8c0,0.4,0.4,0.7,0.8,0.6
		C171.6,141.9,171.9,141.5,171.9,141.1z"/>
	<path class="st4" d="M171.9,138.2c0-0.4-0.4-0.7-0.8-0.7c-0.4,0-0.7,0.4-0.7,0.8c0,0.4,0.4,0.7,0.8,0.7
		C171.7,138.9,172,138.6,171.9,138.2z"/>
	<path class="st4" d="M172.1,135.3c0-0.4-0.4-0.7-0.8-0.7c-0.4,0-0.7,0.4-0.7,0.8c0,0.4,0.4,0.7,0.8,0.7
		C171.9,136.1,172.2,135.7,172.1,135.3z"/>
	<path class="st4" d="M172.6,132.4c0-0.4-0.4-0.7-0.8-0.7c-0.4,0-0.7,0.4-0.7,0.8c0,0.4,0.4,0.7,0.8,0.7
		C172.4,133.2,172.7,132.8,172.6,132.4z"/>
	<path class="st4" d="M173.3,129.6c0-0.4-0.4-0.7-0.8-0.7c-0.4,0-0.7,0.4-0.7,0.8c0,0.4,0.4,0.7,0.8,0.7
		C173,130.4,173.3,130,173.3,129.6z"/>
	<path class="st4" d="M174.1,126.8c0-0.4-0.4-0.7-0.8-0.7c-0.4,0-0.7,0.4-0.6,0.8c0,0.4,0.4,0.7,0.8,0.7
		C173.9,127.6,174.2,127.2,174.1,126.8z"/>
	<path class="st4" d="M175.2,124.1c0-0.4-0.4-0.7-0.8-0.7c-0.4,0-0.7,0.4-0.7,0.8c0,0.4,0.4,0.7,0.8,0.7
		C175,124.9,175.3,124.5,175.2,124.1z"/>
	<path class="st4" d="M176.5,121.5c0-0.4-0.4-0.7-0.8-0.7c-0.4,0-0.7,0.4-0.7,0.8c0,0.4,0.4,0.7,0.8,0.6
		C176.2,122.3,176.5,121.9,176.5,121.5z"/>
	<path class="st4" d="M178,119c0-0.4-0.4-0.7-0.8-0.7c-0.4,0-0.7,0.4-0.7,0.8c0,0.4,0.4,0.7,0.8,0.7C177.7,119.8,178,119.4,178,119z
		"/>
	<path class="st4" d="M185.6,110.3c0-0.4-0.4-0.7-0.8-0.7c-0.4,0-0.7,0.4-0.7,0.8c0,0.4,0.4,0.7,0.8,0.7
		C185.3,111.1,185.6,110.7,185.6,110.3z"/>
	<path class="st4" d="M187.9,108.5c0-0.4-0.4-0.7-0.8-0.7c-0.4,0-0.7,0.4-0.7,0.8c0,0.4,0.4,0.7,0.8,0.7
		C187.6,109.3,187.9,108.9,187.9,108.5z"/>
	<path class="st4" d="M190.3,106.9c0-0.4-0.4-0.7-0.8-0.7c-0.4,0-0.7,0.4-0.7,0.8c0,0.4,0.4,0.7,0.8,0.7
		C190,107.6,190.3,107.3,190.3,106.9z"/>
	<path class="st4" d="M192.8,105.4c0-0.4-0.4-0.7-0.8-0.7c-0.4,0-0.7,0.4-0.7,0.8c0,0.4,0.4,0.7,0.8,0.7
		C192.6,106.2,192.9,105.8,192.8,105.4z"/>
	<path class="st4" d="M195.4,104.2c0-0.4-0.4-0.7-0.8-0.7c-0.4,0-0.7,0.4-0.7,0.8c0,0.4,0.4,0.7,0.8,0.7
		C195.2,105,195.5,104.6,195.4,104.2z"/>
	<path class="st4" d="M198.2,103.1c0-0.4-0.4-0.7-0.8-0.7c-0.4,0-0.7,0.4-0.7,0.8c0,0.4,0.4,0.7,0.8,0.7
		C197.9,103.9,198.2,103.6,198.2,103.1z"/>
	<path class="st4" d="M200.9,102.3c0-0.4-0.4-0.7-0.8-0.7c-0.4,0-0.7,0.4-0.7,0.8c0,0.4,0.4,0.7,0.8,0.7
		C200.7,103.1,201,102.7,200.9,102.3z"/>
	<path class="st4" d="M203.8,101.7c0-0.4-0.4-0.7-0.8-0.7c-0.4,0-0.7,0.4-0.7,0.8c0,0.4,0.4,0.7,0.8,0.6
		C203.5,102.5,203.8,102.1,203.8,101.7z"/>
	<path class="st4" d="M206.6,101.3c0-0.4-0.4-0.7-0.8-0.7c-0.4,0-0.7,0.4-0.7,0.8c0,0.4,0.4,0.7,0.8,0.7
		C206.4,102.1,206.7,101.7,206.6,101.3z"/>
	<path class="st4" d="M215.3,101.3c0-0.4-0.4-0.7-0.8-0.7c-0.4,0-0.7,0.4-0.6,0.8c0,0.4,0.4,0.7,0.8,0.7
		C215.1,102.1,215.4,101.7,215.3,101.3z"/>
	<path class="st4" d="M218.2,101.8c0-0.4-0.4-0.7-0.8-0.7c-0.4,0-0.7,0.4-0.7,0.8c0,0.4,0.4,0.7,0.8,0.7
		C218,102.6,218.3,102.2,218.2,101.8z"/>
	<path class="st4" d="M221,102.5c0-0.4-0.4-0.7-0.8-0.7c-0.4,0-0.7,0.4-0.7,0.8c0,0.4,0.4,0.7,0.8,0.7
		C220.8,103.2,221.1,102.9,221,102.5z"/>
	<path class="st4" d="M223.8,103.3c0-0.4-0.4-0.7-0.8-0.6c-0.4,0-0.7,0.4-0.7,0.8c0,0.4,0.4,0.7,0.8,0.7
		C223.6,104.1,223.9,103.7,223.8,103.3z"/>
	<path class="st4" d="M226.5,104.4c0-0.4-0.4-0.7-0.8-0.7c-0.4,0-0.7,0.4-0.7,0.8c0,0.4,0.4,0.7,0.8,0.6
		C226.3,105.2,226.5,104.8,226.5,104.4z"/>
	<path class="st4" d="M229.1,105.7c0-0.4-0.4-0.7-0.8-0.7c-0.4,0-0.7,0.4-0.7,0.8c0,0.4,0.4,0.7,0.8,0.7
		C228.9,106.5,229.2,106.1,229.1,105.7L229.1,105.7z"/>
	<path class="st4" d="M231.6,107.2c0-0.4-0.4-0.7-0.8-0.7c-0.4,0-0.7,0.4-0.7,0.8c0,0.4,0.4,0.7,0.8,0.7
		C231.4,107.9,231.7,107.6,231.6,107.2z"/>
	<path class="st4" d="M234,108.8c0-0.4-0.4-0.7-0.8-0.7c-0.4,0-0.7,0.4-0.7,0.8c0,0.4,0.4,0.7,0.8,0.7
		C233.8,109.6,234.1,109.2,234,108.8z"/>
	<path class="st4" d="M236.3,110.6c0-0.4-0.4-0.7-0.8-0.7c-0.4,0-0.7,0.4-0.7,0.8c0,0.4,0.4,0.7,0.8,0.7
		C236,111.4,236.3,111,236.3,110.6z"/>
	<path class="st4" d="M243.8,119.5c0-0.4-0.4-0.7-0.8-0.7c-0.4,0-0.7,0.4-0.7,0.8c0,0.4,0.4,0.7,0.8,0.7
		C243.5,120.2,243.8,119.9,243.8,119.5z"/>
	<path class="st4" d="M245.2,122c0-0.4-0.4-0.7-0.8-0.7c-0.4,0-0.7,0.4-0.7,0.8c0,0.4,0.4,0.7,0.8,0.6
		C245,122.8,245.3,122.4,245.2,122z"/>
	<path class="st4" d="M246.4,124.6c0-0.4-0.4-0.7-0.8-0.7c-0.4,0-0.7,0.4-0.7,0.8c0,0.4,0.4,0.7,0.8,0.6
		C246.2,125.4,246.5,125,246.4,124.6z"/>
	<path class="st4" d="M247.5,127.3c0-0.4-0.4-0.7-0.8-0.6c-0.4,0-0.7,0.4-0.7,0.8c0,0.4,0.4,0.7,0.8,0.7
		C247.2,128.1,247.5,127.8,247.5,127.3z"/>
	<path class="st4" d="M248.3,130.1c0-0.4-0.4-0.7-0.8-0.7c-0.4,0-0.7,0.4-0.7,0.8c0,0.4,0.4,0.7,0.8,0.7
		C248.1,130.9,248.4,130.5,248.3,130.1z"/>
	<path class="st4" d="M248.9,133c0-0.4-0.4-0.7-0.8-0.7c-0.4,0-0.7,0.4-0.7,0.8c0,0.4,0.4,0.7,0.8,0.7
		C248.7,133.7,249,133.4,248.9,133z"/>
	<path class="st4" d="M249.4,135.8c0-0.4-0.4-0.7-0.8-0.7c-0.4,0-0.7,0.4-0.7,0.8c0,0.4,0.4,0.7,0.8,0.7
		C249.1,136.6,249.4,136.2,249.4,135.8z"/>
</g>
</svg>
