<?xml version="1.0" encoding="utf-8"?>
<!-- Generator: Adobe Illustrator 23.1.1, SVG Export Plug-In . SVG Version: 6.00 Build 0)  -->
<svg version="1.1" id="toronto" xmlns="http://www.w3.org/2000/svg" xmlns:xlink="http://www.w3.org/1999/xlink" x="0px" y="0px"
	 viewBox="0 0 420 210" style="enable-background:new 0 0 420 210;" xml:space="preserve">
<style type="text/css">
	.st0{fill:#274490;}
	.st1{clip-path:url(#SVGID_2_);}
	.st2{fill:none;stroke:#FFFFFF;stroke-width:112.5;stroke-miterlimit:10;}
	.st3{fill:#FF0000;}
</style>
<title>Flag of Toronto</title>
<path class="st0" d="M0,0h420v210H0V0z"/>
<g>
	<defs>
		<rect id="SVGID_1_" width="420" height="210"/>
	</defs>
	<clipPath id="SVGID_2_">
		<use xlink:href="#SVGID_1_"  style="overflow:visible;"/>
	</clipPath>
	<g class="st1">
		<path class="st2" d="M-22.8,32.8c33.6,14.7,82.2,27,157.1,27.4V168h68.1V60.2c74.8-0.4,169.4-5.5,240.4-32.9 M131,70v140h74.7V70"
			/>
		<path class="st3" d="M166.2,223l1.1-20.4c0.1-1.2-0.9-2.3-2.1-2.3c-0.2,0-0.3,0-0.5,0l-20.3,3.6l2.7-7.6c0.2-0.6,0-1.3-0.5-1.7
			l-22.2-18l5-2.3c0.7-0.3,1-1.1,0.8-1.9l-4.4-13.5l12.8,2.7c0.7,0.1,1.4-0.2,1.7-0.9l2.5-5.8l10,10.7c0.6,0.6,1.6,0.6,2.2,0.1
			c0.4-0.4,0.6-0.9,0.5-1.4l-4.8-24.9l7.7,4.5c0.7,0.4,1.7,0.2,2.1-0.5c0,0,0-0.1,0-0.1l7.8-15.4l7.8,15.4c0.4,0.8,1.3,1.1,2.1,0.7
			c0,0,0.1,0,0.1,0l7.7-4.5l-4.8,24.9c-0.2,0.8,0.4,1.6,1.2,1.8c0.5,0.1,1-0.1,1.4-0.5l10-10.7l2.5,5.8c0.3,0.7,1,1,1.7,0.9
			l12.8-2.7l-4.4,13.5c-0.2,0.7,0.1,1.5,0.8,1.9l5,2.3l-22.2,18c-0.5,0.4-0.7,1.1-0.5,1.7l2.7,7.6l-20.3-3.6
			c-1.2-0.2-2.4,0.6-2.6,1.8c0,0.2,0,0.3,0,0.5l1.1,20.4H166.2z"/>
	</g>
</g>
</svg>
