<?xml version="1.0" encoding="utf-8"?>
<!-- Generator: Adobe Illustrator 23.1.1, SVG Export Plug-In . SVG Version: 6.00 Build 0)  -->
<svg version="1.1"
	 id="washington-dc" xmlns:cc="http://creativecommons.org/ns#" xmlns:dc="http://purl.org/dc/elements/1.1/" xmlns:rdf="http://www.w3.org/1999/02/22-rdf-syntax-ns#" xmlns:svg="http://www.w3.org/2000/svg"
	 xmlns="http://www.w3.org/2000/svg" xmlns:xlink="http://www.w3.org/1999/xlink" x="0px" y="0px" viewBox="0 0 420 210"
	 style="enable-background:new 0 0 420 210;" xml:space="preserve">
<style type="text/css">
	.st0{fill:#FFFFFF;}
	.st1{fill:#E81B39;}
</style>
<rect id="rect2" class="st0" width="420" height="210"/>
<path id="t" class="st1" d="M105,10.5L100.3,25H85l12.3,9l-4.7,14.5l12.3-9l12.3,9L112.6,34l12.3-9h-15.3L105,10.5z"/>
<rect id="b" y="63" class="st1" width="420" height="42"/>
<g id="use22">
	<rect y="126" class="st1" width="420" height="42"/>
</g>
<path id="path1023" class="st1" d="M210,10.5L205.3,25H190l12.3,9l-4.7,14.5l12.3-9l12.3,9L217.6,34l12.3-9h-15.3L210,10.5z"/>
<path id="path1051" class="st1" d="M315,10.5L310.3,25H295l12.3,9l-4.7,14.5l12.3-9l12.3,9L322.6,34l12.3-9h-15.3L315,10.5z"/>
</svg>
